<?xml version="1.0" standalone="no"?>
<!DOCTYPE svg PUBLIC "-//W3C//DTD SVG 1.1//EN" "http://www.w3.org/Graphics/SVG/1.1/DTD/svg11.dtd" >
<svg>
<metadata>
Created by FontForge 20090622 at Fri Jul 10 11:33:01 2015
 By deploy user
Copyright (c) 2013 by Mariya Pigoulevskaya. All rights reserved.
</metadata>
<defs>
<font id="Merel-Medium" horiz-adv-x="510" >
  <font-face 
    font-family="Merel Medium"
    font-weight="500"
    font-stretch="normal"
    units-per-em="1000"
    panose-1="0 0 6 0 0 0 0 0 0 0"
    ascent="800"
    descent="-200"
    x-height="400"
    cap-height="650"
    bbox="-67 -307.5 1136 1099"
    underline-thickness="50"
    underline-position="-50"
    unicode-range="U+0020-U+25CA"
  />
<missing-glyph horiz-adv-x="500" 
d="M0 0v700h500v-700h-500zM250 395l170 255h-340zM280 350l170 -255v510zM80 50h340l-170 255zM50 605v-510l170 255z" />
    <glyph glyph-name=".notdef" horiz-adv-x="500" 
d="M0 0v700h500v-700h-500zM250 395l170 255h-340zM280 350l170 -255v510zM80 50h340l-170 255zM50 605v-510l170 255z" />
    <glyph glyph-name=".null" horiz-adv-x="0" 
 />
    <glyph glyph-name="nonmarkingreturn" horiz-adv-x="333" 
 />
    <glyph glyph-name="space" unicode=" " horiz-adv-x="229" 
 />
    <glyph glyph-name="exclam" unicode="!" horiz-adv-x="199" 
d="M150 537l-21 -314q-30 -8 -60 0l-21 314v113q52 11 102 0v-113zM100 101q25 0 43 -16.5t18 -41.5t-18 -41.5t-43 -16.5q-26 0 -44 16.5t-18 41.5t18 41.5t44 16.5z" />
    <glyph glyph-name="quotedbl" unicode="&#x22;" horiz-adv-x="345" 
d="M140 650l-30 -197q-36 -7 -72 0v197q51 11 102 0zM307 650l-30 -197q-36 -7 -72 0v197q51 11 102 0z" />
    <glyph glyph-name="numbersign" unicode="#" horiz-adv-x="548" 
d="M371 280h96q1 -10 -4.5 -29t-11.5 -26h-96l-65 -225q-30 -9 -61 0l65 225h-98l-65 -225q-31 -9 -61 0l65 225h-96q-2 10 3.5 29t12.5 26h96l26 90h-97q-1 11 4.5 29.5t11.5 25.5h97l64 225q30 9 61 0l-64 -225h97l65 225q30 9 61 0l-65 -225h97q1 -9 -4.5 -28.5
t-10.5 -26.5h-97zM238 370l-26 -90h98l26 90h-98z" />
    <glyph glyph-name="dollar" unicode="$" horiz-adv-x="561" 
d="M503 177q0 -84 -57.5 -135t-148.5 -56v-94q-19 -10 -37 0v93q-104 5 -183 58q-6 11 -6 51.5t6 47.5q103 -71 195 -71q59 0 93 27.5t34 71.5q0 46 -32.5 67.5t-120.5 49.5q-42 14 -70.5 27t-58.5 34.5t-45 53.5t-15 74q0 75 54 129t149 59v94q18 10 37 0v-94
q96 -4 166 -56q5 -13 5.5 -52t-5.5 -47q-99 70 -184 70q-55 0 -87 -26.5t-32 -67.5q0 -43 31.5 -63t120.5 -49q43 -14 70.5 -26.5t58.5 -34.5t46.5 -56t15.5 -79z" />
    <glyph glyph-name="percent" unicode="%" horiz-adv-x="759" 
d="M178 665q65 0 102.5 -46.5t37.5 -123.5t-37.5 -123.5t-102.5 -46.5q-64 0 -102 46.5t-38 123.5t38 123.5t102 46.5zM565 650l-308 -650q-31 -9 -62 0l308 650q31 9 62 0zM178 606q-32 0 -50.5 -27.5t-18.5 -83.5t18.5 -83.5t50.5 -27.5t50.5 27.5t18.5 83.5t-18.5 83.5
t-50.5 27.5zM580 325q65 0 102.5 -46.5t37.5 -123.5t-37.5 -123.5t-102.5 -46.5q-64 0 -102 46.5t-38 123.5t38 123.5t102 46.5zM580 266q-32 0 -50.5 -27.5t-18.5 -83.5t18.5 -83.5t50.5 -27.5t50.5 27.5t18.5 83.5t-18.5 83.5t-50.5 27.5z" />
    <glyph glyph-name="ampersand" unicode="&#x26;" horiz-adv-x="677" 
d="M276 665q79 0 131.5 -41.5t52.5 -112.5q0 -56 -37.5 -94t-113.5 -83l137 -139q45 66 54 155q50 13 102 0q-17 -127 -87 -223l127 -126q-22 -5 -63 -5t-62 5l-65 63q-89 -80 -202 -80q-88 0 -151.5 48t-63.5 131q0 60 34 104t100 85q-75 89 -75 156t52 112t130 45z
M277 579q-36 0 -58.5 -21t-22.5 -53q0 -45 53 -108q62 34 85.5 55t23.5 53t-21 53t-60 21zM388 128l-156 158q-48 -29 -70.5 -55t-22.5 -64q0 -47 34 -72t81 -25q74 0 134 58z" />
    <glyph glyph-name="quotesingle" unicode="'" horiz-adv-x="178" 
d="M140 650l-30 -197q-36 -7 -72 0v197q51 11 102 0z" />
    <glyph glyph-name="parenleft" unicode="(" horiz-adv-x="259" 
d="M220 650q-41 -80 -65 -183.5t-24 -197.5t24 -197.5t65 -183.5q-44 -9 -90 0q-43 75 -67.5 177.5t-24.5 203.5t24.5 203.5t67.5 177.5q46 9 90 0z" />
    <glyph glyph-name="parenright" unicode=")" horiz-adv-x="259" 
d="M128 650q43 -75 67.5 -177.5t24.5 -203.5t-24.5 -203.5t-67.5 -177.5q-44 -9 -90 0q41 80 65 183.5t24 197.5t-24 197.5t-65 183.5q46 9 90 0z" />
    <glyph glyph-name="asterisk" unicode="*" horiz-adv-x="422" 
d="M235 512l126 56q22 -32 23 -68l-131 -33l95 -101q-24 -30 -57 -44l-79 121l-80 -121q-35 15 -56 44l94 101l-131 33q3 38 23 68l126 -56l-12 138q36 9 71 0z" />
    <glyph glyph-name="plus" unicode="+" horiz-adv-x="430" 
d="M250 305h137q11 -36 0 -72h-137v-136q-35 -11 -69 0v136h-138q-9 36 0 72h138v136q34 9 69 0v-136z" />
    <glyph glyph-name="comma" unicode="," horiz-adv-x="207" 
d="M101 101q26 0 46 -18.5t21 -55.5q1 -46 -22.5 -100.5t-45.5 -70.5q-26 -7 -53 0q26 26 44 63.5t23 67.5q-10 -2 -15 -2q-25 0 -42.5 16.5t-17.5 41.5t18 41.5t44 16.5z" />
    <glyph glyph-name="hyphen" unicode="-" horiz-adv-x="361" 
d="M43 305h275q11 -36 0 -72h-275q-9 36 0 72z" />
    <glyph glyph-name="period" unicode="." horiz-adv-x="199" 
d="M100 -15q-26 0 -44 16.5t-18 41.5t18 41.5t44 16.5q25 0 43 -16.5t18 -41.5t-18 -41.5t-43 -16.5z" />
    <glyph glyph-name="slash" unicode="/" horiz-adv-x="335" 
d="M297 650l-171 -650q-44 -9 -88 0l171 650q44 9 88 0z" />
    <glyph glyph-name="zero" unicode="0" horiz-adv-x="654" 
d="M327 665q123 0 196 -93t73 -247t-73 -247t-196 -93q-124 0 -197 93t-73 247t73 247t197 93zM327 579q-76 0 -121 -63.5t-45 -190.5t45 -190.5t121 -63.5q75 0 120 64t45 190t-45 190t-120 64z" />
    <glyph glyph-name="one" unicode="1" horiz-adv-x="371" 
d="M41 531l166 119q41 8 82 0v-650q-52 -11 -102 0v537l-146 -105q-6 8 -5.5 48t5.5 51z" />
    <glyph glyph-name="two" unicode="2" horiz-adv-x="529" 
d="M211 86h264q10 -43 0 -86h-436v10q140 151 211 239.5t92 131.5t21 83q0 51 -33.5 83t-89.5 32q-84 0 -170 -70q-6 8 -5.5 47.5t5.5 51.5q66 57 177 57q104 0 162 -57t58 -139q0 -77 -54 -156.5t-202 -226.5z" />
    <glyph glyph-name="three" unicode="3" horiz-adv-x="551" 
d="M272 665q101 0 160 -49.5t59 -125.5q0 -52 -26.5 -93t-71.5 -61q57 -19 87 -62.5t30 -100.5q0 -86 -65.5 -137.5t-165.5 -51.5q-55 0 -108 16t-87 41q-5 13 -5.5 52.5t5.5 47.5q95 -71 186 -71q59 0 97.5 30.5t38.5 84.5q0 46 -30.5 75.5t-90.5 29.5h-84q-9 40 0 81h82
q48 0 77 29t29 74q0 46 -32.5 75.5t-88.5 29.5q-84 0 -179 -70q-6 8 -5.5 47t5.5 52q75 57 183 57z" />
    <glyph glyph-name="four" unicode="4" horiz-adv-x="578" 
d="M451 220h87q9 -43 0 -85h-87v-135q-52 -11 -102 0v135h-309q-9 43 0 85l329 430q41 8 82 0v-430zM348 505l-218 -285h218v285z" />
    <glyph glyph-name="five" unicode="5" horiz-adv-x="532" 
d="M150 650h308q9 -43 0 -86h-229l-28 -181q37 14 72 14q96 0 157 -55t61 -147q0 -95 -66.5 -153t-169.5 -58q-54 0 -106.5 16t-86.5 41q-5 13 -5.5 52.5t5.5 47.5q95 -71 186 -71q61 0 100 34.5t39 89.5q0 58 -42.5 91.5t-112.5 33.5q-61 0 -135 -35z" />
    <glyph glyph-name="six" unicode="6" horiz-adv-x="582" 
d="M327 416q89 -1 143 -61t54 -147q0 -94 -64.5 -158.5t-168.5 -64.5q-106 0 -170 66t-64 171q0 76 32.5 152t80.5 130.5t91 91.5t75 54q22 4 65.5 4t64.5 -4q-92 -65 -160 -130.5t-102 -144.5q51 41 123 41zM290 71q58 0 94 37.5t36 97.5q0 58 -35 94t-93 36
q-72 0 -123 -53q-8 -38 -8 -75q0 -61 35.5 -99t93.5 -38z" />
    <glyph glyph-name="seven" unicode="7" horiz-adv-x="542" 
d="M507 640l-308 -640q-21 -4 -54.5 -4t-55.5 4l274 564h-309q-9 43 0 86h453v-10z" />
    <glyph glyph-name="eight" unicode="8" horiz-adv-x="546" 
d="M273 665q97 0 154.5 -50t57.5 -125q0 -51 -27 -92.5t-72 -61.5q56 -20 87 -64.5t31 -100.5q0 -85 -65 -136t-166 -51q-102 0 -167 51t-65 136q0 56 31 100.5t87 64.5q-45 20 -72 61.5t-27 92.5q0 75 57.5 125t155.5 50zM273 579q-51 0 -81.5 -30.5t-30.5 -74.5
q0 -43 29.5 -73t73.5 -30h17q45 0 74 30t29 73q0 45 -30 75t-81 30zM281 290h-17q-54 0 -86.5 -31t-32.5 -78q0 -52 36 -81.5t92 -29.5q55 0 91 29.5t36 81.5q0 47 -32.5 78t-86.5 31z" />
    <glyph glyph-name="nine" unicode="9" horiz-adv-x="582" 
d="M290 665q106 0 170 -66t64 -171q0 -76 -32.5 -152t-80.5 -130.5t-91 -91.5t-76 -54q-21 -4 -64.5 -4t-64.5 4q92 65 160 130.5t102 144.5q-51 -41 -123 -41q-90 1 -143.5 61t-53.5 147q0 94 64.5 158.5t168.5 64.5zM290 579q-57 0 -93 -37.5t-36 -97.5q0 -58 34.5 -94
t93.5 -36q72 0 123 53q8 38 8 75q0 61 -35.5 99t-94.5 38z" />
    <glyph glyph-name="colon" unicode=":" horiz-adv-x="199" 
d="M100 299q-26 0 -44 16.5t-18 41.5t18 41.5t44 16.5q25 0 43 -16.5t18 -41.5t-18 -41.5t-43 -16.5zM100 -15q-26 0 -44 16.5t-18 41.5t18 41.5t44 16.5q25 0 43 -16.5t18 -41.5t-18 -41.5t-43 -16.5z" />
    <glyph glyph-name="semicolon" unicode=";" horiz-adv-x="207" 
d="M101 415q25 0 43 -16.5t18 -41.5t-18 -41.5t-43 -16.5q-26 0 -44 16.5t-18 41.5t18 41.5t44 16.5zM101 101q26 0 46 -18.5t21 -55.5q1 -46 -22.5 -100.5t-45.5 -70.5q-26 -7 -53 0q26 26 44 63.5t23 67.5q-10 -2 -15 -2q-25 0 -42.5 16.5t-17.5 41.5t18 41.5t44 16.5z
" />
    <glyph glyph-name="less" unicode="&#x3c;" horiz-adv-x="443" 
d="M43 288l357 185q12 -41 0 -82l-240 -122l240 -122q12 -41 0 -82l-357 185q-11 20 0 38z" />
    <glyph glyph-name="equal" unicode="=" horiz-adv-x="430" 
d="M43 377h344q11 -34 0 -72l-344 1q-9 36 0 71zM43 230h344q11 -36 0 -72l-344 1q-9 35 0 71z" />
    <glyph glyph-name="greater" unicode="&#x3e;" horiz-adv-x="443" 
d="M43 473l357 -185q13 -18 0 -38l-357 -185q-11 41 0 82l241 122l-241 122q-11 41 0 82z" />
    <glyph glyph-name="question" unicode="?" horiz-adv-x="488" 
d="M262 223q-50 -11 -102 0q0 51 17 77t65 62q45 31 61.5 44t29.5 33.5t13 45.5q0 41 -32 67.5t-87 26.5q-85 0 -184 -70q-6 8 -5.5 47t5.5 52q79 57 194 57q100 0 156 -50t56 -121q0 -54 -28 -88t-95 -83q-27 -19 -37.5 -28.5t-18.5 -27t-8 -44.5zM212 -15q-26 0 -44 16.5
t-18 41.5t18 41.5t44 16.5q25 0 43 -16.5t18 -41.5t-18 -41.5t-43 -16.5z" />
    <glyph glyph-name="at" unicode="@" horiz-adv-x="924" 
d="M473 607q183 0 288 -106t105 -268q0 -70 -16.5 -121t-44 -77t-56 -38t-57.5 -12q-38 0 -71 18t-48 54q-59 -72 -146 -72t-140.5 61.5t-53.5 153.5t53.5 153.5t140.5 61.5q88 0 142 -68l7 53q40 9 81 0v-276q0 -66 43 -66q40 0 66.5 44t26.5 131q0 143 -86.5 225
t-233.5 82q-146 0 -244.5 -91.5t-98.5 -243.5q0 -128 70.5 -208t168.5 -101q6 -8 6 -32t-5 -35q-132 19 -222.5 123.5t-90.5 253.5q0 171 118 286t298 115zM451 334q-56 0 -90 -37t-34 -97t34 -97t90 -37q65 0 113 53v162q-48 53 -113 53z" />
    <glyph glyph-name="A" unicode="A" horiz-adv-x="696" 
d="M391 650l270 -650q-53 -11 -106 0l-66 163h-283l-65 -163q-53 -11 -106 0l270 650q42 9 86 0zM239 249h218l-109 270z" />
    <glyph glyph-name="B" unicode="B" horiz-adv-x="610" 
d="M82 650h263q90 0 147.5 -46.5t57.5 -120.5q0 -51 -25.5 -89t-70.5 -57q55 -19 85 -59.5t30 -96.5q0 -82 -59.5 -131.5t-162.5 -49.5h-265v650zM185 564v-196h157q49 0 78 26.5t29 71.5q0 46 -31 72t-82 26h-151zM185 295v-209h157q59 0 91.5 28.5t32.5 77.5q0 47 -31 75
t-91 28h-159z" />
    <glyph glyph-name="C" unicode="C" horiz-adv-x="706" 
d="M417 71q107 0 205 66q6 -8 5.5 -46t-5.5 -49q-86 -57 -210 -57q-158 0 -256.5 98t-98.5 242t98.5 242t256.5 98q124 0 210 -57q5 -11 5.5 -49t-5.5 -46q-98 66 -205 66q-110 0 -183 -71.5t-73 -182.5t73 -182.5t183 -71.5z" />
    <glyph glyph-name="D" unicode="D" horiz-adv-x="710" 
d="M82 650h226q159 0 252 -92.5t93 -232.5t-93 -232.5t-252 -92.5h-226v650zM185 86h124q112 0 176 65t64 174t-64 174t-176 65h-124v-478z" />
    <glyph glyph-name="E" unicode="E" horiz-adv-x="571" 
d="M184 86h340q10 -43 0 -86h-442v650h442q10 -43 0 -86h-340v-190h309q9 -43 0 -86h-309v-202z" />
    <glyph glyph-name="F" unicode="F" horiz-adv-x="571" 
d="M184 368h309q9 -43 0 -86h-309v-282q-50 -11 -102 0v650h442q10 -43 0 -86h-340v-196z" />
    <glyph glyph-name="G" unicode="G" horiz-adv-x="717" 
d="M538 96v217q50 10 100 0v-271q-37 -25 -99 -41t-127 -16q-158 0 -256.5 98t-98.5 242t98.5 242t256.5 98q124 0 210 -57q5 -11 5.5 -49t-5.5 -46q-98 66 -205 66q-110 0 -183 -71.5t-73 -182.5q0 -112 73 -184t183 -72q67 0 121 27z" />
    <glyph glyph-name="H" unicode="H" horiz-adv-x="726" 
d="M541 374v276q50 11 102 0v-650q-52 -11 -102 0v288h-357v-288q-50 -11 -102 0v650q52 11 102 0v-276h357z" />
    <glyph glyph-name="I" unicode="I" horiz-adv-x="267" 
d="M184 650v-650q-50 -11 -102 0v650q52 11 102 0z" />
    <glyph glyph-name="J" unicode="J" horiz-adv-x="410" 
d="M328 650v-468q0 -96 -45.5 -146.5t-125.5 -50.5q-65 0 -116 32q-5 11 -5.5 44t5.5 42q45 -27 89 -27q96 0 96 115v459q51 11 102 0z" />
    <glyph glyph-name="K" unicode="K" horiz-adv-x="641" 
d="M293 334l312 -334q-21 -4 -61.5 -4t-61.5 4l-298 318v-318q-50 -11 -102 0v650q52 11 102 0v-299l283 299q22 4 62.5 4t61.5 -4z" />
    <glyph glyph-name="L" unicode="L" horiz-adv-x="545" 
d="M184 86h321q9 -43 0 -86h-423v650q52 11 102 0v-564z" />
    <glyph glyph-name="M" unicode="M" horiz-adv-x="901" 
d="M713 650l152 -650q-50 -10 -100 0l-105 469l-168 -469q-42 -9 -84 0l-168 469l-105 -469q-50 -10 -100 0l152 650q43 9 87 0l176 -490l176 490q44 9 87 0z" />
    <glyph glyph-name="N" unicode="N" horiz-adv-x="717" 
d="M639 650v-650q-41 -9 -81 0l-377 479v-479q-50 -11 -102 0v650q41 8 82 0l376 -479v479q52 11 102 0z" />
    <glyph glyph-name="O" unicode="O" horiz-adv-x="799" 
d="M399 665q150 0 246 -98.5t96 -241.5t-96 -241.5t-246 -98.5t-246 98.5t-96 241.5t96 241.5t246 98.5zM399 579q-102 0 -170 -71.5t-68 -182.5t68 -182.5t170 -71.5t170 71.5t68 182.5t-68 182.5t-170 71.5z" />
    <glyph glyph-name="P" unicode="P" horiz-adv-x="620" 
d="M82 650h239q112 0 176.5 -60t64.5 -153q0 -92 -64.5 -152t-176.5 -60h-137v-225q-50 -11 -102 0v650zM185 310h137q65 0 101 35t36 92t-36 92t-101 35h-137v-254z" />
    <glyph glyph-name="Q" unicode="Q" horiz-adv-x="799" 
d="M399 665q150 0 246 -98.5t96 -241.5q0 -113 -63 -201t-168 -120l121 -168q-53 -13 -107 0l-109 150q-7 -1 -21 -1q-147 1 -242 100t-95 240q0 143 96 241.5t246 98.5zM399 579q-102 0 -170 -71.5t-68 -182.5t68 -182.5t170 -71.5t170 71.5t68 182.5t-68 182.5t-170 71.5z
" />
    <glyph glyph-name="R" unicode="R" horiz-adv-x="632" 
d="M82 650h246q112 0 176.5 -59t64.5 -150q0 -70 -39 -122t-113 -72l176 -247q-22 -4 -56.5 -4t-56.5 4l-166 232h-130v-232q-50 -11 -102 0v650zM185 564v-246h144q65 0 101 34t36 89t-36 89t-101 34h-144z" />
    <glyph glyph-name="S" unicode="S" horiz-adv-x="561" 
d="M278 665q106 0 185 -57q5 -13 5.5 -52t-5.5 -47q-99 70 -184 70q-55 0 -87 -26.5t-32 -67.5q0 -43 31.5 -63t120.5 -49q43 -14 70.5 -26.5t58.5 -34.5t46.5 -56t15.5 -79q0 -89 -64 -140.5t-163 -51.5q-114 0 -199 58q-6 11 -6 51.5t6 47.5q103 -71 195 -71q59 0 93 27.5
t34 71.5q0 46 -32.5 67.5t-120.5 49.5q-42 14 -70.5 27t-58.5 34.5t-45 53.5t-15 74q0 80 59.5 134.5t161.5 54.5z" />
    <glyph glyph-name="T" unicode="T" horiz-adv-x="586" 
d="M40 650h507q9 -43 0 -86h-202v-564q-52 -11 -103 0v564h-202q-9 43 0 86z" />
    <glyph glyph-name="U" unicode="U" horiz-adv-x="694" 
d="M511 243v407q53 11 104 0v-392q0 -134 -70 -203.5t-196 -69.5q-127 0 -197 69.5t-70 203.5v392q52 11 104 0v-407q0 -79 43.5 -125.5t119.5 -46.5t119 46.5t43 125.5z" />
    <glyph glyph-name="V" unicode="V" horiz-adv-x="686" 
d="M343 151l202 499q53 11 106 0l-265 -650q-44 -9 -86 0l-265 650q53 11 106 0z" />
    <glyph glyph-name="W" unicode="W" horiz-adv-x="1014" 
d="M978 650l-224 -650q-43 -9 -86 0l-161 482l-162 -482q-43 -9 -86 0l-224 650q53 11 105 0l162 -498l162 498q43 9 85 0l162 -498l162 498q52 11 105 0z" />
    <glyph glyph-name="X" unicode="X" horiz-adv-x="642" 
d="M390 334l217 -334q-22 -4 -59 -4t-59 4l-171 263l-166 -263q-21 -4 -58 -4t-59 4l217 334l-207 316q22 4 59 4t58 -4l162 -245l155 245q22 4 59 4t58 -4z" />
    <glyph glyph-name="Y" unicode="Y" horiz-adv-x="661" 
d="M382 238v-238q-52 -11 -103 0v238l-244 412q55 11 110 0l186 -316l185 316q21 4 54.5 4t55.5 -4z" />
    <glyph glyph-name="Z" unicode="Z" horiz-adv-x="555" 
d="M191 86h318q9 -43 0 -86h-468v10l322 554h-307q-9 43 0 86h457v-10z" />
    <glyph glyph-name="bracketleft" unicode="[" horiz-adv-x="276" 
d="M131 -31h101q10 -40 0 -81h-194v761l194 1q10 -40 0 -81h-101v-600z" />
    <glyph glyph-name="backslash" unicode="\" horiz-adv-x="335" 
d="M209 0l-171 650q44 9 88 0l171 -650q-44 -9 -88 0z" />
    <glyph glyph-name="bracketright" unicode="]" horiz-adv-x="276" 
d="M238 -112h-195q-9 41 0 81h101v600h-101q-8 41 0 81l195 -1v-761z" />
    <glyph glyph-name="asciicircum" unicode="^" horiz-adv-x="417" 
d="M208 650l165 -166q5 -13 5.5 -53.5t-5.5 -48.5l-165 167l-165 -167q-6 8 -5.5 48.5t5.5 53.5z" />
    <glyph glyph-name="underscore" unicode="_" horiz-adv-x="479" 
d="M43 -44h393q11 -36 0 -72h-393q-9 36 0 72z" />
    <glyph glyph-name="grave" unicode="`" horiz-adv-x="252" 
d="M100 899l113 -152q-5 -11 -20.5 -23.5t-28.5 -14.5l-126 142q4 12 26 29t36 19z" />
    <glyph glyph-name="a" unicode="a" horiz-adv-x="481" 
d="M234 415q184 0 184 -183v-232q-41 -9 -81 0l-6 46q-24 -26 -62 -43.5t-80 -17.5q-62 0 -103 35t-41 94t41 94t107 35q79 0 132 -46v43q0 99 -109 99q-64 0 -131 -41q-6 8 -5.5 37t5.5 40q57 40 149 40zM216 184q-37 0 -57.5 -18t-20.5 -46q0 -27 20.5 -45.5t56.5 -18.5
q32 0 63 13.5t47 28.5v45q-15 14 -46.5 27.5t-62.5 13.5z" />
    <glyph glyph-name="b" unicode="b" horiz-adv-x="538" 
d="M296 415q87 0 140 -61.5t53 -153.5t-53 -153.5t-140 -61.5t-143 68l-6 -53q-41 -8 -82 0v650q47 10 93 0v-296q54 61 138 61zM273 66q55 0 89 37t34 97t-34 97t-89 37q-66 0 -114 -53v-162q48 -53 114 -53z" />
    <glyph glyph-name="c" unicode="c" horiz-adv-x="481" 
d="M282 64q63 0 131 43q6 -7 5.5 -37t-5.5 -41q-58 -44 -140 -44q-100 0 -162.5 60.5t-62.5 154.5t62.5 154.5t162.5 60.5q82 0 140 -44q5 -11 5.5 -41t-5.5 -37q-68 43 -131 43q-61 0 -101 -37.5t-40 -98.5t40 -98.5t101 -37.5z" />
    <glyph glyph-name="d" unicode="d" horiz-adv-x="538" 
d="M379 354v296q47 10 93 0v-650q-40 -9 -81 0l-7 53q-54 -68 -143 -68q-87 0 -140 61.5t-53 153.5t53 153.5t140 61.5q84 0 138 -61zM379 119v162q-48 53 -113 53q-56 0 -90 -37t-34 -97t34 -97t90 -37q65 0 113 53z" />
    <glyph glyph-name="e" unicode="e" horiz-adv-x="502" 
d="M263 415q71 0 119.5 -36.5t64.5 -88t5 -102.5h-309q3 -58 41.5 -91t97.5 -33q67 0 135 43q6 -7 5.5 -37t-5.5 -41q-56 -44 -145 -44q-101 0 -162.5 59.5t-61.5 156.5q0 93 60 153.5t155 60.5zM264 344q-47 0 -78 -28.5t-38 -76.5h219q0 47 -28.5 76t-74.5 29z" />
    <glyph glyph-name="f" unicode="f" horiz-adv-x="378" 
d="M260 586q-66 0 -66 -74v-112h124q10 -40 0 -79h-124v-321q-47 -10 -93 0v321h-62q-10 39 0 79h62v130q0 65 39 100t97 35q57 0 102 -25q5 -11 5.5 -42.5t-5.5 -39.5q-46 28 -79 28z" />
    <glyph glyph-name="g" unicode="g" horiz-adv-x="537" 
d="M241 415q89 0 143 -68l7 53q40 9 81 0v-387q0 -87 -54 -139t-149 -52q-100 0 -154 42q-5 11 -5.5 40t5.5 37q66 -42 135 -42q59 0 94 28t35 81v44q-54 -61 -138 -61q-87 0 -140 61t-53 151t53 151t140 61zM266 334q-55 0 -89.5 -36.5t-34.5 -94.5t34.5 -94.5t89.5 -36.5
q68 0 113 53v156q-48 53 -113 53z" />
    <glyph glyph-name="h" unicode="h" horiz-adv-x="512" 
d="M295 415q79 0 116.5 -45.5t37.5 -113.5v-256q-47 -10 -94 0v236q0 98 -90 98q-56 0 -105 -52v-282q-46 -10 -93 0v650q47 10 93 0v-298q67 63 135 63z" />
    <glyph glyph-name="i" unicode="i" horiz-adv-x="255" 
d="M129 619q25 0 43 -16.5t18 -41.5t-18 -41.5t-43 -16.5q-26 0 -44 16.5t-18 41.5t18 41.5t44 16.5zM174 400v-400q-46 -10 -93 0v400q47 10 93 0z" />
    <glyph glyph-name="j" unicode="j" horiz-adv-x="291" 
d="M166 616q25 0 42.5 -16.5t17.5 -40.5t-17.5 -40t-42.5 -16t-42.5 16t-17.5 40t17.5 40.5t42.5 16.5zM212 400v-457q0 -59 -29 -90t-80 -31q-49 0 -93 21q-5 11 -5.5 41.5t5.5 38.5q42 -22 70 -22q39 0 39 55v444q47 10 93 0z" />
    <glyph glyph-name="k" unicode="k" horiz-adv-x="482" 
d="M253 208l194 -208q-54 -11 -109 0l-178 191v-191q-46 -10 -93 0v650q47 10 93 0v-427l172 177q54 11 109 0z" />
    <glyph glyph-name="l" unicode="l" horiz-adv-x="224" 
d="M160 650v-650q-46 -10 -93 0v650q47 10 93 0z" />
    <glyph glyph-name="m" unicode="m" horiz-adv-x="793" 
d="M581 415q76 0 112.5 -45.5t36.5 -113.5v-256q-47 -10 -93 0v236q0 46 -21.5 72t-64.5 26q-56 0 -107 -54v-280q-46 -10 -93 0v236q0 46 -21.5 72t-64.5 26q-56 0 -107 -54v-280q-46 -10 -93 0v400q41 8 82 0l6 -57q66 72 142 72q101 0 135 -82q71 82 151 82z" />
    <glyph glyph-name="n" unicode="n" horiz-adv-x="513" 
d="M296 415q79 0 116.5 -45.5t37.5 -113.5v-256q-47 -10 -94 0v236q0 46 -22.5 72t-67.5 26q-57 0 -108 -54v-280q-46 -10 -93 0v400q41 8 82 0l6 -57q66 72 143 72z" />
    <glyph glyph-name="o" unicode="o" horiz-adv-x="533" 
d="M266 415q95 0 157 -62t62 -153t-62 -153t-157 -62q-94 0 -156 62t-62 153t62 153t156 62zM267 334q-54 0 -89.5 -37.5t-35.5 -96.5t35.5 -96.5t89.5 -37.5t89.5 37.5t35.5 96.5t-35.5 96.5t-89.5 37.5z" />
    <glyph glyph-name="p" unicode="p" horiz-adv-x="540" 
d="M298 415q87 0 140 -61.5t53 -153.5t-53 -153.5t-140 -61.5q-84 0 -138 61v-209q-46 -10 -93 0v563q41 8 82 0l6 -53q56 68 143 68zM275 66q55 0 89 37t34 97t-34 97t-89 37q-66 0 -114 -53v-162q48 -53 114 -53z" />
    <glyph glyph-name="q" unicode="q" horiz-adv-x="538" 
d="M384 347l7 53q40 9 81 0v-563q-46 -10 -93 0v209q-54 -61 -138 -61q-87 0 -140 61.5t-53 153.5t53 153.5t140 61.5q89 0 143 -68zM379 119v162q-48 53 -113 53q-56 0 -90 -37t-34 -97t34 -97t90 -37q65 0 113 53z" />
    <glyph glyph-name="r" unicode="r" horiz-adv-x="404" 
d="M364 397q6 -8 5.5 -46.5t-5.5 -49.5q-43 28 -87 28q-35 0 -67.5 -25.5t-51.5 -57.5v-246q-46 -10 -93 0v400q41 8 82 0l9 -77q56 92 135 92q46 0 73 -18z" />
    <glyph glyph-name="s" unicode="s" horiz-adv-x="405" 
d="M229 238q67 -22 100.5 -50t33.5 -78q0 -60 -47.5 -92.5t-115.5 -32.5q-39 0 -80.5 11t-63.5 27q-5 11 -5.5 37.5t5.5 34.5q76 -48 139 -48q31 0 53 13t22 38q0 28 -37 44q-13 5 -58 20q-66 22 -100 49t-34 78q0 59 44.5 92.5t113.5 33.5q39 0 79 -11t62 -27
q5 -11 5.5 -37.5t-5.5 -34.5q-74 48 -133 48q-30 0 -51.5 -14t-21.5 -38q0 -15 12 -26t25.5 -17t45.5 -16q8 -3 12 -4z" />
    <glyph glyph-name="t" unicode="t" horiz-adv-x="375" 
d="M321 104q6 -8 5.5 -38t-5.5 -41q-40 -40 -108 -40q-52 0 -82 31t-30 90v215h-62q-10 39 0 79h62v130q46 10 93 0v-130h122q10 -40 0 -79h-122v-202q0 -55 42 -55q37 0 85 40z" />
    <glyph glyph-name="u" unicode="u" 
d="M354 120v280q47 10 94 0v-400q-41 -8 -82 0l-7 57q-64 -72 -143 -72q-78 0 -115.5 45.5t-37.5 113.5v256q47 10 93 0v-236q0 -46 22.5 -72t67.5 -26q57 0 108 54z" />
    <glyph glyph-name="v" unicode="v" 
d="M255 122l122 278q49 10 99 0l-182 -400q-39 -10 -78 0l-182 400q50 10 98 0z" />
    <glyph glyph-name="w" unicode="w" horiz-adv-x="731" 
d="M185 0l-151 400q50 10 99 0l92 -275l101 275q39 11 78 0l102 -275l91 275q50 10 99 0l-151 -400q-39 -10 -77 0l-103 281l-102 -281q-39 -10 -78 0z" />
    <glyph glyph-name="x" unicode="x" horiz-adv-x="496" 
d="M311 208l151 -208q-53 -11 -106 0l-110 147l-108 -147q-52 -11 -104 0l151 208l-143 192q54 11 106 0l103 -136l99 136q52 11 104 0z" />
    <glyph glyph-name="y" unicode="y" 
d="M256 134l121 266q49 10 99 0l-265 -563q-48 -10 -96 0l93 196l-174 367q50 10 98 0z" />
    <glyph glyph-name="z" unicode="z" horiz-adv-x="428" 
d="M178 81h206q9 -40 0 -81h-345v9l211 310h-196q-8 41 0 81h335v-9z" />
    <glyph glyph-name="braceleft" unicode="{" horiz-adv-x="319" 
d="M124 269q34 -17 51 -36t21 -50q7 -59 12.5 -89.5t23 -86.5t48.5 -119q-44 -9 -90 0q-75 134 -90 308q-2 22 -13.5 35.5t-48.5 29.5v16q37 16 48.5 29.5t13.5 35.5q15 174 90 308q46 9 90 0q-31 -63 -48.5 -119t-23 -86.5t-12.5 -89.5q-4 -31 -21 -50t-51 -36z" />
    <glyph glyph-name="bar" unicode="|" horiz-adv-x="138" 
d="M100 650v-710q-31 -8 -62 0v710q31 8 62 0z" />
    <glyph glyph-name="braceright" unicode="}" horiz-adv-x="319" 
d="M219 342q1 -22 12.5 -35.5t48.5 -29.5v-16q-37 -16 -48.5 -29.5t-12.5 -35.5q-15 -174 -91 -308q-44 -9 -90 0q31 63 49 120t23 84.5t13 90.5q4 31 20.5 50t50.5 36q-34 17 -50.5 36t-20.5 50q-8 63 -13 90.5t-23 84.5t-49 120q46 9 90 0q76 -134 91 -308z" />
    <glyph glyph-name="asciitilde" unicode="~" horiz-adv-x="468" 
d="M157 304q34 0 80 -24.5t75 -24.5q13 0 25.5 2.5t26.5 8.5t21.5 9.5t22.5 11.5t17 9q11 -36 0 -72q-2 -1 -22 -12t-29 -15t-27.5 -9t-35.5 -5q-34 0 -80 24.5t-75 24.5q-13 0 -25.5 -2.5t-26.5 -8.5t-21.5 -9.5t-22.5 -11.5t-17 -9q-9 37 0 72q2 1 22 12t29 15t27.5 9
t35.5 5z" />
    <glyph glyph-name="exclamdown" unicode="&#xa1;" horiz-adv-x="199" 
d="M100 494q25 0 43 -16.5t18 -41.5t-18 -41.5t-43 -16.5q-26 0 -44 16.5t-18 41.5t18 41.5t44 16.5zM150 -58v-113q-50 -11 -102 0v113l21 314q30 8 60 0z" />
    <glyph glyph-name="cent" unicode="&#xa2;" horiz-adv-x="478" 
d="M282 64q63 0 131 43q6 -7 5.5 -37t-5.5 -41q-51 -39 -121 -43v-94q-18 -10 -37 0v94q-93 6 -150 65t-57 149t57 149t150 65v94q19 10 37 0v-94q70 -4 121 -43q5 -11 5.5 -41t-5.5 -37q-68 43 -131 43q-61 0 -101 -37.5t-40 -98.5t40 -98.5t101 -37.5z" />
    <glyph glyph-name="sterling" unicode="&#xa3;" horiz-adv-x="581" 
d="M195 86h302q10 -43 0 -86h-424v10q41 59 49 138t-5 148h-77q-10 19 0 37h71q-11 99 -11 136q0 82 58 139t162 57q111 0 177 -57q5 -12 5.5 -51.5t-5.5 -47.5q-86 70 -170 70q-56 0 -89.5 -32t-33.5 -83q0 -49 13 -131h193q10 -18 0 -37h-186q15 -146 -29 -210z" />
    <glyph glyph-name="currency" unicode="&#xa4;" horiz-adv-x="385" 
d="M346 435l-48 -48q27 -36 27 -81t-27 -80l48 -47q-5 -20 -26 -27l-48 48q-35 -26 -80 -26t-80 27l-48 -49q-20 6 -26 26l48 49q-26 35 -26.5 79.5t26.5 79.5l-48 49q6 19 26 26l48 -49q35 28 80 28t80 -27l49 48q20 -7 25 -26zM139 253q23 -23 54.5 -23.5t54.5 21.5
t22.5 54t-23.5 56q-23 22 -55 22.5t-54 -21.5q-23 -23 -22.5 -54.5t23.5 -54.5z" />
    <glyph glyph-name="yen" unicode="&#xa5;" horiz-adv-x="661" 
d="M382 154h139q10 -19 0 -37h-139v-117q-52 -11 -103 0v117h-139q-10 18 0 37h139v71h-139q-10 18 0 36h126l-231 389q55 11 110 0l186 -316l185 316q21 4 54.5 4t55.5 -4l-232 -389h127q10 -18 0 -36h-139v-71z" />
    <glyph glyph-name="brokenbar" unicode="&#xa6;" horiz-adv-x="138" 
d="M100 650v-311q-31 -8 -62 0v311q31 8 62 0zM100 251v-311q-31 -8 -62 0v311q31 8 62 0z" />
    <glyph glyph-name="section" unicode="&#xa7;" horiz-adv-x="399" 
d="M196 549q39 0 79 -11t62 -27q5 -11 5.5 -37.5t-5.5 -34.5q-74 48 -133 48q-30 0 -51.5 -14t-21.5 -38q0 -15 12 -26t25.5 -17t45.5 -16q8 -3 12 -4q69 -23 101.5 -51.5t32.5 -76.5q0 -64 -58 -96q58 -35 58 -95t-45 -93.5t-115 -33.5q-39 0 -79 11t-62 27
q-5 11 -5.5 37.5t5.5 34.5q74 -48 134 -48q31 0 53 14t22 39q0 22 -18 33.5t-62 26.5q-10 3 -15 5q-69 23 -102 51t-33 75q0 64 62 97q-62 35 -62 94t44.5 92.5t113.5 33.5zM173 296l-25 9q-43 -8 -43 -40q0 -21 18 -37t34.5 -22.5t55.5 -18.5q10 -3 15 -5l29 -11
q38 11 38 41q0 21 -17 37t-36 23.5t-53 18.5q-11 3 -16 5z" />
    <glyph glyph-name="dieresis" unicode="&#xa8;" horiz-adv-x="440" 
d="M100 858q25 0 43 -16.5t18 -41.5t-18 -41.5t-43 -16.5q-26 0 -44 16.5t-18 41.5t18 41.5t44 16.5zM341 858q25 0 43 -16.5t18 -41.5t-18 -41.5t-43 -16.5q-26 0 -44 16.5t-18 41.5t18 41.5t44 16.5z" />
    <glyph glyph-name="copyright" unicode="&#xa9;" horiz-adv-x="621" 
d="M310 700q115 0 193.5 -79.5t78.5 -190.5t-78.5 -190.5t-193.5 -79.5t-193.5 79.5t-78.5 190.5t78.5 190.5t193.5 79.5zM311 656q-97 0 -162 -66t-65 -160t65 -160t162 -66t162 66t65 160t-65 160t-162 66zM318 570q55 0 92 -29q3 -7 3.5 -26.5t-3.5 -24.5q-44 29 -86 29
q-40 0 -66 -24.5t-26 -65.5q0 -40 26 -64.5t66 -24.5q43 0 86 28q4 -4 3.5 -24t-3.5 -27q-38 -28 -92 -28q-65 0 -106 39.5t-41 100.5q0 62 40.5 101.5t106.5 39.5z" />
    <glyph glyph-name="guillemotleft" unicode="&#xab;" horiz-adv-x="443" 
d="M133 217l102 -156q-37 -8 -73 0l-124 156l124 156q37 8 73 0zM302 217l102 -156q-36 -8 -73 0l-124 156l124 156q37 8 73 0z" />
    <glyph glyph-name="logicalnot" unicode="&#xac;" horiz-adv-x="425" 
d="M387 305v-172q-38 -10 -76 0v100h-268q-9 36 0 72h344z" />
    <glyph glyph-name="registered" unicode="&#xae;" horiz-adv-x="621" 
d="M310 700q115 0 193.5 -79.5t78.5 -190.5t-78.5 -190.5t-193.5 -79.5t-193.5 79.5t-78.5 190.5t78.5 190.5t193.5 79.5zM311 656q-97 0 -162 -66t-65 -160t65 -160t162 -66t162 66t65 160t-65 160t-162 66zM197 563h142q44 0 69.5 -22t25.5 -65q0 -59 -59 -75l78 -103
q-34 -9 -68 0l-72 95h-55v-95q-30 -8 -61 0v265zM258 518v-80h67q48 0 48 40t-48 40h-67z" />
    <glyph glyph-name="macron" unicode="&#xaf;" horiz-adv-x="345" 
d="M43 814h259q11 -36 0 -72l-259 1q-9 35 0 71z" />
    <glyph glyph-name="degree" unicode="&#xb0;" horiz-adv-x="327" 
d="M163 726q52 0 89 -36t37 -87q0 -52 -36.5 -88t-89.5 -37q-52 0 -88.5 36.5t-36.5 88.5q0 51 36.5 87t88.5 36zM164 666q-27 0 -45.5 -18.5t-18.5 -44.5q0 -27 18.5 -45t45.5 -18t45.5 18t18.5 45q0 26 -18.5 44.5t-45.5 18.5z" />
    <glyph glyph-name="plusminus" unicode="&#xb1;" horiz-adv-x="430" 
d="M181 297h-138q-9 36 0 72h138v85q34 9 69 0v-85h137q11 -36 0 -72h-137v-85q-35 -9 -69 0v85zM43 169h344q11 -36 0 -72l-344 1q-9 35 0 71z" />
    <glyph glyph-name="acute" unicode="&#xb4;" horiz-adv-x="252" 
d="M38 747l114 152q14 -2 35.5 -18.5t25.5 -29.5l-126 -142q-13 2 -28.5 14.5t-20.5 23.5z" />
    <glyph glyph-name="paragraph" unicode="&#xb6;" horiz-adv-x="602" 
d="M245 650h314q8 -31 0 -61h-66v-752q-30 -8 -61 0v752h-125v-752q-31 -8 -62 0v421q-53 0 -97.5 17.5t-77 62.5t-32.5 112q0 99 62 149.5t145 50.5z" />
    <glyph glyph-name="periodcentered" unicode="&#xb7;" horiz-adv-x="199" 
d="M100 192q-26 0 -44 16.5t-18 41.5t18 41.5t44 16.5q25 0 43 -16.5t18 -41.5t-18 -41.5t-43 -16.5z" />
    <glyph glyph-name="cedilla" unicode="&#xb8;" horiz-adv-x="240" 
d="M118 0v-57q31 3 58 -17.5t27 -58.5q0 -37 -26 -59.5t-66 -22.5q-38 0 -68 20q-5 9 -5 26t5 24q33 -23 62 -23q21 0 34.5 11t13.5 30q0 27 -25.5 36.5t-57.5 -3.5v94h48z" />
    <glyph glyph-name="guillemotright" unicode="&#xbb;" horiz-adv-x="443" 
d="M235 217l-123 -156q-37 -8 -74 0l103 156l-103 156q37 8 74 0zM404 217l-123 -156q-37 -8 -74 0l103 156l-103 156q37 8 74 0z" />
    <glyph glyph-name="onequarter" unicode="&#xbc;" horiz-adv-x="642" 
d="M188 650v-310q-35 -9 -71 0v240l-74 -53q-5 6 -5 28.5t5 29.5l91 65q27 9 54 0zM498 650l-308 -650q-31 -9 -62 0l308 650q31 9 62 0zM556 114h43q8 -27 0 -55h-43v-59q-36 -9 -71 0v59h-136q-8 28 0 55l153 196q27 9 54 0v-196zM400 114h85v111z" />
    <glyph glyph-name="onehalf" unicode="&#xbd;" horiz-adv-x="669" 
d="M177 650v-310q-35 -9 -71 0v240l-74 -53q-4 6 -4 28.5t4 29.5l91 65q27 9 54 0zM488 650l-308 -650q-31 -9 -62 0l308 650q31 9 62 0zM500 325q57 0 88.5 -30t31.5 -71q0 -38 -25.5 -73t-92.5 -92h124q9 -29 0 -59h-236v7q99 97 129 138.5t30 72.5q0 19 -15.5 33.5
t-44.5 14.5q-40 0 -83 -35q-2 4 -2 32t2 34q35 28 94 28z" />
    <glyph glyph-name="threequarters" unicode="&#xbe;" horiz-adv-x="686" 
d="M262 421q0 -44 -33.5 -70t-86.5 -26q-63 0 -101 29q-2 6 -2.5 32t2.5 29q48 -35 93 -35q27 0 44.5 13t17.5 35q0 21 -15 34t-44 13h-38q-3 25 0 51h37q23 0 37 11.5t14 29.5t-15 30.5t-40 12.5q-40 0 -88 -35q-3 3 -2.5 29t2.5 32q39 29 96 29q52 0 82.5 -26t30.5 -63
q0 -49 -46 -74q55 -21 55 -81zM172 0l308 650q31 9 62 0l-308 -650q-31 -9 -62 0zM600 114h43q8 -27 0 -55h-43v-59q-36 -9 -71 0v59h-136q-8 28 0 55l153 196q27 9 54 0v-196zM529 225l-85 -111h85v111z" />
    <glyph glyph-name="questiondown" unicode="&#xbf;" horiz-adv-x="488" 
d="M276 496q26 0 44 -16.5t18 -41.5t-18 -41.5t-44 -16.5t-43.5 16.5t-17.5 41.5t17.5 41.5t43.5 16.5zM225 258q50 11 102 0q0 -51 -17 -77t-65 -62q-45 -31 -61.5 -44t-29.5 -33.5t-13 -45.5q0 -41 32 -67.5t87 -26.5q85 0 184 70q6 -8 5.5 -47t-5.5 -52q-79 -57 -194 -57
q-100 0 -156 50t-56 121q0 54 28 88t95 83q27 19 37.5 28.5t18.5 27t8 44.5z" />
    <glyph glyph-name="Agrave" unicode="&#xc0;" horiz-adv-x="696" 
d="M323 899l113 -152q-5 -11 -20.5 -23.5t-28.5 -14.5l-126 142q4 12 26 29t36 19zM391 650l270 -650q-53 -11 -106 0l-66 163h-283l-65 -163q-53 -11 -106 0l270 650q42 9 86 0zM239 249h218l-109 270z" />
    <glyph glyph-name="Aacute" unicode="&#xc1;" horiz-adv-x="696" 
d="M261 747l114 152q14 -2 35.5 -18.5t25.5 -29.5l-126 -142q-13 2 -28.5 14.5t-20.5 23.5zM391 650l270 -650q-53 -11 -106 0l-66 163h-283l-65 -163q-53 -11 -106 0l270 650q42 9 86 0zM239 249h218l-109 270z" />
    <glyph glyph-name="Acircumflex" unicode="&#xc2;" horiz-adv-x="696" 
d="M368 889l132 -133q-4 -13 -22 -30t-30 -20l-100 101l-99 -101q-13 3 -30.5 20t-22.5 30l132 133q8 6 20.5 6t19.5 -6zM391 650l270 -650q-53 -11 -106 0l-66 163h-283l-65 -163q-53 -11 -106 0l270 650q42 9 86 0zM239 249h218l-109 270z" />
    <glyph glyph-name="Atilde" unicode="&#xc3;" horiz-adv-x="696" 
d="M284 842q27 0 75 -22q27 -12 52 -12q28 0 86 30q11 -37 0 -72q-3 -1 -13 -6.5t-14 -7.5t-13 -6t-15 -5.5t-14.5 -3t-16.5 -1.5q-27 0 -75 22q-27 12 -52 12q-28 0 -86 -30q-9 36 0 72q3 1 13 6.5t14 7.5t13 6t15 5.5t14.5 3t16.5 1.5zM391 650l270 -650q-53 -11 -106 0
l-66 163h-283l-65 -163q-53 -11 -106 0l270 650q42 9 86 0zM239 249h218l-109 270z" />
    <glyph glyph-name="Adieresis" unicode="&#xc4;" horiz-adv-x="696" 
d="M229 858q25 0 43 -16.5t18 -41.5t-18 -41.5t-43 -16.5q-26 0 -44 16.5t-18 41.5t18 41.5t44 16.5zM469 858q25 0 43 -16.5t18 -41.5t-18 -41.5t-43 -16.5q-26 0 -44 16.5t-18 41.5t18 41.5t44 16.5zM391 650l270 -650q-53 -11 -106 0l-66 163h-283l-65 -163
q-53 -11 -106 0l270 650q42 9 86 0zM239 249h218l-109 270z" />
    <glyph glyph-name="Aring" unicode="&#xc5;" horiz-adv-x="696" 
d="M348 900q37 0 63.5 -26.5t26.5 -62.5q0 -38 -26 -64.5t-64 -26.5t-64.5 26.5t-26.5 64.5q0 36 26.5 62.5t64.5 26.5zM348 847q-16 0 -26.5 -10.5t-10.5 -25.5t10.5 -26.5t26.5 -11.5t26.5 11.5t10.5 26.5t-10.5 25.5t-26.5 10.5zM391 650l270 -650q-53 -11 -106 0
l-66 163h-283l-65 -163q-53 -11 -106 0l270 650q42 9 86 0zM239 249h218l-109 270z" />
    <glyph glyph-name="AE" unicode="&#xc6;" horiz-adv-x="832" 
d="M446 86h340q9 -43 0 -86h-442v163h-138l-65 -163q-53 -11 -106 0l270 650h481q9 -43 0 -86h-340v-190h308q10 -43 0 -86h-308v-202zM344 509l-105 -260h105v260z" />
    <glyph glyph-name="Ccedilla" unicode="&#xc7;" horiz-adv-x="706" 
d="M417 71q107 0 205 66q6 -8 5.5 -46t-5.5 -49q-79 -52 -188 -56v-43q31 3 58 -17.5t27 -58.5q0 -37 -26 -59.5t-66 -22.5q-38 0 -68 20q-5 9 -5 26t5 24q33 -23 62 -23q21 0 34.5 11t13.5 30q0 27 -25.5 36.5t-57.5 -3.5v80q-147 9 -238 105.5t-91 233.5q0 144 98.5 242
t256.5 98q124 0 210 -57q5 -11 5.5 -49t-5.5 -46q-98 66 -205 66q-110 0 -183 -71.5t-73 -182.5t73 -182.5t183 -71.5z" />
    <glyph glyph-name="Egrave" unicode="&#xc8;" horiz-adv-x="571" 
d="M268 899l113 -152q-5 -11 -20.5 -23.5t-28.5 -14.5l-126 142q4 12 26 29t36 19zM184 86h340q10 -43 0 -86h-442v650h442q10 -43 0 -86h-340v-190h309q9 -43 0 -86h-309v-202z" />
    <glyph glyph-name="Eacute" unicode="&#xc9;" horiz-adv-x="571" 
d="M206 747l114 152q14 -2 35.5 -18.5t25.5 -29.5l-126 -142q-13 2 -28.5 14.5t-20.5 23.5zM184 86h340q10 -43 0 -86h-442v650h442q10 -43 0 -86h-340v-190h309q9 -43 0 -86h-309v-202z" />
    <glyph glyph-name="Ecircumflex" unicode="&#xca;" horiz-adv-x="571" 
d="M313 889l132 -133q-4 -13 -22 -30t-30 -20l-100 101l-99 -101q-13 3 -30.5 20t-22.5 30l132 133q8 6 20.5 6t19.5 -6zM184 86h340q10 -43 0 -86h-442v650h442q10 -43 0 -86h-340v-190h309q9 -43 0 -86h-309v-202z" />
    <glyph glyph-name="Edieresis" unicode="&#xcb;" horiz-adv-x="571" 
d="M182 858q25 0 43 -16.5t18 -41.5t-18 -41.5t-43 -16.5q-26 0 -44 16.5t-18 41.5t18 41.5t44 16.5zM422 858q25 0 43 -16.5t18 -41.5t-18 -41.5t-43 -16.5q-26 0 -44 16.5t-18 41.5t18 41.5t44 16.5zM184 86h340q10 -43 0 -86h-442v650h442q10 -43 0 -86h-340v-190h309
q9 -43 0 -86h-309v-202z" />
    <glyph glyph-name="Igrave" unicode="&#xcc;" horiz-adv-x="267" 
d="M108 899l113 -152q-5 -11 -20.5 -23.5t-28.5 -14.5l-126 142q4 12 26 29t36 19zM184 650v-650q-50 -11 -102 0v650q52 11 102 0z" />
    <glyph glyph-name="Iacute" unicode="&#xcd;" horiz-adv-x="267" 
d="M46 747l114 152q14 -2 35.5 -18.5t25.5 -29.5l-126 -142q-13 2 -28.5 14.5t-20.5 23.5zM184 650v-650q-50 -11 -102 0v650q52 11 102 0z" />
    <glyph glyph-name="Icircumflex" unicode="&#xce;" horiz-adv-x="267" 
d="M154 889l132 -133q-5 -13 -22.5 -30t-30.5 -20l-99 101l-100 -101q-12 3 -30 20t-22 30l132 133q8 6 20 6t20 -6zM184 650v-650q-50 -11 -102 0v650q52 11 102 0z" />
    <glyph glyph-name="Idieresis" unicode="&#xcf;" horiz-adv-x="267" 
d="M14 858q25 0 43 -16.5t18 -41.5t-18 -41.5t-43 -16.5q-26 0 -44 16.5t-18 41.5t18 41.5t44 16.5zM254 858q25 0 43 -16.5t18 -41.5t-18 -41.5t-43 -16.5q-26 0 -44 16.5t-18 41.5t18 41.5t44 16.5zM184 650v-650q-50 -11 -102 0v650q52 11 102 0z" />
    <glyph glyph-name="Eth" unicode="&#xd0;" horiz-adv-x="710" 
d="M82 650h226q159 0 252 -92.5t93 -232.5t-93 -232.5t-252 -92.5h-226v291h-46q-9 36 0 71h46v288zM185 86h124q112 0 176 65t64 174t-64 174t-176 65h-124v-202h126q11 -34 0 -72h-126v-204z" />
    <glyph glyph-name="Ntilde" unicode="&#xd1;" horiz-adv-x="717" 
d="M295 842q27 0 75 -22q27 -12 52 -12q28 0 86 30q11 -37 0 -72q-3 -1 -13 -6.5t-14 -7.5t-13 -6t-15 -5.5t-14.5 -3t-16.5 -1.5q-27 0 -75 22q-27 12 -52 12q-28 0 -86 -30q-9 36 0 72q3 1 13 6.5t14 7.5t13 6t15 5.5t14.5 3t16.5 1.5zM639 650v-650q-41 -9 -81 0
l-377 479v-479q-50 -11 -102 0v650q41 8 82 0l376 -479v479q52 11 102 0z" />
    <glyph glyph-name="Ograve" unicode="&#xd2;" horiz-adv-x="799" 
d="M374 899l113 -152q-5 -11 -20.5 -23.5t-28.5 -14.5l-126 142q4 12 26 29t36 19zM399 665q150 0 246 -98.5t96 -241.5t-96 -241.5t-246 -98.5t-246 98.5t-96 241.5t96 241.5t246 98.5zM399 579q-102 0 -170 -71.5t-68 -182.5t68 -182.5t170 -71.5t170 71.5t68 182.5
t-68 182.5t-170 71.5z" />
    <glyph glyph-name="Oacute" unicode="&#xd3;" horiz-adv-x="799" 
d="M312 747l114 152q14 -2 35.5 -18.5t25.5 -29.5l-126 -142q-13 2 -28.5 14.5t-20.5 23.5zM399 665q150 0 246 -98.5t96 -241.5t-96 -241.5t-246 -98.5t-246 98.5t-96 241.5t96 241.5t246 98.5zM399 579q-102 0 -170 -71.5t-68 -182.5t68 -182.5t170 -71.5t170 71.5
t68 182.5t-68 182.5t-170 71.5z" />
    <glyph glyph-name="Ocircumflex" unicode="&#xd4;" horiz-adv-x="799" 
d="M419 889l132 -133q-4 -13 -22 -30t-30 -20l-100 101l-99 -101q-13 3 -30.5 20t-22.5 30l132 133q8 6 20 6t20 -6zM399 665q150 0 246 -98.5t96 -241.5t-96 -241.5t-246 -98.5t-246 98.5t-96 241.5t96 241.5t246 98.5zM399 579q-102 0 -170 -71.5t-68 -182.5t68 -182.5
t170 -71.5t170 71.5t68 182.5t-68 182.5t-170 71.5z" />
    <glyph glyph-name="Otilde" unicode="&#xd5;" horiz-adv-x="799" 
d="M335 842q27 0 75 -22q27 -12 52 -12q28 0 86 30q11 -37 0 -72q-3 -1 -13 -6.5t-14 -7.5t-13 -6t-15 -5.5t-14.5 -3t-16.5 -1.5q-27 0 -75 22q-27 12 -52 12q-28 0 -86 -30q-9 36 0 72q3 1 13 6.5t14 7.5t13 6t15 5.5t14.5 3t16.5 1.5zM399 665q150 0 246 -98.5t96 -241.5
t-96 -241.5t-246 -98.5t-246 98.5t-96 241.5t96 241.5t246 98.5zM399 579q-102 0 -170 -71.5t-68 -182.5t68 -182.5t170 -71.5t170 71.5t68 182.5t-68 182.5t-170 71.5z" />
    <glyph glyph-name="Odieresis" unicode="&#xd6;" horiz-adv-x="799" 
d="M280 858q25 0 43 -16.5t18 -41.5t-18 -41.5t-43 -16.5q-26 0 -44 16.5t-18 41.5t18 41.5t44 16.5zM520 858q25 0 43 -16.5t18 -41.5t-18 -41.5t-43 -16.5q-26 0 -44 16.5t-18 41.5t18 41.5t44 16.5zM399 665q150 0 246 -98.5t96 -241.5t-96 -241.5t-246 -98.5t-246 98.5
t-96 241.5t96 241.5t246 98.5zM399 579q-102 0 -170 -71.5t-68 -182.5t68 -182.5t170 -71.5t170 71.5t68 182.5t-68 182.5t-170 71.5z" />
    <glyph glyph-name="multiply" unicode="&#xd7;" horiz-adv-x="371" 
d="M236 269l96 -97q-18 -32 -50 -51l-97 97l-96 -96q-32 18 -51 50l96 97l-96 96q19 32 51 51l96 -96l97 96q31 -19 51 -51z" />
    <glyph glyph-name="Oslash" unicode="&#xd8;" horiz-adv-x="799" 
d="M741 650l-87 -93q87 -96 87 -232q0 -143 -96 -241.5t-246 -98.5q-123 0 -214 70l-52 -55q-38 -11 -76 0l87 93q-87 96 -87 232q0 143 96 241.5t246 98.5q123 0 214 -70l52 55q38 11 76 0zM161 325q0 -94 50 -161l338 362q-62 53 -150 53q-102 0 -170 -71.5t-68 -182.5z
M637 325q0 93 -49 161l-339 -362q64 -53 150 -53q102 0 170 71.5t68 182.5z" />
    <glyph glyph-name="Ugrave" unicode="&#xd9;" horiz-adv-x="694" 
d="M322 899l113 -152q-5 -11 -20.5 -23.5t-28.5 -14.5l-126 142q4 12 26 29t36 19zM511 243v407q53 11 104 0v-392q0 -134 -70 -203.5t-196 -69.5q-127 0 -197 69.5t-70 203.5v392q52 11 104 0v-407q0 -79 43.5 -125.5t119.5 -46.5t119 46.5t43 125.5z" />
    <glyph glyph-name="Uacute" unicode="&#xda;" horiz-adv-x="694" 
d="M260 747l114 152q14 -2 35.5 -18.5t25.5 -29.5l-126 -142q-13 2 -28.5 14.5t-20.5 23.5zM511 243v407q53 11 104 0v-392q0 -134 -70 -203.5t-196 -69.5q-127 0 -197 69.5t-70 203.5v392q52 11 104 0v-407q0 -79 43.5 -125.5t119.5 -46.5t119 46.5t43 125.5z" />
    <glyph glyph-name="Ucircumflex" unicode="&#xdb;" horiz-adv-x="694" 
d="M367 889l132 -133q-4 -13 -22 -30t-30 -20l-100 101l-99 -101q-13 3 -30.5 20t-22.5 30l132 133q8 6 20 6t20 -6zM511 243v407q53 11 104 0v-392q0 -134 -70 -203.5t-196 -69.5q-127 0 -197 69.5t-70 203.5v392q52 11 104 0v-407q0 -79 43.5 -125.5t119.5 -46.5t119 46.5
t43 125.5z" />
    <glyph glyph-name="Udieresis" unicode="&#xdc;" horiz-adv-x="694" 
d="M228 858q25 0 43 -16.5t18 -41.5t-18 -41.5t-43 -16.5q-26 0 -44 16.5t-18 41.5t18 41.5t44 16.5zM469 858q25 0 43 -16.5t18 -41.5t-18 -41.5t-43 -16.5q-26 0 -44 16.5t-18 41.5t18 41.5t44 16.5zM511 243v407q53 11 104 0v-392q0 -134 -70 -203.5t-196 -69.5
q-127 0 -197 69.5t-70 203.5v392q52 11 104 0v-407q0 -79 43.5 -125.5t119.5 -46.5t119 46.5t43 125.5z" />
    <glyph glyph-name="Yacute" unicode="&#xdd;" horiz-adv-x="661" 
d="M243 747l114 152q14 -2 35.5 -18.5t25.5 -29.5l-126 -142q-13 2 -28.5 14.5t-20.5 23.5zM382 238v-238q-52 -11 -103 0v238l-244 412q55 11 110 0l186 -316l185 316q21 4 54.5 4t55.5 -4z" />
    <glyph glyph-name="Thorn" unicode="&#xde;" horiz-adv-x="620" 
d="M184 562h137q112 0 176.5 -60t64.5 -152q0 -93 -64.5 -153t-176.5 -60h-137v-137q-50 -11 -102 0v650q52 11 102 0v-88zM185 223h137q65 0 101 35t36 92t-36 92t-101 35h-137v-254z" />
    <glyph glyph-name="germandbls" unicode="&#xdf;" horiz-adv-x="580" 
d="M421 336q58 -21 88 -64.5t30 -101.5q0 -82 -56.5 -134t-150.5 -52q-81 0 -138 37q-6 13 -6 45.5t6 40.5q46 -42 121 -42q57 0 93.5 31t36.5 83q0 51 -35 81t-97 30h-61q-9 40 0 81h59q49 0 80.5 29t31.5 77t-32 77.5t-88 29.5q-68 0 -107.5 -46t-39.5 -127v-411
q-46 -10 -93 0v414q0 117 67.5 184t174.5 67q97 0 154.5 -52.5t57.5 -129.5q0 -50 -25.5 -89t-70.5 -58z" />
    <glyph glyph-name="agrave" unicode="&#xe0;" horiz-adv-x="481" 
d="M214 649l113 -152q-5 -11 -20.5 -23.5t-28.5 -14.5l-126 142q4 12 26 29t36 19zM234 415q184 0 184 -183v-232q-41 -9 -81 0l-6 46q-24 -26 -62 -43.5t-80 -17.5q-62 0 -103 35t-41 94t41 94t107 35q79 0 132 -46v43q0 99 -109 99q-64 0 -131 -41q-6 8 -5.5 37t5.5 40
q57 40 149 40zM216 184q-37 0 -57.5 -18t-20.5 -46q0 -27 20.5 -45.5t56.5 -18.5q32 0 63 13.5t47 28.5v45q-15 14 -46.5 27.5t-62.5 13.5z" />
    <glyph glyph-name="aacute" unicode="&#xe1;" horiz-adv-x="481" 
d="M152 497l114 152q14 -2 35.5 -18.5t25.5 -29.5l-126 -142q-13 2 -28.5 14.5t-20.5 23.5zM234 415q184 0 184 -183v-232q-41 -9 -81 0l-6 46q-24 -26 -62 -43.5t-80 -17.5q-62 0 -103 35t-41 94t41 94t107 35q79 0 132 -46v43q0 99 -109 99q-64 0 -131 -41q-6 8 -5.5 37
t5.5 40q57 40 149 40zM216 184q-37 0 -57.5 -18t-20.5 -46q0 -27 20.5 -45.5t56.5 -18.5q32 0 63 13.5t47 28.5v45q-15 14 -46.5 27.5t-62.5 13.5z" />
    <glyph glyph-name="acircumflex" unicode="&#xe2;" horiz-adv-x="481" 
d="M260 639l132 -133q-4 -13 -22 -30t-30 -20l-100 101l-99 -101q-13 3 -30.5 20t-22.5 30l132 133q8 6 20 6t20 -6zM234 415q184 0 184 -183v-232q-41 -9 -81 0l-6 46q-24 -26 -62 -43.5t-80 -17.5q-62 0 -103 35t-41 94t41 94t107 35q79 0 132 -46v43q0 99 -109 99
q-64 0 -131 -41q-6 8 -5.5 37t5.5 40q57 40 149 40zM216 184q-37 0 -57.5 -18t-20.5 -46q0 -27 20.5 -45.5t56.5 -18.5q32 0 63 13.5t47 28.5v45q-15 14 -46.5 27.5t-62.5 13.5z" />
    <glyph glyph-name="atilde" unicode="&#xe3;" horiz-adv-x="481" 
d="M178 592q27 0 75 -22q27 -12 52 -12q28 0 86 30q11 -37 0 -72q-3 -1 -13 -6.5t-14 -7.5t-13 -6t-15 -5.5t-14.5 -3t-16.5 -1.5q-27 0 -75 22q-27 12 -52 12q-28 0 -86 -30q-9 36 0 72q3 1 13 6.5t14 7.5t13 6t15 5.5t14.5 3t16.5 1.5zM234 415q184 0 184 -183v-232
q-41 -9 -81 0l-6 46q-24 -26 -62 -43.5t-80 -17.5q-62 0 -103 35t-41 94t41 94t107 35q79 0 132 -46v43q0 99 -109 99q-64 0 -131 -41q-6 8 -5.5 37t5.5 40q57 40 149 40zM216 184q-37 0 -57.5 -18t-20.5 -46q0 -27 20.5 -45.5t56.5 -18.5q32 0 63 13.5t47 28.5v45
q-15 14 -46.5 27.5t-62.5 13.5z" />
    <glyph glyph-name="adieresis" unicode="&#xe4;" horiz-adv-x="481" 
d="M120 608q25 0 43 -16.5t18 -41.5t-18 -41.5t-43 -16.5q-26 0 -44 16.5t-18 41.5t18 41.5t44 16.5zM361 608q25 0 43 -16.5t18 -41.5t-18 -41.5t-43 -16.5q-26 0 -44 16.5t-18 41.5t18 41.5t44 16.5zM234 415q184 0 184 -183v-232q-41 -9 -81 0l-6 46q-24 -26 -62 -43.5
t-80 -17.5q-62 0 -103 35t-41 94t41 94t107 35q79 0 132 -46v43q0 99 -109 99q-64 0 -131 -41q-6 8 -5.5 37t5.5 40q57 40 149 40zM216 184q-37 0 -57.5 -18t-20.5 -46q0 -27 20.5 -45.5t56.5 -18.5q32 0 63 13.5t47 28.5v45q-15 14 -46.5 27.5t-62.5 13.5z" />
    <glyph glyph-name="aring" unicode="&#xe5;" horiz-adv-x="481" 
d="M240 650q37 0 63.5 -26.5t26.5 -62.5q0 -38 -26 -64.5t-64 -26.5t-64.5 26.5t-26.5 64.5q0 36 26.5 62.5t64.5 26.5zM240 597q-16 0 -26.5 -10.5t-10.5 -25.5t10.5 -26.5t26.5 -11.5t26.5 11.5t10.5 26.5t-10.5 25.5t-26.5 10.5zM234 415q184 0 184 -183v-232
q-41 -9 -81 0l-6 46q-24 -26 -62 -43.5t-80 -17.5q-62 0 -103 35t-41 94t41 94t107 35q79 0 132 -46v43q0 99 -109 99q-64 0 -131 -41q-6 8 -5.5 37t5.5 40q57 40 149 40zM216 184q-37 0 -57.5 -18t-20.5 -46q0 -27 20.5 -45.5t56.5 -18.5q32 0 63 13.5t47 28.5v45
q-15 14 -46.5 27.5t-62.5 13.5z" />
    <glyph glyph-name="ae" unicode="&#xe6;" horiz-adv-x="778" 
d="M538 415q105 0 156.5 -72.5t32.5 -154.5h-309q4 -58 42 -91t97 -33q68 0 136 43q6 -7 5.5 -37t-5.5 -41q-58 -44 -145 -44q-100 0 -152 64l-2 -49q-28 -10 -57 0l-6 46q-24 -26 -62 -43.5t-80 -17.5q-62 0 -103 35t-41 94t41 94t107 35q79 0 131 -45l1 42q0 99 -109 99
q-64 0 -131 -41q-6 8 -5.5 37t5.5 40q57 40 149 40q111 0 149 -75q52 75 155 75zM424 239h219q0 47 -28.5 76t-74.5 29q-47 0 -78 -28.5t-38 -76.5zM325 98v45q-15 14 -46.5 27.5t-62.5 13.5q-37 0 -57.5 -18t-20.5 -46q0 -27 20.5 -45.5t56.5 -18.5q32 0 63 13.5t47 28.5z
" />
    <glyph glyph-name="ccedilla" unicode="&#xe7;" horiz-adv-x="481" 
d="M282 64q63 0 131 43q6 -7 5.5 -37t-5.5 -41q-53 -41 -130 -44v-42q31 3 58 -17.5t27 -58.5q0 -37 -26 -59.5t-66 -22.5q-38 0 -68 20q-4 9 -4 26t4 24q33 -23 62 -23q21 0 34.5 11t13.5 30q0 27 -25.5 36.5t-57.5 -3.5v82q-85 11 -136 69t-51 143q0 94 62.5 154.5
t162.5 60.5q82 0 140 -44q5 -11 5.5 -41t-5.5 -37q-68 43 -131 43q-61 0 -101 -37.5t-40 -98.5t40 -98.5t101 -37.5z" />
    <glyph glyph-name="egrave" unicode="&#xe8;" horiz-adv-x="503" 
d="M233 649l113 -152q-5 -11 -20.5 -23.5t-28.5 -14.5l-126 142q4 12 26 29t36 19zM263 415q71 0 119.5 -36.5t64.5 -88t5 -102.5h-309q3 -58 41.5 -91t97.5 -33q67 0 135 43q6 -7 5.5 -37t-5.5 -41q-56 -44 -145 -44q-101 0 -162.5 59.5t-61.5 156.5q0 93 60 153.5
t155 60.5zM264 344q-47 0 -78 -28.5t-38 -76.5h219q0 47 -28.5 76t-74.5 29z" />
    <glyph glyph-name="eacute" unicode="&#xe9;" horiz-adv-x="503" 
d="M171 497l114 152q14 -2 35.5 -18.5t25.5 -29.5l-126 -142q-13 2 -28.5 14.5t-20.5 23.5zM263 415q71 0 119.5 -36.5t64.5 -88t5 -102.5h-309q3 -58 41.5 -91t97.5 -33q67 0 135 43q6 -7 5.5 -37t-5.5 -41q-56 -44 -145 -44q-101 0 -162.5 59.5t-61.5 156.5q0 93 60 153.5
t155 60.5zM264 344q-47 0 -78 -28.5t-38 -76.5h219q0 47 -28.5 76t-74.5 29z" />
    <glyph glyph-name="ecircumflex" unicode="&#xea;" horiz-adv-x="503" 
d="M278 639l132 -133q-4 -13 -22 -30t-30 -20l-100 101l-99 -101q-13 3 -30.5 20t-22.5 30l132 133q8 6 20.5 6t19.5 -6zM263 415q71 0 119.5 -36.5t64.5 -88t5 -102.5h-309q3 -58 41.5 -91t97.5 -33q67 0 135 43q6 -7 5.5 -37t-5.5 -41q-56 -44 -145 -44
q-101 0 -162.5 59.5t-61.5 156.5q0 93 60 153.5t155 60.5zM264 344q-47 0 -78 -28.5t-38 -76.5h219q0 47 -28.5 76t-74.5 29z" />
    <glyph glyph-name="edieresis" unicode="&#xeb;" horiz-adv-x="503" 
d="M139 608q25 0 43 -16.5t18 -41.5t-18 -41.5t-43 -16.5q-26 0 -44 16.5t-18 41.5t18 41.5t44 16.5zM380 608q25 0 43 -16.5t18 -41.5t-18 -41.5t-43 -16.5q-26 0 -44 16.5t-18 41.5t18 41.5t44 16.5zM263 415q71 0 119.5 -36.5t64.5 -88t5 -102.5h-309q3 -58 41.5 -91
t97.5 -33q67 0 135 43q6 -7 5.5 -37t-5.5 -41q-56 -44 -145 -44q-101 0 -162.5 59.5t-61.5 156.5q0 93 60 153.5t155 60.5zM264 344q-47 0 -78 -28.5t-38 -76.5h219q0 47 -28.5 76t-74.5 29z" />
    <glyph glyph-name="igrave" unicode="&#xec;" horiz-adv-x="226" 
d="M89 649l113 -152q-5 -11 -20.5 -23.5t-28.5 -14.5l-126 142q4 12 26 29t36 19zM160 400v-400q-46 -10 -93 0v400q47 10 93 0z" />
    <glyph glyph-name="iacute" unicode="&#xed;" horiz-adv-x="226" 
d="M27 497l114 152q14 -2 35.5 -18.5t25.5 -29.5l-126 -142q-13 2 -28.5 14.5t-20.5 23.5zM160 400v-400q-46 -10 -93 0v400q47 10 93 0z" />
    <glyph glyph-name="icircumflex" unicode="&#xee;" horiz-adv-x="226" 
d="M134 639l133 -133q-5 -13 -22.5 -30t-30.5 -20l-100 101l-99 -101q-13 3 -30.5 20t-22.5 30l132 133q8 6 20.5 6t19.5 -6zM160 400v-400q-46 -10 -93 0v400q47 10 93 0z" />
    <glyph glyph-name="idieresis" unicode="&#xef;" horiz-adv-x="226" 
d="M-6 608q26 0 43.5 -16.5t17.5 -41.5t-17.5 -41.5t-43.5 -16.5t-43.5 16.5t-17.5 41.5t17.5 41.5t43.5 16.5zM235 608q25 0 43 -16.5t18 -41.5t-18 -41.5t-43 -16.5q-26 0 -44 16.5t-18 41.5t18 41.5t44 16.5zM160 400v-400q-46 -10 -93 0v400q47 10 93 0z" />
    <glyph glyph-name="eth" unicode="&#xf0;" horiz-adv-x="518" 
d="M409 573l-58 -35q118 -113 118 -288v-30q0 -109 -58 -172t-152 -63q-92 0 -153 61t-61 155q0 88 52 148t139 60q78 0 135 -57q-24 84 -96 141l-113 -67q-10 28 0 57l67 40q-54 30 -121 42q-5 11 -5.5 44t5.5 41q116 -14 203 -78l98 58q10 -28 0 -57zM377 202v30
q0 26 -3 44q-18 19 -50 35.5t-66 16.5q-52 0 -85.5 -35.5t-33.5 -94.5t35 -95.5t85 -36.5q52 0 85 34.5t33 101.5z" />
    <glyph glyph-name="ntilde" unicode="&#xf1;" horiz-adv-x="513" 
d="M192 592q27 0 75 -22q27 -12 52 -12q28 0 86 30q11 -37 0 -72q-3 -1 -13 -6.5t-14 -7.5t-13 -6t-15 -5.5t-14.5 -3t-16.5 -1.5q-27 0 -75 22q-27 12 -52 12q-28 0 -86 -30q-9 36 0 72q3 1 13 6.5t14 7.5t13 6t15 5.5t14.5 3t16.5 1.5zM296 415q79 0 116.5 -45.5
t37.5 -113.5v-256q-47 -10 -94 0v236q0 46 -22.5 72t-67.5 26q-57 0 -108 -54v-280q-46 -10 -93 0v400q41 8 82 0l6 -57q66 72 143 72z" />
    <glyph glyph-name="ograve" unicode="&#xf2;" horiz-adv-x="533" 
d="M241 649l113 -152q-5 -11 -20.5 -23.5t-28.5 -14.5l-126 142q4 12 26 29t36 19zM266 415q95 0 157 -62t62 -153t-62 -153t-157 -62q-94 0 -156 62t-62 153t62 153t156 62zM267 334q-54 0 -89.5 -37.5t-35.5 -96.5t35.5 -96.5t89.5 -37.5t89.5 37.5t35.5 96.5t-35.5 96.5
t-89.5 37.5z" />
    <glyph glyph-name="oacute" unicode="&#xf3;" horiz-adv-x="533" 
d="M179 497l114 152q14 -2 35.5 -18.5t25.5 -29.5l-126 -142q-13 2 -28.5 14.5t-20.5 23.5zM266 415q95 0 157 -62t62 -153t-62 -153t-157 -62q-94 0 -156 62t-62 153t62 153t156 62zM267 334q-54 0 -89.5 -37.5t-35.5 -96.5t35.5 -96.5t89.5 -37.5t89.5 37.5t35.5 96.5
t-35.5 96.5t-89.5 37.5z" />
    <glyph glyph-name="ocircumflex" unicode="&#xf4;" horiz-adv-x="533" 
d="M286 639l132 -133q-4 -13 -22 -30t-30 -20l-100 101l-99 -101q-13 3 -30.5 20t-22.5 30l132 133q8 6 20 6t20 -6zM266 415q95 0 157 -62t62 -153t-62 -153t-157 -62q-94 0 -156 62t-62 153t62 153t156 62zM267 334q-54 0 -89.5 -37.5t-35.5 -96.5t35.5 -96.5t89.5 -37.5
t89.5 37.5t35.5 96.5t-35.5 96.5t-89.5 37.5z" />
    <glyph glyph-name="otilde" unicode="&#xf5;" horiz-adv-x="533" 
d="M202 592q27 0 75 -22q27 -12 52 -12q28 0 86 30q11 -37 0 -72q-3 -1 -13 -6.5t-14 -7.5t-13 -6t-15 -5.5t-14.5 -3t-16.5 -1.5q-27 0 -75 22q-27 12 -52 12q-28 0 -86 -30q-9 36 0 72q3 1 13 6.5t14 7.5t13 6t15 5.5t14.5 3t16.5 1.5zM266 415q95 0 157 -62t62 -153
t-62 -153t-157 -62q-94 0 -156 62t-62 153t62 153t156 62zM267 334q-54 0 -89.5 -37.5t-35.5 -96.5t35.5 -96.5t89.5 -37.5t89.5 37.5t35.5 96.5t-35.5 96.5t-89.5 37.5z" />
    <glyph glyph-name="odieresis" unicode="&#xf6;" horiz-adv-x="533" 
d="M147 608q25 0 43 -16.5t18 -41.5t-18 -41.5t-43 -16.5q-26 0 -44 16.5t-18 41.5t18 41.5t44 16.5zM388 608q25 0 43 -16.5t18 -41.5t-18 -41.5t-43 -16.5q-26 0 -44 16.5t-18 41.5t18 41.5t44 16.5zM266 415q95 0 157 -62t62 -153t-62 -153t-157 -62q-94 0 -156 62
t-62 153t62 153t156 62zM267 334q-54 0 -89.5 -37.5t-35.5 -96.5t35.5 -96.5t89.5 -37.5t89.5 37.5t35.5 96.5t-35.5 96.5t-89.5 37.5z" />
    <glyph glyph-name="divide" unicode="&#xf7;" horiz-adv-x="430" 
d="M216 465q25 0 43 -17t18 -42q0 -24 -18 -41t-43 -17q-26 0 -44 16.5t-18 41.5t18 42t44 17zM43 305h344q11 -36 0 -72h-344q-9 36 0 72zM216 189q25 0 43 -16.5t18 -41.5t-18 -41.5t-43 -16.5q-26 0 -44 16.5t-18 41.5t18 41.5t44 16.5z" />
    <glyph glyph-name="oslash" unicode="&#xf8;" horiz-adv-x="533" 
d="M485 400l-52 -57q52 -60 52 -143q0 -91 -62 -153t-157 -62q-70 0 -125 36l-19 -21q-37 -11 -74 0l52 57q-52 60 -52 143q0 91 62 153t156 62q71 0 126 -36l19 21q37 11 74 0zM142 200q0 -42 19 -75l173 190q-30 19 -67 19q-54 0 -89.5 -37.5t-35.5 -96.5zM392 200
q0 41 -20 76l-173 -191q30 -19 68 -19q54 0 89.5 37.5t35.5 96.5z" />
    <glyph glyph-name="ugrave" unicode="&#xf9;" 
d="M230 649l113 -152q-5 -11 -20.5 -23.5t-28.5 -14.5l-126 142q4 12 26 29t36 19zM354 120v280q47 10 94 0v-400q-41 -8 -82 0l-7 57q-64 -72 -143 -72q-78 0 -115.5 45.5t-37.5 113.5v256q47 10 93 0v-236q0 -46 22.5 -72t67.5 -26q57 0 108 54z" />
    <glyph glyph-name="uacute" unicode="&#xfa;" 
d="M168 497l114 152q14 -2 35.5 -18.5t25.5 -29.5l-126 -142q-13 2 -28.5 14.5t-20.5 23.5zM354 120v280q47 10 94 0v-400q-41 -8 -82 0l-7 57q-64 -72 -143 -72q-78 0 -115.5 45.5t-37.5 113.5v256q47 10 93 0v-236q0 -46 22.5 -72t67.5 -26q57 0 108 54z" />
    <glyph glyph-name="ucircumflex" unicode="&#xfb;" 
d="M275 639l132 -133q-4 -13 -22 -30t-30 -20l-100 101l-99 -101q-13 3 -30.5 20t-22.5 30l132 133q8 6 20.5 6t19.5 -6zM354 120v280q47 10 94 0v-400q-41 -8 -82 0l-7 57q-64 -72 -143 -72q-78 0 -115.5 45.5t-37.5 113.5v256q47 10 93 0v-236q0 -46 22.5 -72t67.5 -26
q57 0 108 54z" />
    <glyph glyph-name="udieresis" unicode="&#xfc;" 
d="M136 608q25 0 43 -16.5t18 -41.5t-18 -41.5t-43 -16.5q-26 0 -44 16.5t-18 41.5t18 41.5t44 16.5zM376 608q25 0 43 -16.5t18 -41.5t-18 -41.5t-43 -16.5q-26 0 -44 16.5t-18 41.5t18 41.5t44 16.5zM354 120v280q47 10 94 0v-400q-41 -8 -82 0l-7 57q-64 -72 -143 -72
q-78 0 -115.5 45.5t-37.5 113.5v256q47 10 93 0v-236q0 -46 22.5 -72t67.5 -26q57 0 108 54z" />
    <glyph glyph-name="yacute" unicode="&#xfd;" 
d="M168 497l114 152q14 -2 35.5 -18.5t25.5 -29.5l-126 -142q-13 2 -28.5 14.5t-20.5 23.5zM256 134l121 266q49 10 99 0l-265 -563q-48 -10 -96 0l93 196l-174 367q50 10 98 0z" />
    <glyph glyph-name="thorn" unicode="&#xfe;" horiz-adv-x="540" 
d="M298 415q87 0 140 -61.5t53 -153.5t-53 -153.5t-140 -61.5q-84 0 -138 61v-209q-46 -10 -93 0v813q47 10 93 0v-296q55 61 138 61zM275 66q55 0 89 37t34 97t-34 97t-89 37q-66 0 -114 -53v-162q48 -53 114 -53z" />
    <glyph glyph-name="ydieresis" unicode="&#xff;" 
d="M136 608q25 0 43 -16.5t18 -41.5t-18 -41.5t-43 -16.5q-26 0 -44 16.5t-18 41.5t18 41.5t44 16.5zM376 608q25 0 43 -16.5t18 -41.5t-18 -41.5t-43 -16.5q-26 0 -44 16.5t-18 41.5t18 41.5t44 16.5zM256 134l121 266q49 10 99 0l-265 -563q-48 -10 -96 0l93 196l-174 367
q50 10 98 0z" />
    <glyph glyph-name="Amacron" unicode="&#x100;" horiz-adv-x="696" 
d="M217 814h259q11 -36 0 -72l-259 1q-9 35 0 71zM391 650l270 -650q-53 -11 -106 0l-66 163h-283l-65 -163q-53 -11 -106 0l270 650q42 9 86 0zM239 249h218l-109 270z" />
    <glyph glyph-name="amacron" unicode="&#x101;" horiz-adv-x="481" 
d="M108 564h259q11 -36 0 -72l-259 1q-9 35 0 71zM234 415q184 0 184 -183v-232q-41 -9 -81 0l-6 46q-24 -26 -62 -43.5t-80 -17.5q-62 0 -103 35t-41 94t41 94t107 35q79 0 132 -46v43q0 99 -109 99q-64 0 -131 -41q-6 8 -5.5 37t5.5 40q57 40 149 40zM216 184
q-37 0 -57.5 -18t-20.5 -46q0 -27 20.5 -45.5t56.5 -18.5q32 0 63 13.5t47 28.5v45q-15 14 -46.5 27.5t-62.5 13.5z" />
    <glyph glyph-name="Abreve" unicode="&#x102;" horiz-adv-x="696" 
d="M493 858q6 -8 5.5 -37.5t-5.5 -40.5q-56 -44 -145 -44q-87 0 -145 44q-5 11 -5.5 40.5t5.5 37.5q68 -43 145 -43t145 43zM391 650l270 -650q-53 -11 -106 0l-66 163h-283l-65 -163q-53 -11 -106 0l270 650q42 9 86 0zM239 249h218l-109 270z" />
    <glyph glyph-name="abreve" unicode="&#x103;" horiz-adv-x="481" 
d="M385 608q6 -8 5.5 -37.5t-5.5 -40.5q-56 -44 -145 -44q-87 0 -145 44q-5 11 -5.5 40.5t5.5 37.5q68 -43 145 -43t145 43zM234 415q184 0 184 -183v-232q-41 -9 -81 0l-6 46q-24 -26 -62 -43.5t-80 -17.5q-62 0 -103 35t-41 94t41 94t107 35q79 0 132 -46v43q0 99 -109 99
q-64 0 -131 -41q-6 8 -5.5 37t5.5 40q57 40 149 40zM216 184q-37 0 -57.5 -18t-20.5 -46q0 -27 20.5 -45.5t56.5 -18.5q32 0 63 13.5t47 28.5v45q-15 14 -46.5 27.5t-62.5 13.5z" />
    <glyph glyph-name="Aogonek" unicode="&#x104;" horiz-adv-x="696" 
d="M687 -151q10 -30 0 -59q-17 -5 -41 -5q-44 0 -74 27t-30 71q0 64 68 113q-28 -1 -55 4l-66 163h-283l-65 -163q-53 -11 -106 0l270 650q42 9 86 0l270 -650q-67 -40 -67 -95q0 -26 17.5 -43.5t47.5 -17.5q16 0 28 5zM457 249l-109 270l-109 -270h218z" />
    <glyph glyph-name="aogonek" unicode="&#x105;" horiz-adv-x="481" 
d="M445 -151q10 -30 0 -59q-17 -5 -41 -5q-44 0 -74 27t-30 71q0 65 69 113q-10 0 -32 4l-6 46q-24 -26 -62 -43.5t-80 -17.5q-62 0 -103 35t-41 94t41 94t107 35q79 0 132 -46v43q0 99 -109 99q-64 0 -131 -41q-6 8 -5.5 37t5.5 40q57 40 149 40q184 0 184 -183v-232h1
q-67 -40 -67 -95q0 -26 17.5 -43.5t47.5 -17.5q16 0 28 5zM325 98v45q-15 14 -46.5 27.5t-62.5 13.5q-37 0 -57.5 -18t-20.5 -46q0 -27 20.5 -45.5t56.5 -18.5q32 0 63 13.5t47 28.5z" />
    <glyph glyph-name="Cacute" unicode="&#x106;" horiz-adv-x="706" 
d="M324 746l114 152q14 -2 35.5 -19t25.5 -29l-126 -142q-13 2 -28.5 14.5t-20.5 23.5zM417 71q107 0 205 66q6 -8 5.5 -46t-5.5 -49q-86 -57 -210 -57q-158 0 -256.5 98t-98.5 242t98.5 242t256.5 98q124 0 210 -57q5 -11 5.5 -49t-5.5 -46q-98 66 -205 66
q-110 0 -183 -71.5t-73 -182.5t73 -182.5t183 -71.5z" />
    <glyph glyph-name="cacute" unicode="&#x107;" horiz-adv-x="481" 
d="M175 497l114 152q14 -2 35.5 -18.5t25.5 -29.5l-126 -142q-13 2 -28.5 14.5t-20.5 23.5zM282 64q63 0 131 43q6 -7 5.5 -37t-5.5 -41q-58 -44 -140 -44q-100 0 -162.5 60.5t-62.5 154.5t62.5 154.5t162.5 60.5q82 0 140 -44q5 -11 5.5 -41t-5.5 -37q-68 43 -131 43
q-61 0 -101 -37.5t-40 -98.5t40 -98.5t101 -37.5z" />
    <glyph glyph-name="Cdotaccent" unicode="&#x10a;" horiz-adv-x="706" 
d="M412 741q-26 0 -44 16.5t-18 41.5t18 41.5t44 16.5q25 0 43 -16.5t18 -41.5t-18 -41.5t-43 -16.5zM417 71q107 0 205 66q6 -8 5.5 -46t-5.5 -49q-86 -57 -210 -57q-158 0 -256.5 98t-98.5 242t98.5 242t256.5 98q124 0 210 -57q5 -11 5.5 -49t-5.5 -46q-98 66 -205 66
q-110 0 -183 -71.5t-73 -182.5t73 -182.5t183 -71.5z" />
    <glyph glyph-name="cdotaccent" unicode="&#x10b;" horiz-adv-x="481" 
d="M263 492q-26 0 -44 16.5t-18 41.5t18 41.5t44 16.5q25 0 43 -16.5t18 -41.5t-18 -41.5t-43 -16.5zM282 64q63 0 131 43q6 -7 5.5 -37t-5.5 -41q-58 -44 -140 -44q-100 0 -162.5 60.5t-62.5 154.5t62.5 154.5t162.5 60.5q82 0 140 -44q5 -11 5.5 -41t-5.5 -37
q-68 43 -131 43q-61 0 -101 -37.5t-40 -98.5t40 -98.5t101 -37.5z" />
    <glyph glyph-name="Ccaron" unicode="&#x10c;" horiz-adv-x="706" 
d="M412 790l100 100q12 -3 30 -20t22 -29l-132 -133q-8 -7 -20 -7t-20 7l-132 133q5 13 22.5 29.5t30.5 19.5zM417 71q107 0 205 66q6 -8 5.5 -46t-5.5 -49q-86 -57 -210 -57q-158 0 -256.5 98t-98.5 242t98.5 242t256.5 98q124 0 210 -57q5 -11 5.5 -49t-5.5 -46
q-98 66 -205 66q-110 0 -183 -71.5t-73 -182.5t73 -182.5t183 -71.5z" />
    <glyph glyph-name="ccaron" unicode="&#x10d;" horiz-adv-x="481" 
d="M262 541l100 101q12 -3 30 -20t22 -30l-132 -133q-8 -6 -20 -6t-20 6l-132 133q5 13 22.5 30t30.5 20zM282 64q63 0 131 43q6 -7 5.5 -37t-5.5 -41q-58 -44 -140 -44q-100 0 -162.5 60.5t-62.5 154.5t62.5 154.5t162.5 60.5q82 0 140 -44q5 -11 5.5 -41t-5.5 -37
q-68 43 -131 43q-61 0 -101 -37.5t-40 -98.5t40 -98.5t101 -37.5z" />
    <glyph glyph-name="Dcaron" unicode="&#x10e;" horiz-adv-x="710" 
d="M309 791l100 101q12 -3 30 -20t22 -30l-132 -133q-7 -6 -19.5 -6t-20.5 6l-132 133q5 13 22.5 30t30.5 20zM82 650h226q159 0 252 -92.5t93 -232.5t-93 -232.5t-252 -92.5h-226v650zM185 86h124q112 0 176 65t64 174t-64 174t-176 65h-124v-478z" />
    <glyph glyph-name="dcaron" unicode="&#x10f;" horiz-adv-x="638" 
d="M572 665q26 0 46 -18.5t21 -55.5q1 -46 -22.5 -100.5t-45.5 -70.5q-26 -7 -53 0q26 25 44 63t23 67q-5 -1 -15 -1q-25 0 -42.5 16.5t-17.5 40.5q0 25 18 42t44 17zM379 354v296q47 10 93 0v-650q-40 -9 -81 0l-7 53q-54 -68 -143 -68q-87 0 -140 61.5t-53 153.5t53 153.5
t140 61.5q84 0 138 -61zM379 119v162q-48 53 -113 53q-56 0 -90 -37t-34 -97t34 -97t90 -37q65 0 113 53z" />
    <glyph glyph-name="Dcroat" unicode="&#x110;" horiz-adv-x="710" 
d="M82 650h226q159 0 252 -92.5t93 -232.5t-93 -232.5t-252 -92.5h-226v291h-46q-9 36 0 71h46v288zM185 86h124q112 0 176 65t64 174t-64 174t-176 65h-124v-202h126q11 -34 0 -72h-126v-204z" />
    <glyph glyph-name="dcroat" unicode="&#x111;" horiz-adv-x="538" 
d="M472 553h49q11 -34 0 -72h-49v-481q-40 -9 -81 0l-7 53q-54 -68 -143 -68q-87 0 -140 61.5t-53 153.5t53 153.5t140 61.5q84 0 138 -61v128h-117q-9 36 0 71h117v97q47 10 93 0v-97zM379 119v162q-48 53 -113 53q-56 0 -90 -37t-34 -97t34 -97t90 -37q65 0 113 53z" />
    <glyph glyph-name="Emacron" unicode="&#x112;" horiz-adv-x="571" 
d="M162 814h259q11 -36 0 -72l-259 1q-9 35 0 71zM184 86h340q10 -43 0 -86h-442v650h442q10 -43 0 -86h-340v-190h309q9 -43 0 -86h-309v-202z" />
    <glyph glyph-name="emacron" unicode="&#x113;" horiz-adv-x="503" 
d="M127 564h259q11 -36 0 -72l-259 1q-9 35 0 71zM263 415q71 0 119.5 -36.5t64.5 -88t5 -102.5h-309q3 -58 41.5 -91t97.5 -33q67 0 135 43q6 -7 5.5 -37t-5.5 -41q-56 -44 -145 -44q-101 0 -162.5 59.5t-61.5 156.5q0 93 60 153.5t155 60.5zM264 344q-47 0 -78 -28.5
t-38 -76.5h219q0 47 -28.5 76t-74.5 29z" />
    <glyph glyph-name="Edotaccent" unicode="&#x116;" horiz-adv-x="571" 
d="M294 742q-26 0 -44 16.5t-18 41.5t18 41.5t44 16.5q25 0 43 -16.5t18 -41.5t-18 -41.5t-43 -16.5zM184 86h340q10 -43 0 -86h-442v650h442q10 -43 0 -86h-340v-190h309q9 -43 0 -86h-309v-202z" />
    <glyph glyph-name="edotaccent" unicode="&#x117;" horiz-adv-x="503" 
d="M259 492q-26 0 -44 16.5t-18 41.5t18 41.5t44 16.5q25 0 43 -16.5t18 -41.5t-18 -41.5t-43 -16.5zM263 415q71 0 119.5 -36.5t64.5 -88t5 -102.5h-309q3 -58 41.5 -91t97.5 -33q67 0 135 43q6 -7 5.5 -37t-5.5 -41q-56 -44 -145 -44q-101 0 -162.5 59.5t-61.5 156.5
q0 93 60 153.5t155 60.5zM264 344q-47 0 -78 -28.5t-38 -76.5h219q0 47 -28.5 76t-74.5 29z" />
    <glyph glyph-name="Eogonek" unicode="&#x118;" horiz-adv-x="571" 
d="M551 -151q10 -30 0 -59q-17 -5 -41 -5q-44 0 -74 27t-30 71q0 68 75 117h-399v650h442q10 -43 0 -86h-340v-190h309q9 -43 0 -86h-309v-202h340q10 -43 0 -86h1q-67 -40 -67 -95q0 -26 17.5 -43.5t47.5 -17.5q16 0 28 5z" />
    <glyph glyph-name="eogonek" unicode="&#x119;" horiz-adv-x="503" 
d="M263 415q71 0 119.5 -36.5t64.5 -88t5 -102.5h-309q3 -58 41.5 -91t97.5 -33q67 0 135 43q6 -7 5.5 -37t-5.5 -41q-20 -17 -56 -29q-66 -41 -66 -95q0 -26 17.5 -43.5t47.5 -17.5q16 0 28 5q10 -30 0 -59q-17 -5 -41 -5q-44 0 -74 27t-30 71q0 59 56 103q-9 -1 -27 -1
q-101 0 -162.5 59.5t-61.5 156.5q0 93 60 153.5t155 60.5zM148 239h219q0 47 -28.5 76t-74.5 29q-47 0 -78 -28.5t-38 -76.5z" />
    <glyph glyph-name="Ecaron" unicode="&#x11a;" horiz-adv-x="571" 
d="M293 791l100 101q12 -3 30 -20t22 -30l-132 -133q-7 -6 -19.5 -6t-20.5 6l-132 133q5 13 22.5 30t30.5 20zM184 86h340q10 -43 0 -86h-442v650h442q10 -43 0 -86h-340v-190h309q9 -43 0 -86h-309v-202z" />
    <glyph glyph-name="ecaron" unicode="&#x11b;" horiz-adv-x="503" 
d="M258 541l100 101q12 -3 30 -20t22 -30l-132 -133q-8 -6 -20 -6t-20 6l-132 133q5 13 22.5 30t30.5 20zM263 415q71 0 119.5 -36.5t64.5 -88t5 -102.5h-309q3 -58 41.5 -91t97.5 -33q67 0 135 43q6 -7 5.5 -37t-5.5 -41q-56 -44 -145 -44q-101 0 -162.5 59.5t-61.5 156.5
q0 93 60 153.5t155 60.5zM264 344q-47 0 -78 -28.5t-38 -76.5h219q0 47 -28.5 76t-74.5 29z" />
    <glyph glyph-name="Gbreve" unicode="&#x11e;" horiz-adv-x="717" 
d="M557 858q6 -8 5.5 -37.5t-5.5 -40.5q-56 -44 -145 -44q-87 0 -145 44q-5 11 -5.5 40.5t5.5 37.5q68 -43 145 -43t145 43zM538 96v217q50 10 100 0v-271q-37 -25 -99 -41t-127 -16q-158 0 -256.5 98t-98.5 242t98.5 242t256.5 98q124 0 210 -57q5 -11 5.5 -49t-5.5 -46
q-98 66 -205 66q-110 0 -183 -71.5t-73 -182.5q0 -112 73 -184t183 -72q67 0 121 27z" />
    <glyph glyph-name="gbreve" unicode="&#x11f;" horiz-adv-x="537" 
d="M414 608q6 -8 5.5 -37.5t-5.5 -40.5q-56 -44 -145 -44q-87 0 -145 44q-5 11 -5.5 40.5t5.5 37.5q68 -43 145 -43t145 43zM241 415q89 0 143 -68l7 53q40 9 81 0v-387q0 -87 -54 -139t-149 -52q-100 0 -154 42q-5 11 -5.5 40t5.5 37q66 -42 135 -42q59 0 94 28t35 81v44
q-54 -61 -138 -61q-87 0 -140 61t-53 151t53 151t140 61zM266 334q-55 0 -89.5 -36.5t-34.5 -94.5t34.5 -94.5t89.5 -36.5q68 0 113 53v156q-48 53 -113 53z" />
    <glyph glyph-name="Gdotaccent" unicode="&#x120;" horiz-adv-x="717" 
d="M413 742q-26 0 -44 16.5t-18 41.5t18 41.5t44 16.5q25 0 43 -16.5t18 -41.5t-18 -41.5t-43 -16.5zM538 96v217q50 10 100 0v-271q-37 -25 -99 -41t-127 -16q-158 0 -256.5 98t-98.5 242t98.5 242t256.5 98q124 0 210 -57q5 -11 5.5 -49t-5.5 -46q-98 66 -205 66
q-110 0 -183 -71.5t-73 -182.5q0 -112 73 -184t183 -72q67 0 121 27z" />
    <glyph glyph-name="gdotaccent" unicode="&#x121;" horiz-adv-x="537" 
d="M269 492q-26 0 -44 16.5t-18 41.5t18 41.5t44 16.5q25 0 43 -16.5t18 -41.5t-18 -41.5t-43 -16.5zM241 415q89 0 143 -68l7 53q40 9 81 0v-387q0 -87 -54 -139t-149 -52q-100 0 -154 42q-5 11 -5.5 40t5.5 37q66 -42 135 -42q59 0 94 28t35 81v44q-54 -61 -138 -61
q-87 0 -140 61t-53 151t53 151t140 61zM266 334q-55 0 -89.5 -36.5t-34.5 -94.5t34.5 -94.5t89.5 -36.5q68 0 113 53v156q-48 53 -113 53z" />
    <glyph glyph-name="Gcommaaccent" unicode="&#x122;" horiz-adv-x="717" 
d="M538 96v217q50 10 100 0v-271q-37 -25 -99 -41t-127 -16q-158 0 -256.5 98t-98.5 242t98.5 242t256.5 98q124 0 210 -57q5 -11 5.5 -49t-5.5 -46q-98 66 -205 66q-110 0 -183 -71.5t-73 -182.5q0 -112 73 -184t183 -72q67 0 121 27zM413 -59q26 0 46 -18.5t21 -55.5
q1 -46 -22.5 -100.5t-45.5 -70.5q-26 -7 -53 0q26 25 44 63t23 67q-5 -1 -15 -1q-25 0 -42.5 16.5t-17.5 40.5q0 25 18 42t44 17z" />
    <glyph glyph-name="gcommaaccent" unicode="&#x123;" horiz-adv-x="537" 
d="M327 737q-26 -25 -43 -62t-24 -68q6 1 15 1q25 0 42.5 -16.5t17.5 -40.5q0 -25 -17.5 -42t-43.5 -17t-46 18.5t-21 55.5q-2 46 21.5 100.5t45.5 70.5q26 7 53 0zM241 415q89 0 143 -68l7 53q40 9 81 0v-387q0 -87 -54 -139t-149 -52q-100 0 -154 42q-5 11 -5.5 40t5.5 37
q66 -42 135 -42q59 0 94 28t35 81v44q-54 -61 -138 -61q-87 0 -140 61t-53 151t53 151t140 61zM266 334q-55 0 -89.5 -36.5t-34.5 -94.5t34.5 -94.5t89.5 -36.5q68 0 113 53v156q-48 53 -113 53z" />
    <glyph glyph-name="Hbar" unicode="&#x126;" horiz-adv-x="726" 
d="M643 537h53q9 -36 0 -72h-53v-465q-52 -11 -102 0v288h-357v-288q-50 -11 -102 0v465h-53q-9 36 0 72h53v113q52 11 102 0v-113h357v113q50 11 102 0v-113zM541 465h-357v-91h357v91z" />
    <glyph glyph-name="hbar" unicode="&#x127;" horiz-adv-x="512" 
d="M295 415q79 0 116.5 -45.5t37.5 -113.5v-256q-47 -10 -94 0v236q0 98 -90 98q-56 0 -105 -52v-282q-46 -10 -93 0v482h-49q-9 36 0 71h49v97q47 10 93 0v-97h117q11 -34 0 -72h-117v-129q67 63 135 63z" />
    <glyph glyph-name="Imacron" unicode="&#x12a;" horiz-adv-x="267" 
d="M2 814h259q11 -36 0 -72l-259 1q-9 35 0 71zM184 650v-650q-50 -11 -102 0v650q52 11 102 0z" />
    <glyph glyph-name="imacron" unicode="&#x12b;" horiz-adv-x="226" 
d="M-17 564h259q9 -36 0 -72l-259 1q-9 35 0 71zM160 400v-400q-46 -10 -93 0v400q47 10 93 0z" />
    <glyph glyph-name="Iogonek" unicode="&#x12e;" horiz-adv-x="267" 
d="M211 -151q10 -30 0 -59q-17 -5 -41 -5q-44 0 -74 27t-30 71q0 64 68 113q-25 -1 -52 4v650q52 11 102 0v-650h1q-67 -40 -67 -95q0 -26 17.5 -43.5t47.5 -17.5q16 0 28 5z" />
    <glyph glyph-name="iogonek" unicode="&#x12f;" horiz-adv-x="226" 
d="M115 492q-26 0 -44 16.5t-18 41.5t18 41.5t44 16.5q25 0 43 -16.5t18 -41.5t-18 -41.5t-43 -16.5zM187 -151q10 -30 0 -59q-17 -5 -41 -5q-44 0 -74 27t-30 71q0 64 68 113q-26 0 -43 4v400q47 10 93 0v-400h1q-67 -40 -67 -95q0 -26 17.5 -43.5t47.5 -17.5q16 0 28 5z
" />
    <glyph glyph-name="Idotaccent" unicode="&#x130;" horiz-adv-x="267" 
d="M134 742q-26 0 -44 16.5t-18 41.5t18 41.5t44 16.5q25 0 43 -16.5t18 -41.5t-18 -41.5t-43 -16.5zM184 650v-650q-50 -11 -102 0v650q52 11 102 0z" />
    <glyph glyph-name="dotlessi" unicode="&#x131;" horiz-adv-x="226" 
d="M160 400v-400q-46 -10 -93 0v400q47 10 93 0z" />
    <glyph glyph-name="IJ" unicode="&#x132;" horiz-adv-x="677" 
d="M184 650v-650q-50 -11 -102 0v650q52 11 102 0zM595 650v-468q0 -96 -45.5 -146.5t-125.5 -50.5q-65 0 -116 32q-5 11 -5.5 44t5.5 42q45 -27 89 -27q96 0 96 115v459q51 11 102 0z" />
    <glyph glyph-name="ij" unicode="&#x133;" horiz-adv-x="546" 
d="M129 619q25 0 43 -16.5t18 -41.5t-18 -41.5t-43 -16.5q-26 0 -44 16.5t-18 41.5t18 41.5t44 16.5zM421 616q25 0 42.5 -16.5t17.5 -40.5t-17.5 -40t-42.5 -16t-42.5 16t-17.5 40t17.5 40.5t42.5 16.5zM174 400v-400q-46 -10 -93 0v400q47 10 93 0zM467 400v-457
q0 -59 -29 -90t-80 -31q-49 0 -93 21q-5 11 -5.5 41.5t5.5 38.5q42 -22 70 -22q39 0 39 55v444q46 10 93 0z" />
    <glyph glyph-name="Kcommaaccent" unicode="&#x136;" horiz-adv-x="641" 
d="M293 334l312 -334q-21 -4 -61.5 -4t-61.5 4l-298 318v-318q-50 -11 -102 0v650q52 11 102 0v-299l283 299q22 4 62.5 4t61.5 -4zM322 -59q26 0 46 -18.5t21 -55.5q1 -46 -22.5 -100.5t-45.5 -70.5q-26 -7 -53 0q26 25 44 63t23 67q-5 -1 -15 -1q-25 0 -42.5 16.5
t-17.5 40.5q0 25 18 42t44 17z" />
    <glyph glyph-name="kcommaaccent" unicode="&#x137;" horiz-adv-x="482" 
d="M253 208l194 -208q-54 -11 -109 0l-178 191v-191q-46 -10 -93 0v650q47 10 93 0v-427l172 177q54 11 109 0zM242 -59q26 0 46 -18.5t21 -55.5q1 -46 -22.5 -100.5t-45.5 -70.5q-26 -7 -53 0q26 25 44 63t23 67q-5 -1 -15 -1q-25 0 -42.5 16.5t-17.5 40.5q0 25 18 42
t44 17z" />
    <glyph glyph-name="Lacute" unicode="&#x139;" horiz-adv-x="545" 
d="M193 747l114 152q14 -2 35.5 -18.5t25.5 -29.5l-126 -142q-13 2 -28.5 14.5t-20.5 23.5zM184 86h321q9 -43 0 -86h-423v650q52 11 102 0v-564z" />
    <glyph glyph-name="lacute" unicode="&#x13a;" horiz-adv-x="224" 
d="M27 747l114 152q14 -2 35.5 -18.5t25.5 -29.5l-126 -142q-13 2 -28.5 14.5t-20.5 23.5zM160 650v-650q-46 -10 -93 0v650q47 10 93 0z" />
    <glyph glyph-name="Lcommaaccent" unicode="&#x13b;" horiz-adv-x="545" 
d="M184 86h321q9 -43 0 -86h-423v650q52 11 102 0v-564zM286 -59q26 0 46 -18.5t21 -55.5q1 -46 -22.5 -100.5t-45.5 -70.5q-26 -7 -53 0q26 25 44 63t23 67q-5 -1 -15 -1q-25 0 -42.5 16.5t-17.5 40.5q0 25 18 42t44 17z" />
    <glyph glyph-name="lcommaaccent" unicode="&#x13c;" horiz-adv-x="224" 
d="M160 650v-650q-46 -10 -93 0v650q47 10 93 0zM113 -59q26 0 46 -18.5t21 -55.5q1 -46 -22.5 -100.5t-45.5 -70.5q-26 -7 -53 0q26 25 44 63t23 67q-5 -1 -15 -1q-25 0 -42.5 16.5t-17.5 40.5q0 25 18 42t44 17z" />
    <glyph glyph-name="Lcaron" unicode="&#x13d;" horiz-adv-x="545" 
d="M439 665q26 0 46 -18.5t21 -55.5q1 -46 -22.5 -100.5t-45.5 -70.5q-26 -7 -53 0q26 25 44 63t23 67q-5 -1 -15 -1q-25 0 -42.5 16.5t-17.5 40.5q0 25 18 42t44 17zM184 86h321q9 -43 0 -86h-423v650q52 11 102 0v-564z" />
    <glyph glyph-name="lcaron" unicode="&#x13e;" horiz-adv-x="332" 
d="M260 665q26 0 46 -18.5t21 -55.5q1 -46 -22.5 -100.5t-45.5 -70.5q-26 -7 -53 0q26 25 44 63t23 67q-5 -1 -15 -1q-25 0 -42.5 16.5t-17.5 40.5q0 25 18 42t44 17zM160 650v-650q-46 -10 -93 0v650q47 10 93 0z" />
    <glyph glyph-name="Ldot" unicode="&#x13f;" horiz-adv-x="545" 
d="M184 86h321q9 -43 0 -86h-423v650q52 11 102 0v-564zM445 257q-26 0 -44 16.5t-18 41.5t18 41.5t44 16.5q25 0 43 -17t18 -41q0 -25 -18 -41.5t-43 -16.5z" />
    <glyph glyph-name="ldot" unicode="&#x140;" horiz-adv-x="325" 
d="M160 650v-650q-46 -10 -93 0v650q47 10 93 0zM260 253q-26 0 -44 16.5t-18 41.5t18 41.5t44 16.5q25 0 43 -16.5t18 -41.5t-18 -41.5t-43 -16.5z" />
    <glyph glyph-name="Lslash" unicode="&#x141;" horiz-adv-x="545" 
d="M184 86h321q9 -43 0 -86h-423v308l-53 -18q-10 37 0 72l53 18v270q52 11 102 0v-235l116 39q10 -36 0 -73l-116 -39v-256z" />
    <glyph glyph-name="lslash" unicode="&#x142;" horiz-adv-x="224" 
d="M160 398l48 13q10 -36 0 -73l-48 -13v-325q-46 -10 -93 0v299l-47 -13q-10 36 0 73l47 13v278q47 10 93 0v-252z" />
    <glyph glyph-name="Nacute" unicode="&#x143;" horiz-adv-x="717" 
d="M271 747l114 152q14 -2 35.5 -18.5t25.5 -29.5l-126 -142q-13 2 -28.5 14.5t-20.5 23.5zM639 650v-650q-41 -9 -81 0l-377 479v-479q-50 -11 -102 0v650q41 8 82 0l376 -479v479q52 11 102 0z" />
    <glyph glyph-name="nacute" unicode="&#x144;" horiz-adv-x="513" 
d="M169 497l114 152q14 -2 35.5 -18.5t25.5 -29.5l-126 -142q-13 2 -28.5 14.5t-20.5 23.5zM296 415q79 0 116.5 -45.5t37.5 -113.5v-256q-47 -10 -94 0v236q0 46 -22.5 72t-67.5 26q-57 0 -108 -54v-280q-46 -10 -93 0v400q41 8 82 0l6 -57q66 72 143 72z" />
    <glyph glyph-name="Ncommaaccent" unicode="&#x145;" horiz-adv-x="717" 
d="M639 650v-650q-41 -9 -81 0l-377 479v-479q-50 -11 -102 0v650q41 8 82 0l376 -479v479q52 11 102 0zM359 -59q26 0 46 -18.5t21 -55.5q1 -46 -22.5 -100.5t-45.5 -70.5q-26 -7 -53 0q26 25 44 63t23 67q-5 -1 -15 -1q-25 0 -42.5 16.5t-17.5 40.5q0 25 18 42t44 17z" />
    <glyph glyph-name="ncommaaccent" unicode="&#x146;" horiz-adv-x="513" 
d="M296 415q79 0 116.5 -45.5t37.5 -113.5v-256q-47 -10 -94 0v236q0 46 -22.5 72t-67.5 26q-57 0 -108 -54v-280q-46 -10 -93 0v400q41 8 82 0l6 -57q66 72 143 72zM257 -59q26 0 46 -18.5t21 -55.5q1 -46 -22.5 -100.5t-45.5 -70.5q-26 -7 -53 0q26 25 44 63t23 67
q-5 -1 -15 -1q-25 0 -42.5 16.5t-17.5 40.5q0 25 18 42t44 17z" />
    <glyph glyph-name="Ncaron" unicode="&#x147;" horiz-adv-x="717" 
d="M359 791l100 101q12 -3 30 -20t22 -30l-132 -133q-7 -6 -19.5 -6t-20.5 6l-132 133q5 13 22.5 30t30.5 20zM639 650v-650q-41 -9 -81 0l-377 479v-479q-50 -11 -102 0v650q41 8 82 0l376 -479v479q52 11 102 0z" />
    <glyph glyph-name="ncaron" unicode="&#x148;" horiz-adv-x="513" 
d="M256 541l100 101q12 -3 30 -20t22 -30l-132 -133q-8 -6 -20 -6t-20 6l-132 133q5 13 22.5 30t30.5 20zM296 415q79 0 116.5 -45.5t37.5 -113.5v-256q-47 -10 -94 0v236q0 46 -22.5 72t-67.5 26q-57 0 -108 -54v-280q-46 -10 -93 0v400q41 8 82 0l6 -57q66 72 143 72z" />
    <glyph glyph-name="Eng" unicode="&#x14a;" horiz-adv-x="717" 
d="M537 171v479q52 11 102 0v-707q0 -59 -29 -90t-80 -31q-49 0 -93 21q-5 11 -5.5 41.5t5.5 38.5q42 -22 70 -22q39 0 39 55v59l-365 464v-479q-50 -11 -102 0v650q41 8 82 0z" />
    <glyph glyph-name="eng" unicode="&#x14b;" horiz-adv-x="513" 
d="M296 415q79 0 116.5 -45.5t37.5 -113.5v-313q0 -59 -29.5 -90t-79.5 -31q-51 0 -93 21q-6 11 -6 41.5t6 38.5q42 -22 69 -22q39 0 39 55v280q0 46 -22.5 72t-67.5 26q-57 0 -108 -54v-280q-46 -10 -93 0v400q41 8 82 0l6 -57q66 72 143 72z" />
    <glyph glyph-name="Omacron" unicode="&#x14c;" horiz-adv-x="799" 
d="M268 814h259q11 -36 0 -72l-259 1q-9 35 0 71zM399 665q150 0 246 -98.5t96 -241.5t-96 -241.5t-246 -98.5t-246 98.5t-96 241.5t96 241.5t246 98.5zM399 579q-102 0 -170 -71.5t-68 -182.5t68 -182.5t170 -71.5t170 71.5t68 182.5t-68 182.5t-170 71.5z" />
    <glyph glyph-name="omacron" unicode="&#x14d;" horiz-adv-x="533" 
d="M135 564h259q11 -36 0 -72l-259 1q-9 35 0 71zM266 415q95 0 157 -62t62 -153t-62 -153t-157 -62q-94 0 -156 62t-62 153t62 153t156 62zM267 334q-54 0 -89.5 -37.5t-35.5 -96.5t35.5 -96.5t89.5 -37.5t89.5 37.5t35.5 96.5t-35.5 96.5t-89.5 37.5z" />
    <glyph glyph-name="Ohungarumlaut" unicode="&#x150;" horiz-adv-x="799" 
d="M262 747l114 152q14 -2 35.5 -18.5t25.5 -29.5l-126 -142q-13 2 -28.5 14.5t-20.5 23.5zM405 747l114 152q14 -2 35.5 -18.5t25.5 -29.5l-126 -142q-13 2 -28.5 14.5t-20.5 23.5zM399 665q150 0 246 -98.5t96 -241.5t-96 -241.5t-246 -98.5t-246 98.5t-96 241.5t96 241.5
t246 98.5zM399 579q-102 0 -170 -71.5t-68 -182.5t68 -182.5t170 -71.5t170 71.5t68 182.5t-68 182.5t-170 71.5z" />
    <glyph glyph-name="ohungarumlaut" unicode="&#x151;" horiz-adv-x="533" 
d="M129 497l114 152q14 -2 35.5 -18.5t25.5 -29.5l-126 -142q-13 2 -28.5 14.5t-20.5 23.5zM272 497l114 152q14 -2 35.5 -18.5t25.5 -29.5l-126 -142q-13 2 -28.5 14.5t-20.5 23.5zM266 415q95 0 157 -62t62 -153t-62 -153t-157 -62q-94 0 -156 62t-62 153t62 153t156 62z
M267 334q-54 0 -89.5 -37.5t-35.5 -96.5t35.5 -96.5t89.5 -37.5t89.5 37.5t35.5 96.5t-35.5 96.5t-89.5 37.5z" />
    <glyph glyph-name="OE" unicode="&#x152;" horiz-adv-x="1128" 
d="M741 86h340q10 -43 0 -86h-442v105q-38 -55 -100.5 -87.5t-139.5 -32.5q-150 0 -246 98.5t-96 241.5t96 241.5t246 98.5q77 0 139.5 -32.5t100.5 -87.5v105h442q10 -43 0 -86h-340v-190h309q9 -43 0 -86h-309v-202zM399 71q102 0 170 71.5t68 182.5q0 112 -68 183.5
t-170 71.5t-170 -71.5t-68 -183.5q0 -111 68 -182.5t170 -71.5z" />
    <glyph glyph-name="oe" unicode="&#x153;" horiz-adv-x="846" 
d="M606 415q71 0 119.5 -36.5t64.5 -88t5 -102.5h-309q3 -58 41.5 -91t97.5 -33q67 0 135 43q6 -7 5.5 -37t-5.5 -41q-56 -44 -145 -44q-60 0 -106 24t-72 67q-26 -42 -71 -66.5t-100 -24.5q-94 0 -156 62t-62 153t62 153t156 62q55 0 100.5 -24.5t70.5 -66.5q55 91 169 91z
M607 344q-47 0 -78 -28.5t-38 -76.5h219q0 47 -28.5 76t-74.5 29zM267 334q-54 0 -89.5 -37.5t-35.5 -96.5t35.5 -96.5t89.5 -37.5t89.5 37.5t35.5 96.5t-35.5 96.5t-89.5 37.5z" />
    <glyph glyph-name="Racute" unicode="&#x154;" horiz-adv-x="632" 
d="M206 747l114 152q14 -2 35.5 -18.5t25.5 -29.5l-126 -142q-13 2 -28.5 14.5t-20.5 23.5zM82 650h246q112 0 176.5 -59t64.5 -150q0 -70 -39 -122t-113 -72l176 -247q-22 -4 -56.5 -4t-56.5 4l-166 232h-130v-232q-50 -11 -102 0v650zM185 564v-246h144q65 0 101 34t36 89
t-36 89t-101 34h-144z" />
    <glyph glyph-name="racute" unicode="&#x155;" horiz-adv-x="404" 
d="M115 497l114 152q14 -2 35.5 -18.5t25.5 -29.5l-126 -142q-13 2 -28.5 14.5t-20.5 23.5zM364 397q6 -8 5.5 -46.5t-5.5 -49.5q-43 28 -87 28q-35 0 -67.5 -25.5t-51.5 -57.5v-246q-46 -10 -93 0v400q41 8 82 0l9 -77q56 92 135 92q46 0 73 -18z" />
    <glyph glyph-name="Rcommaaccent" unicode="&#x156;" horiz-adv-x="632" 
d="M82 650h246q112 0 176.5 -59t64.5 -150q0 -70 -39 -122t-113 -72l176 -247q-22 -4 -56.5 -4t-56.5 4l-166 232h-130v-232q-50 -11 -102 0v650zM185 564v-246h144q65 0 101 34t36 89t-36 89t-101 34h-144zM317 -59q26 0 46 -18.5t21 -55.5q1 -46 -22.5 -100.5t-45.5 -70.5
q-26 -7 -53 0q26 25 44 63t23 67q-5 -1 -15 -1q-25 0 -42.5 16.5t-17.5 40.5q0 25 18 42t44 17z" />
    <glyph glyph-name="rcommaaccent" unicode="&#x157;" horiz-adv-x="404" 
d="M364 397q6 -8 5.5 -46.5t-5.5 -49.5q-43 28 -87 28q-35 0 -67.5 -25.5t-51.5 -57.5v-246q-46 -10 -93 0v400q41 8 82 0l9 -77q56 92 135 92q46 0 73 -18zM203 -59q26 0 46 -18.5t21 -55.5q1 -46 -22.5 -100.5t-45.5 -70.5q-26 -7 -53 0q26 25 44 63t23 67q-5 -1 -15 -1
q-25 0 -42.5 16.5t-17.5 40.5q0 25 18 42t44 17z" />
    <glyph glyph-name="Rcaron" unicode="&#x158;" horiz-adv-x="632" 
d="M294 791l100 101q12 -3 30 -20t22 -30l-132 -133q-8 -6 -20 -6t-20 6l-132 133q5 13 22.5 30t30.5 20zM82 650h246q112 0 176.5 -59t64.5 -150q0 -70 -39 -122t-113 -72l176 -247q-22 -4 -56.5 -4t-56.5 4l-166 232h-130v-232q-50 -11 -102 0v650zM185 564v-246h144
q65 0 101 34t36 89t-36 89t-101 34h-144z" />
    <glyph glyph-name="rcaron" unicode="&#x159;" horiz-adv-x="404" 
d="M202 541l100 101q12 -3 30 -20t22 -30l-132 -133q-8 -6 -20 -6t-20 6l-132 133q5 13 22.5 30t30.5 20zM364 397q6 -8 5.5 -46.5t-5.5 -49.5q-43 28 -87 28q-35 0 -67.5 -25.5t-51.5 -57.5v-246q-46 -10 -93 0v400q41 8 82 0l9 -77q56 92 135 92q46 0 73 -18z" />
    <glyph glyph-name="Sacute" unicode="&#x15a;" horiz-adv-x="561" 
d="M193 747l114 152q14 -2 35.5 -18.5t25.5 -29.5l-126 -142q-13 2 -28.5 14.5t-20.5 23.5zM278 665q106 0 185 -57q5 -13 5.5 -52t-5.5 -47q-99 70 -184 70q-55 0 -87 -26.5t-32 -67.5q0 -43 31.5 -63t120.5 -49q43 -14 70.5 -26.5t58.5 -34.5t46.5 -56t15.5 -79
q0 -89 -64 -140.5t-163 -51.5q-114 0 -199 58q-6 11 -6 51.5t6 47.5q103 -71 195 -71q59 0 93 27.5t34 71.5q0 46 -32.5 67.5t-120.5 49.5q-42 14 -70.5 27t-58.5 34.5t-45 53.5t-15 74q0 80 59.5 134.5t161.5 54.5z" />
    <glyph glyph-name="sacute" unicode="&#x15b;" horiz-adv-x="405" 
d="M115 497l114 152q14 -2 35.5 -18.5t25.5 -29.5l-126 -142q-13 2 -28.5 14.5t-20.5 23.5zM229 238q67 -22 100.5 -50t33.5 -78q0 -60 -47.5 -92.5t-115.5 -32.5q-39 0 -80.5 11t-63.5 27q-5 11 -5.5 37.5t5.5 34.5q76 -48 139 -48q31 0 53 13t22 38q0 28 -37 44
q-13 5 -58 20q-66 22 -100 49t-34 78q0 59 44.5 92.5t113.5 33.5q39 0 79 -11t62 -27q5 -11 5.5 -37.5t-5.5 -34.5q-74 48 -133 48q-30 0 -51.5 -14t-21.5 -38q0 -15 12 -26t25.5 -17t45.5 -16q8 -3 12 -4z" />
    <glyph glyph-name="Scedilla" unicode="&#x15e;" horiz-adv-x="561" 
d="M503 177q0 -83 -57.5 -134.5t-147.5 -56.5v-43q31 3 58 -17.5t27 -58.5q0 -37 -26 -59.5t-66 -22.5q-38 0 -68 20q-5 9 -5 26t5 24q33 -23 62 -23q21 0 34.5 11t13.5 30q0 27 -25.5 36.5t-57.5 -3.5v80q-103 8 -173 57q-6 11 -6 51.5t6 47.5q103 -71 195 -71
q59 0 93 27.5t34 71.5q0 46 -32.5 67.5t-120.5 49.5q-42 14 -70.5 27t-58.5 34.5t-45 53.5t-15 74q0 80 59.5 134.5t161.5 54.5q106 0 185 -57q5 -13 5.5 -52t-5.5 -47q-99 70 -184 70q-55 0 -87 -26.5t-32 -67.5q0 -43 31.5 -63t120.5 -49q43 -14 70.5 -26.5t58.5 -34.5
t46.5 -56t15.5 -79z" />
    <glyph glyph-name="scedilla" unicode="&#x15f;" horiz-adv-x="405" 
d="M363 110q0 -57 -42.5 -89t-106.5 -36v-42q31 3 58 -17.5t27 -58.5q0 -37 -26 -59.5t-66 -22.5q-38 0 -68 20q-5 9 -5 26t5 24q33 -23 62 -23q21 0 34.5 11t13.5 30q0 27 -25.5 36.5t-57.5 -3.5v81q-71 8 -110 36q-5 11 -5.5 37.5t5.5 34.5q76 -48 139 -48q31 0 53 13
t22 38q0 28 -37 44q-13 5 -58 20q-66 22 -100 49t-34 78q0 59 44.5 92.5t113.5 33.5q39 0 79 -11t62 -27q5 -11 5.5 -37.5t-5.5 -34.5q-74 48 -133 48q-30 0 -51.5 -14t-21.5 -38q0 -15 12 -26t25.5 -17t45.5 -16q8 -3 12 -4q67 -22 100.5 -50t33.5 -78z" />
    <glyph glyph-name="Scaron" unicode="&#x160;" horiz-adv-x="561" 
d="M280 791l100 101q12 -3 30 -20t22 -30l-132 -133q-8 -6 -20 -6t-20 6l-132 133q5 13 22.5 30t30.5 20zM278 665q106 0 185 -57q5 -13 5.5 -52t-5.5 -47q-99 70 -184 70q-55 0 -87 -26.5t-32 -67.5q0 -43 31.5 -63t120.5 -49q43 -14 70.5 -26.5t58.5 -34.5t46.5 -56
t15.5 -79q0 -89 -64 -140.5t-163 -51.5q-114 0 -199 58q-6 11 -6 51.5t6 47.5q103 -71 195 -71q59 0 93 27.5t34 71.5q0 46 -32.5 67.5t-120.5 49.5q-42 14 -70.5 27t-58.5 34.5t-45 53.5t-15 74q0 80 59.5 134.5t161.5 54.5z" />
    <glyph glyph-name="scaron" unicode="&#x161;" horiz-adv-x="405" 
d="M202 541l100 101q12 -3 30 -20t22 -30l-132 -133q-8 -6 -20 -6t-20 6l-132 133q5 13 22.5 30t30.5 20zM229 238q67 -22 100.5 -50t33.5 -78q0 -60 -47.5 -92.5t-115.5 -32.5q-39 0 -80.5 11t-63.5 27q-5 11 -5.5 37.5t5.5 34.5q76 -48 139 -48q31 0 53 13t22 38
q0 28 -37 44q-13 5 -58 20q-66 22 -100 49t-34 78q0 59 44.5 92.5t113.5 33.5q39 0 79 -11t62 -27q5 -11 5.5 -37.5t-5.5 -34.5q-74 48 -133 48q-30 0 -51.5 -14t-21.5 -38q0 -15 12 -26t25.5 -17t45.5 -16q8 -3 12 -4z" />
    <glyph glyph-name="Tcedilla" unicode="&#x162;" horiz-adv-x="586" 
d="M345 564v-564q-10 -2 -29 -4v-53q31 3 58 -17.5t27 -58.5q0 -37 -26 -59.5t-66 -22.5q-38 0 -68 20q-5 9 -5 26t5 24q33 -23 62 -23q21 0 34.5 11t13.5 30q0 27 -25.5 36.5t-57.5 -3.5v90q-18 2 -26 4v564h-202q-9 43 0 86h507q9 -43 0 -86h-202z" />
    <glyph glyph-name="tcedilla" unicode="&#x163;" horiz-adv-x="374" 
d="M321 25q-33 -33 -91 -39v-43q31 3 58 -17.5t27 -58.5q0 -37 -26 -59.5t-66 -22.5q-38 0 -68 20q-5 9 -5 26t5 24q33 -23 62 -23q21 0 34.5 11t13.5 30q0 27 -25.5 36.5t-57.5 -3.5v82q-81 18 -81 118v215h-62q-10 39 0 79h62v130q46 10 93 0v-130h122q10 -40 0 -79h-122
v-202q0 -55 42 -55q37 0 85 40q6 -8 5.5 -38t-5.5 -41z" />
    <glyph glyph-name="Tcaron" unicode="&#x164;" horiz-adv-x="586" 
d="M293 791l100 101q12 -3 30 -20t22 -30l-132 -133q-7 -6 -19.5 -6t-20.5 6l-132 133q5 13 22.5 30t30.5 20zM40 650h507q9 -43 0 -86h-202v-564q-52 -11 -103 0v564h-202q-9 43 0 86z" />
    <glyph glyph-name="tcaron" unicode="&#x165;" horiz-adv-x="375" 
d="M333 665q26 0 46.5 -19t21.5 -53q1 -42 -21.5 -81.5t-46.5 -56.5q-26 -7 -53 0q24 18 43.5 45.5t23.5 49.5q-5 -1 -15 -1q-25 0 -42.5 16.5t-17.5 40.5q0 25 17.5 42t43.5 17zM321 104q6 -8 5.5 -38t-5.5 -41q-40 -40 -108 -40q-52 0 -82 31t-30 90v215h-62q-10 39 0 79
h62v130q46 10 93 0v-130h122q10 -40 0 -79h-122v-202q0 -55 42 -55q37 0 85 40z" />
    <glyph glyph-name="Tbar" unicode="&#x166;" horiz-adv-x="586" 
d="M345 564v-164h91q11 -36 0 -72h-91v-328q-52 -11 -103 0v329h-92q-9 35 0 71h92v164h-202q-9 43 0 86h507q9 -43 0 -86h-202z" />
    <glyph glyph-name="tbar" unicode="&#x167;" horiz-adv-x="374" 
d="M321 104q6 -8 5.5 -38t-5.5 -41q-40 -40 -108 -40q-52 0 -82 31t-30 90v93h-62q-9 32 0 65h62v57h-62q-10 39 0 79h62v130q46 10 93 0v-130h122q10 -40 0 -79h-122v-57h122q9 -33 0 -66h-122v-79q0 -55 42 -55q37 0 85 40z" />
    <glyph glyph-name="Umacron" unicode="&#x16a;" horiz-adv-x="694" 
d="M216 814h259q11 -36 0 -72l-259 1q-9 35 0 71zM511 243v407q53 11 104 0v-392q0 -134 -70 -203.5t-196 -69.5q-127 0 -197 69.5t-70 203.5v392q52 11 104 0v-407q0 -79 43.5 -125.5t119.5 -46.5t119 46.5t43 125.5z" />
    <glyph glyph-name="umacron" unicode="&#x16b;" 
d="M124 564h259q11 -36 0 -72l-259 1q-9 35 0 71zM354 120v280q47 10 94 0v-400q-41 -8 -82 0l-7 57q-64 -72 -143 -72q-78 0 -115.5 45.5t-37.5 113.5v256q47 10 93 0v-236q0 -46 22.5 -72t67.5 -26q57 0 108 54z" />
    <glyph glyph-name="Uring" unicode="&#x16e;" horiz-adv-x="694" 
d="M348 900q37 0 63.5 -26.5t26.5 -62.5q0 -38 -26 -64.5t-64 -26.5t-64.5 26.5t-26.5 64.5q0 36 26.5 62.5t64.5 26.5zM348 847q-16 0 -26.5 -10.5t-10.5 -25.5t10.5 -26.5t26.5 -11.5t26.5 11.5t10.5 26.5t-10.5 25.5t-26.5 10.5zM511 243v407q53 11 104 0v-392
q0 -134 -70 -203.5t-196 -69.5q-127 0 -197 69.5t-70 203.5v392q52 11 104 0v-407q0 -79 43.5 -125.5t119.5 -46.5t119 46.5t43 125.5z" />
    <glyph glyph-name="uring" unicode="&#x16f;" 
d="M255 650q37 0 63.5 -26.5t26.5 -62.5q0 -38 -26 -64.5t-64 -26.5t-64.5 26.5t-26.5 64.5q0 36 26.5 62.5t64.5 26.5zM255 597q-16 0 -26.5 -10.5t-10.5 -25.5t10.5 -26.5t26.5 -11.5t26.5 11.5t10.5 26.5t-10.5 25.5t-26.5 10.5zM354 120v280q47 10 94 0v-400
q-41 -8 -82 0l-7 57q-64 -72 -143 -72q-78 0 -115.5 45.5t-37.5 113.5v256q47 10 93 0v-236q0 -46 22.5 -72t67.5 -26q57 0 108 54z" />
    <glyph glyph-name="Uhungarumlaut" unicode="&#x170;" horiz-adv-x="694" 
d="M211 747l114 152q14 -2 35.5 -18.5t25.5 -29.5l-126 -142q-13 2 -28.5 14.5t-20.5 23.5zM353 747l114 152q14 -2 35.5 -18.5t25.5 -29.5l-126 -142q-13 2 -28.5 14.5t-20.5 23.5zM511 243v407q53 11 104 0v-392q0 -134 -70 -203.5t-196 -69.5q-127 0 -197 69.5t-70 203.5
v392q52 11 104 0v-407q0 -79 43.5 -125.5t119.5 -46.5t119 46.5t43 125.5z" />
    <glyph glyph-name="uhungarumlaut" unicode="&#x171;" 
d="M118 497l114 152q14 -2 35.5 -18.5t25.5 -29.5l-126 -142q-13 2 -28.5 14.5t-20.5 23.5zM261 497l114 152q14 -2 35.5 -18.5t25.5 -29.5l-126 -142q-13 2 -28.5 14.5t-20.5 23.5zM354 120v280q47 10 94 0v-400q-41 -8 -82 0l-7 57q-64 -72 -143 -72q-78 0 -115.5 45.5
t-37.5 113.5v256q47 10 93 0v-236q0 -46 22.5 -72t67.5 -26q57 0 108 54z" />
    <glyph glyph-name="Uogonek" unicode="&#x172;" horiz-adv-x="694" 
d="M511 243v407q53 11 104 0v-392q0 -196 -146 -253q-66 -40 -66 -94q0 -26 17.5 -43.5t47.5 -17.5q16 0 28 5q10 -29 0 -60q-13 -4 -41 -4q-44 0 -74 27t-30 71q0 55 51 99q-26 -3 -53 -3q-127 0 -197 69.5t-70 203.5v392q52 11 104 0v-407q0 -79 43.5 -125.5t119.5 -46.5
t119 46.5t43 125.5z" />
    <glyph glyph-name="uogonek" unicode="&#x173;" 
d="M474 -151q10 -30 0 -59q-17 -5 -41 -5q-44 0 -74 27t-30 71q0 65 69 113q-10 0 -32 4l-7 57q-64 -72 -143 -72q-78 0 -115.5 45.5t-37.5 113.5v256q47 10 93 0v-236q0 -46 22.5 -72t67.5 -26q57 0 108 54v280q47 10 94 0v-400q-67 -40 -67 -95q0 -26 17.5 -43.5
t47.5 -17.5q16 0 28 5z" />
    <glyph glyph-name="Wcircumflex" unicode="&#x174;" horiz-adv-x="1014" 
d="M527 889l132 -133q-4 -13 -22 -30t-30 -20l-100 101l-99 -101q-13 3 -30.5 20t-22.5 30l132 133q8 6 20 6t20 -6zM978 650l-224 -650q-43 -9 -86 0l-161 482l-162 -482q-43 -9 -86 0l-224 650q53 11 105 0l162 -498l162 498q43 9 85 0l162 -498l162 498q52 11 105 0z" />
    <glyph glyph-name="wcircumflex" unicode="&#x175;" horiz-adv-x="731" 
d="M385 639l132 -133q-4 -13 -22 -30t-30 -20l-100 101l-99 -101q-13 3 -30.5 20t-22.5 30l132 133q8 6 20.5 6t19.5 -6zM185 0l-151 400q50 10 99 0l92 -275l101 275q39 11 78 0l102 -275l91 275q50 10 99 0l-151 -400q-39 -10 -77 0l-103 281l-102 -281q-39 -10 -78 0z
" />
    <glyph glyph-name="Ycircumflex" unicode="&#x176;" horiz-adv-x="661" 
d="M351 889l132 -133q-4 -13 -22 -30t-30 -20l-100 101l-99 -101q-13 3 -30.5 20t-22.5 30l132 133q8 6 20.5 6t19.5 -6zM382 238v-238q-52 -11 -103 0v238l-244 412q55 11 110 0l186 -316l185 316q21 4 54.5 4t55.5 -4z" />
    <glyph glyph-name="ycircumflex" unicode="&#x177;" 
d="M275 639l132 -133q-4 -13 -22 -30t-30 -20l-100 101l-99 -101q-13 3 -30.5 20t-22.5 30l132 133q8 6 20.5 6t19.5 -6zM256 134l121 266q49 10 99 0l-265 -563q-48 -10 -96 0l93 196l-174 367q50 10 98 0z" />
    <glyph glyph-name="Ydieresis" unicode="&#x178;" horiz-adv-x="661" 
d="M211 858q25 0 43 -16.5t18 -41.5t-18 -41.5t-43 -16.5q-26 0 -44 16.5t-18 41.5t18 41.5t44 16.5zM452 858q25 0 43 -16.5t18 -41.5t-18 -41.5t-43 -16.5q-26 0 -44 16.5t-18 41.5t18 41.5t44 16.5zM382 238v-238q-52 -11 -103 0v238l-244 412q55 11 110 0l186 -316
l185 316q21 4 54.5 4t55.5 -4z" />
    <glyph glyph-name="Zacute" unicode="&#x179;" horiz-adv-x="555" 
d="M190 747l114 152q14 -2 35.5 -18.5t25.5 -29.5l-126 -142q-13 2 -28.5 14.5t-20.5 23.5zM191 86h318q9 -43 0 -86h-468v10l322 554h-307q-9 43 0 86h457v-10z" />
    <glyph glyph-name="zacute" unicode="&#x17a;" horiz-adv-x="428" 
d="M127 497l114 152q14 -2 35.5 -18.5t25.5 -29.5l-126 -142q-13 2 -28.5 14.5t-20.5 23.5zM178 81h206q9 -40 0 -81h-345v9l211 310h-196q-8 41 0 81h335v-9z" />
    <glyph glyph-name="Zdotaccent" unicode="&#x17b;" horiz-adv-x="555" 
d="M278 742q-26 0 -44 16.5t-18 41.5t18 41.5t44 16.5q25 0 43 -16.5t18 -41.5t-18 -41.5t-43 -16.5zM191 86h318q9 -43 0 -86h-468v10l322 554h-307q-9 43 0 86h457v-10z" />
    <glyph glyph-name="zdotaccent" unicode="&#x17c;" horiz-adv-x="428" 
d="M215 492q-26 0 -44 16.5t-18 41.5t18 41.5t44 16.5q25 0 43 -16.5t18 -41.5t-18 -41.5t-43 -16.5zM178 81h206q9 -40 0 -81h-345v9l211 310h-196q-8 41 0 81h335v-9z" />
    <glyph glyph-name="Zcaron" unicode="&#x17d;" horiz-adv-x="555" 
d="M278 791l100 101q12 -3 30 -20t22 -30l-132 -133q-7 -6 -19.5 -6t-20.5 6l-132 133q5 13 22.5 30t30.5 20zM191 86h318q9 -43 0 -86h-468v10l322 554h-307q-9 43 0 86h457v-10z" />
    <glyph glyph-name="zcaron" unicode="&#x17e;" horiz-adv-x="428" 
d="M214 541l100 101q12 -3 30 -20t22 -30l-132 -133q-7 -6 -19.5 -6t-20.5 6l-132 133q5 13 22.5 30t30.5 20zM178 81h206q9 -40 0 -81h-345v9l211 310h-196q-8 41 0 81h335v-9z" />
    <glyph glyph-name="Acaron" unicode="&#x1cd;" horiz-adv-x="696" 
d="M348 791l100 101q12 -3 30 -20t22 -30l-132 -133q-8 -6 -20 -6t-20 6l-132 133q5 13 22.5 30t30.5 20zM391 650l270 -650q-53 -11 -106 0l-66 163h-283l-65 -163q-53 -11 -106 0l270 650q42 9 86 0zM239 249h218l-109 270z" />
    <glyph glyph-name="acaron" unicode="&#x1ce;" horiz-adv-x="481" 
d="M240 541l100 101q12 -3 30 -20t22 -30l-132 -133q-8 -6 -20 -6t-20 6l-132 133q5 13 22.5 30t30.5 20zM234 415q184 0 184 -183v-232q-41 -9 -81 0l-6 46q-24 -26 -62 -43.5t-80 -17.5q-62 0 -103 35t-41 94t41 94t107 35q79 0 132 -46v43q0 99 -109 99q-64 0 -131 -41
q-6 8 -5.5 37t5.5 40q57 40 149 40zM216 184q-37 0 -57.5 -18t-20.5 -46q0 -27 20.5 -45.5t56.5 -18.5q32 0 63 13.5t47 28.5v45q-15 14 -46.5 27.5t-62.5 13.5z" />
    <glyph glyph-name="Icaron" unicode="&#x1cf;" horiz-adv-x="267" 
d="M134 791l99 101q13 -3 30.5 -20t22.5 -30l-132 -133q-8 -6 -20 -6t-20 6l-132 133q4 13 22 30t30 20zM184 650v-650q-50 -11 -102 0v650q52 11 102 0z" />
    <glyph glyph-name="icaron" unicode="&#x1d0;" horiz-adv-x="226" 
d="M114 541l100 101q13 -3 30.5 -20t22.5 -30l-133 -133q-7 -6 -19.5 -6t-20.5 6l-132 133q5 13 22.5 30t30.5 20zM160 400v-400q-46 -10 -93 0v400q47 10 93 0z" />
    <glyph glyph-name="Ocaron" unicode="&#x1d1;" horiz-adv-x="799" 
d="M399 791l100 101q12 -3 30 -20t22 -30l-132 -133q-7 -6 -19.5 -6t-20.5 6l-132 133q5 13 22.5 30t30.5 20zM399 665q150 0 246 -98.5t96 -241.5t-96 -241.5t-246 -98.5t-246 98.5t-96 241.5t96 241.5t246 98.5zM399 579q-102 0 -170 -71.5t-68 -182.5t68 -182.5
t170 -71.5t170 71.5t68 182.5t-68 182.5t-170 71.5z" />
    <glyph glyph-name="ocaron" unicode="&#x1d2;" horiz-adv-x="533" 
d="M266 541l100 101q12 -3 30 -20t22 -30l-132 -133q-8 -6 -20 -6t-20 6l-132 133q5 13 22.5 30t30.5 20zM266 415q95 0 157 -62t62 -153t-62 -153t-157 -62q-94 0 -156 62t-62 153t62 153t156 62zM267 334q-54 0 -89.5 -37.5t-35.5 -96.5t35.5 -96.5t89.5 -37.5t89.5 37.5
t35.5 96.5t-35.5 96.5t-89.5 37.5z" />
    <glyph glyph-name="Ucaron" unicode="&#x1d3;" horiz-adv-x="694" 
d="M347 791l100 101q12 -3 30 -20t22 -30l-132 -133q-7 -6 -19.5 -6t-20.5 6l-132 133q5 13 22.5 30t30.5 20zM511 243v407q53 11 104 0v-392q0 -134 -70 -203.5t-196 -69.5q-127 0 -197 69.5t-70 203.5v392q52 11 104 0v-407q0 -79 43.5 -125.5t119.5 -46.5t119 46.5
t43 125.5z" />
    <glyph glyph-name="ucaron" unicode="&#x1d4;" 
d="M255 541l100 101q12 -3 30 -20t22 -30l-132 -133q-7 -6 -19.5 -6t-20.5 6l-132 133q5 13 22.5 30t30.5 20zM354 120v280q47 10 94 0v-400q-41 -8 -82 0l-7 57q-64 -72 -143 -72q-78 0 -115.5 45.5t-37.5 113.5v256q47 10 93 0v-236q0 -46 22.5 -72t67.5 -26q57 0 108 54z
" />
    <glyph glyph-name="Udieresismacron" unicode="&#x1d5;" horiz-adv-x="694" 
d="M216 993h259q11 -36 0 -72h-259q-9 36 0 72zM228 858q25 0 43 -16.5t18 -41.5t-18 -41.5t-43 -16.5q-26 0 -44 16.5t-18 41.5t18 41.5t44 16.5zM469 858q25 0 43 -16.5t18 -41.5t-18 -41.5t-43 -16.5q-26 0 -44 16.5t-18 41.5t18 41.5t44 16.5zM511 243v407q53 11 104 0
v-392q0 -134 -70 -203.5t-196 -69.5q-127 0 -197 69.5t-70 203.5v392q52 11 104 0v-407q0 -79 43.5 -125.5t119.5 -46.5t119 46.5t43 125.5z" />
    <glyph glyph-name="udieresismacron" unicode="&#x1d6;" 
d="M124 742h259q11 -35 0 -72l-259 1q-9 35 0 71zM136 608q25 0 43 -16.5t18 -41.5t-18 -41.5t-43 -16.5q-26 0 -44 16.5t-18 41.5t18 41.5t44 16.5zM376 608q25 0 43 -16.5t18 -41.5t-18 -41.5t-43 -16.5q-26 0 -44 16.5t-18 41.5t18 41.5t44 16.5zM354 120v280q47 10 94 0
v-400q-41 -8 -82 0l-7 57q-64 -72 -143 -72q-78 0 -115.5 45.5t-37.5 113.5v256q47 10 93 0v-236q0 -46 22.5 -72t67.5 -26q57 0 108 54z" />
    <glyph glyph-name="Udieresisacute" unicode="&#x1d7;" horiz-adv-x="694" 
d="M260 947l114 152q14 -2 35.5 -18.5t25.5 -29.5l-126 -142q-13 2 -28.5 14.5t-20.5 23.5zM228 858q25 0 43 -16.5t18 -41.5t-18 -41.5t-43 -16.5q-26 0 -44 16.5t-18 41.5t18 41.5t44 16.5zM469 858q25 0 43 -16.5t18 -41.5t-18 -41.5t-43 -16.5q-26 0 -44 16.5t-18 41.5
t18 41.5t44 16.5zM511 243v407q53 11 104 0v-392q0 -134 -70 -203.5t-196 -69.5q-127 0 -197 69.5t-70 203.5v392q52 11 104 0v-407q0 -79 43.5 -125.5t119.5 -46.5t119 46.5t43 125.5z" />
    <glyph glyph-name="udieresisacute" unicode="&#x1d8;" 
d="M168 697l114 152q14 -2 35.5 -19t25.5 -29l-126 -142q-13 2 -28.5 14.5t-20.5 23.5zM136 608q25 0 43 -16.5t18 -41.5t-18 -41.5t-43 -16.5q-26 0 -44 16.5t-18 41.5t18 41.5t44 16.5zM376 608q25 0 43 -16.5t18 -41.5t-18 -41.5t-43 -16.5q-26 0 -44 16.5t-18 41.5
t18 41.5t44 16.5zM354 120v280q47 10 94 0v-400q-41 -8 -82 0l-7 57q-64 -72 -143 -72q-78 0 -115.5 45.5t-37.5 113.5v256q47 10 93 0v-236q0 -46 22.5 -72t67.5 -26q57 0 108 54z" />
    <glyph glyph-name="Udieresiscaron" unicode="&#x1d9;" horiz-adv-x="694" 
d="M347 991l100 101q12 -3 30 -20t22 -29l-132 -134q-8 -6 -20 -6t-20 6l-132 134q5 12 23 29t30 20zM228 858q25 0 43 -16.5t18 -41.5t-18 -41.5t-43 -16.5q-26 0 -44 16.5t-18 41.5t18 41.5t44 16.5zM469 858q25 0 43 -16.5t18 -41.5t-18 -41.5t-43 -16.5q-26 0 -44 16.5
t-18 41.5t18 41.5t44 16.5zM511 243v407q53 11 104 0v-392q0 -134 -70 -203.5t-196 -69.5q-127 0 -197 69.5t-70 203.5v392q52 11 104 0v-407q0 -79 43.5 -125.5t119.5 -46.5t119 46.5t43 125.5z" />
    <glyph glyph-name="udieresiscaron" unicode="&#x1da;" 
d="M255 741l100 101q12 -3 30 -20t22 -29l-132 -134q-7 -6 -19.5 -6t-20.5 6l-132 134q5 12 23 29t30 20zM136 608q25 0 43 -16.5t18 -41.5t-18 -41.5t-43 -16.5q-26 0 -44 16.5t-18 41.5t18 41.5t44 16.5zM376 608q25 0 43 -16.5t18 -41.5t-18 -41.5t-43 -16.5
q-26 0 -44 16.5t-18 41.5t18 41.5t44 16.5zM354 120v280q47 10 94 0v-400q-41 -8 -82 0l-7 57q-64 -72 -143 -72q-78 0 -115.5 45.5t-37.5 113.5v256q47 10 93 0v-236q0 -46 22.5 -72t67.5 -26q57 0 108 54z" />
    <glyph glyph-name="Udieresisgrave" unicode="&#x1db;" horiz-adv-x="694" 
d="M322 1099l113 -152q-5 -11 -20.5 -23.5t-28.5 -14.5l-126 142q4 13 26 29.5t36 18.5zM228 858q25 0 43 -16.5t18 -41.5t-18 -41.5t-43 -16.5q-26 0 -44 16.5t-18 41.5t18 41.5t44 16.5zM469 858q25 0 43 -16.5t18 -41.5t-18 -41.5t-43 -16.5q-26 0 -44 16.5t-18 41.5
t18 41.5t44 16.5zM511 243v407q53 11 104 0v-392q0 -134 -70 -203.5t-196 -69.5q-127 0 -197 69.5t-70 203.5v392q52 11 104 0v-407q0 -79 43.5 -125.5t119.5 -46.5t119 46.5t43 125.5z" />
    <glyph glyph-name="udieresisgrave" unicode="&#x1dc;" 
d="M230 849l113 -152q-5 -11 -20.5 -23.5t-28.5 -14.5l-126 142q4 13 26 29.5t36 18.5zM136 608q25 0 43 -16.5t18 -41.5t-18 -41.5t-43 -16.5q-26 0 -44 16.5t-18 41.5t18 41.5t44 16.5zM376 608q25 0 43 -16.5t18 -41.5t-18 -41.5t-43 -16.5q-26 0 -44 16.5t-18 41.5
t18 41.5t44 16.5zM354 120v280q47 10 94 0v-400q-41 -8 -82 0l-7 57q-64 -72 -143 -72q-78 0 -115.5 45.5t-37.5 113.5v256q47 10 93 0v-236q0 -46 22.5 -72t67.5 -26q57 0 108 54z" />
    <glyph glyph-name="Scommaaccent" unicode="&#x218;" horiz-adv-x="561" 
d="M278 665q106 0 185 -57q5 -13 5.5 -52t-5.5 -47q-99 70 -184 70q-55 0 -87 -26.5t-32 -67.5q0 -43 31.5 -63t120.5 -49q43 -14 70.5 -26.5t58.5 -34.5t46.5 -56t15.5 -79q0 -89 -64 -140.5t-163 -51.5q-114 0 -199 58q-6 11 -6 51.5t6 47.5q103 -71 195 -71q59 0 93 27.5
t34 71.5q0 46 -32.5 67.5t-120.5 49.5q-42 14 -70.5 27t-58.5 34.5t-45 53.5t-15 74q0 80 59.5 134.5t161.5 54.5zM276 -59q26 0 46 -18.5t21 -55.5q1 -46 -22.5 -100.5t-45.5 -70.5q-26 -7 -53 0q26 25 44 63t23 67q-5 -1 -15 -1q-25 0 -42.5 16.5t-17.5 40.5q0 25 18 42
t44 17z" />
    <glyph glyph-name="scommaaccent" unicode="&#x219;" horiz-adv-x="405" 
d="M229 238q67 -22 100.5 -50t33.5 -78q0 -60 -47.5 -92.5t-115.5 -32.5q-39 0 -80.5 11t-63.5 27q-5 11 -5.5 37.5t5.5 34.5q76 -48 139 -48q31 0 53 13t22 38q0 28 -37 44q-13 5 -58 20q-66 22 -100 49t-34 78q0 59 44.5 92.5t113.5 33.5q39 0 79 -11t62 -27
q5 -11 5.5 -37.5t-5.5 -34.5q-74 48 -133 48q-30 0 -51.5 -14t-21.5 -38q0 -15 12 -26t25.5 -17t45.5 -16q8 -3 12 -4zM192 -59q26 0 46 -18.5t21 -55.5q1 -46 -22.5 -100.5t-45.5 -70.5q-26 -7 -53 0q26 25 44 63t23 67q-5 -1 -15 -1q-25 0 -42.5 16.5t-17.5 40.5
q0 25 18 42t44 17z" />
    <glyph glyph-name="uni021A" unicode="&#x21a;" horiz-adv-x="586" 
d="M40 650h507q9 -43 0 -86h-202v-564q-52 -11 -103 0v564h-202q-9 43 0 86zM294 -59q26 0 46 -18.5t21 -55.5q1 -46 -22.5 -100.5t-45.5 -70.5q-26 -7 -53 0q26 25 44 63t23 67q-5 -1 -15 -1q-25 0 -42.5 16.5t-17.5 40.5q0 25 18 42t44 17z" />
    <glyph glyph-name="uni021B" unicode="&#x21b;" horiz-adv-x="374" 
d="M321 104q6 -8 5.5 -38t-5.5 -41q-40 -40 -108 -40q-52 0 -82 31t-30 90v215h-62q-10 39 0 79h62v130q46 10 93 0v-130h122q10 -40 0 -79h-122v-202q0 -55 42 -55q37 0 85 40zM207 -59q26 0 46 -18.5t21 -55.5q1 -46 -22.5 -100.5t-45.5 -70.5q-26 -7 -53 0q26 25 44 63
t23 67q-5 -1 -15 -1q-25 0 -42.5 16.5t-17.5 40.5q0 25 18 42t44 17z" />
    <glyph glyph-name="circumflex" unicode="&#x2c6;" horiz-adv-x="381" 
d="M210 889l132 -133q-4 -13 -22 -30t-30 -20l-100 101l-99 -101q-13 3 -30.5 20t-22.5 30l132 133q8 6 20 6t20 -6z" />
    <glyph glyph-name="caron" unicode="&#x2c7;" horiz-adv-x="381" 
d="M190 791l100 101q12 -3 30 -20t22 -30l-132 -133q-8 -6 -20 -6t-20 6l-132 133q5 13 22.5 30t30.5 20z" />
    <glyph glyph-name="breve" unicode="&#x2d8;" horiz-adv-x="377" 
d="M333 858q6 -8 5.5 -37.5t-5.5 -40.5q-56 -44 -145 -44q-87 0 -145 44q-5 11 -5.5 40.5t5.5 37.5q68 -43 145 -43t145 43z" />
    <glyph glyph-name="dotaccent" unicode="&#x2d9;" horiz-adv-x="199" 
d="M100 742q-26 0 -44 16.5t-18 41.5t18 41.5t44 16.5q25 0 43 -16.5t18 -41.5t-18 -41.5t-43 -16.5z" />
    <glyph glyph-name="ring" unicode="&#x2da;" horiz-adv-x="258" 
d="M129 900q37 0 63.5 -26.5t26.5 -62.5q0 -38 -26 -64.5t-64 -26.5t-64.5 26.5t-26.5 64.5q0 36 26.5 62.5t64.5 26.5zM129 847q-16 0 -26.5 -10.5t-10.5 -25.5t10.5 -26.5t26.5 -11.5t26.5 11.5t10.5 26.5t-10.5 25.5t-26.5 10.5z" />
    <glyph glyph-name="ogonek" unicode="&#x2db;" horiz-adv-x="226" 
d="M113 0h44q-67 -40 -67 -95q0 -26 17.5 -43.5t47.5 -17.5q16 0 28 5q10 -30 0 -59q-17 -5 -41 -5q-44 0 -74 27t-30 71q0 68 75 117z" />
    <glyph glyph-name="tilde" unicode="&#x2dc;" horiz-adv-x="385" 
d="M129 842q27 0 75 -22q27 -12 52 -12q28 0 86 30q11 -37 0 -72q-3 -1 -13 -6.5t-14 -7.5t-13 -6t-15 -5.5t-14.5 -3t-16.5 -1.5q-27 0 -75 22q-27 12 -52 12q-28 0 -86 -30q-9 36 0 72q3 1 13 6.5t14 7.5t13 6t15 5.5t14.5 3t16.5 1.5z" />
    <glyph glyph-name="hungarumlaut" unicode="&#x2dd;" horiz-adv-x="395" 
d="M38 747l114 152q14 -2 35.5 -18.5t25.5 -29.5l-126 -142q-13 2 -28.5 14.5t-20.5 23.5zM181 747l114 152q14 -2 35.5 -18.5t25.5 -29.5l-126 -142q-13 2 -28.5 14.5t-20.5 23.5z" />
    <glyph glyph-name="uni0326" unicode="&#x326;" horiz-adv-x="0" 
d="M101 -59q26 0 46 -18.5t21 -55.5q1 -46 -22.5 -100.5t-45.5 -70.5q-26 -7 -53 0q26 25 44 63t23 67q-5 -1 -15 -1q-25 0 -42.5 16.5t-17.5 40.5q0 25 18 42t44 17z" />
    <glyph glyph-name="uni0401" unicode="&#x401;" horiz-adv-x="571" 
d="M187 858q25 0 43 -16.5t18 -41.5t-18 -41.5t-43 -16.5q-26 0 -44 16.5t-18 41.5t18 41.5t44 16.5zM416 858q25 0 43 -16.5t18 -41.5t-18 -41.5t-43 -16.5q-26 0 -44 16.5t-18 41.5t18 41.5t44 16.5zM82 650h442q10 -43 0 -86h-340v-190h309q9 -43 0 -86h-309v-202h340
q10 -43 0 -86h-442v650z" />
    <glyph glyph-name="uni0410" unicode="&#x410;" horiz-adv-x="696" 
d="M391 650l270 -650q-53 -11 -106 0l-66 163h-283l-65 -163q-53 -11 -106 0l270 650q42 9 86 0zM239 249h218l-109 270z" />
    <glyph glyph-name="uni0411" unicode="&#x411;" horiz-adv-x="615" 
d="M184 406h139q111 0 175 -58t64 -145q0 -86 -64 -144.5t-175 -58.5h-241v650h418q9 -43 0 -86h-316v-158zM185 86h139q64 0 99.5 33.5t35.5 83.5q0 51 -35.5 84.5t-99.5 33.5h-139v-235z" />
    <glyph glyph-name="uni0412" unicode="&#x412;" horiz-adv-x="610" 
d="M82 650h263q90 0 147.5 -46.5t57.5 -120.5q0 -51 -25.5 -89t-70.5 -57q55 -19 85 -59.5t30 -96.5q0 -82 -59.5 -131.5t-162.5 -49.5h-265v650zM185 564v-196h157q49 0 78 26.5t29 71.5q0 46 -31 72t-82 26h-151zM185 295v-209h157q59 0 91.5 28.5t32.5 77.5q0 47 -31 75
t-91 28h-159z" />
    <glyph glyph-name="uni0413" unicode="&#x413;" horiz-adv-x="545" 
d="M82 650h423q9 -43 0 -86h-321v-564q-50 -11 -102 0v650z" />
    <glyph glyph-name="uni0414" unicode="&#x414;" horiz-adv-x="770" 
d="M734 86v-195q-50 -13 -102 0v109h-495v-109q-50 -13 -102 0v195h61q69 38 83 170l40 394h434v-564h81zM551 564h-239l-31 -308q-13 -124 -65 -170h335v478z" />
    <glyph glyph-name="uni0415" unicode="&#x415;" horiz-adv-x="571" 
d="M184 86h340q10 -43 0 -86h-442v650h442q10 -43 0 -86h-340v-190h309q9 -43 0 -86h-309v-202z" />
    <glyph glyph-name="uni0416" unicode="&#x416;" horiz-adv-x="899" 
d="M602 334l262 -334q-22 -4 -58.5 -4t-58.5 4l-247 314v-314q-50 -11 -102 0v315l-246 -314q-22 -5 -58.5 -5t-58.5 5l262 334l-248 316q22 5 58.5 5t58.5 -5l232 -296v296q52 11 102 0v-297l233 296q21 4 58 4t59 -4z" />
    <glyph glyph-name="uni0417" unicode="&#x417;" horiz-adv-x="576" 
d="M418 336q57 -19 87 -62.5t30 -100.5q0 -87 -66.5 -138t-173.5 -51q-125 0 -211 57q-5 11 -5.5 49t5.5 47q95 -67 206 -67q60 0 100.5 30.5t40.5 84.5q0 46 -30.5 75.5t-90.5 29.5h-108q-10 40 0 81h106q48 0 77 29t29 74q0 46 -32.5 75.5t-89.5 29.5q-102 0 -198 -66
q-6 8 -5.5 46t5.5 49q84 57 203 57q101 0 160 -49.5t59 -125.5q0 -52 -26.5 -93t-71.5 -61z" />
    <glyph glyph-name="uni0418" unicode="&#x418;" horiz-adv-x="717" 
d="M639 650v-650q-50 -11 -102 0v479l-376 -479q-41 -8 -82 0v650q52 11 102 0v-479l377 479q40 9 81 0z" />
    <glyph glyph-name="uni0419" unicode="&#x419;" horiz-adv-x="717" 
d="M502 858q6 -8 5.5 -37.5t-5.5 -40.5q-56 -44 -145 -44q-87 0 -145 44q-5 11 -5.5 40.5t5.5 37.5q68 -43 145 -43t145 43zM639 650v-650q-50 -11 -102 0v479l-376 -479q-41 -8 -82 0v650q52 11 102 0v-479l377 479q40 9 81 0z" />
    <glyph glyph-name="uni041A" unicode="&#x41a;" horiz-adv-x="641" 
d="M293 334l312 -334q-21 -4 -61.5 -4t-61.5 4l-298 318v-318q-50 -11 -102 0v650q52 11 102 0v-299l283 299q22 4 62.5 4t61.5 -4z" />
    <glyph glyph-name="uni041B" unicode="&#x41b;" horiz-adv-x="724" 
d="M644 650v-650q-52 -11 -102 0v564h-240l-39 -382q-10 -99 -51.5 -148t-119.5 -49q-30 0 -52 7q-9 44 0 87q13 -3 25 -3q42 0 66 26.5t30 88.5l48 459h435z" />
    <glyph glyph-name="uni041C" unicode="&#x41c;" horiz-adv-x="901" 
d="M713 650l152 -650q-50 -10 -100 0l-105 469l-168 -469q-42 -9 -84 0l-168 469l-105 -469q-50 -10 -100 0l152 650q43 9 87 0l176 -490l176 490q44 9 87 0z" />
    <glyph glyph-name="uni041D" unicode="&#x41d;" horiz-adv-x="726" 
d="M541 374v276q50 11 102 0v-650q-52 -11 -102 0v288h-357v-288q-50 -11 -102 0v650q52 11 102 0v-276h357z" />
    <glyph glyph-name="uni041E" unicode="&#x41e;" horiz-adv-x="799" 
d="M399 665q150 0 246 -98.5t96 -241.5t-96 -241.5t-246 -98.5t-246 98.5t-96 241.5t96 241.5t246 98.5zM399 579q-102 0 -170 -71.5t-68 -182.5t68 -182.5t170 -71.5t170 71.5t68 182.5t-68 182.5t-170 71.5z" />
    <glyph glyph-name="uni041F" unicode="&#x41f;" horiz-adv-x="726" 
d="M643 650v-650q-52 -11 -102 0v564h-357v-564q-50 -11 -102 0v650h561z" />
    <glyph glyph-name="uni0420" unicode="&#x420;" horiz-adv-x="620" 
d="M82 650h239q112 0 176.5 -60t64.5 -153q0 -92 -64.5 -152t-176.5 -60h-137v-225q-50 -11 -102 0v650zM185 310h137q65 0 101 35t36 92t-36 92t-101 35h-137v-254z" />
    <glyph glyph-name="uni0421" unicode="&#x421;" horiz-adv-x="706" 
d="M417 71q107 0 205 66q6 -8 5.5 -46t-5.5 -49q-86 -57 -210 -57q-158 0 -256.5 98t-98.5 242t98.5 242t256.5 98q124 0 210 -57q5 -11 5.5 -49t-5.5 -46q-98 66 -205 66q-110 0 -183 -71.5t-73 -182.5t73 -182.5t183 -71.5z" />
    <glyph glyph-name="uni0422" unicode="&#x422;" horiz-adv-x="586" 
d="M40 650h507q9 -43 0 -86h-202v-564q-52 -11 -103 0v564h-202q-9 43 0 86z" />
    <glyph glyph-name="uni0423" unicode="&#x423;" horiz-adv-x="661" 
d="M331 334l185 316q21 4 54.5 4t55.5 -4l-386 -650q-22 -4 -55.5 -4t-54.5 4l146 244l-241 406q55 11 110 0z" />
    <glyph glyph-name="uni0424" unicode="&#x424;" horiz-adv-x="908" 
d="M505 585h46q76 0 135.5 -23t94 -61t52 -82.5t17.5 -92.5q0 -104 -76 -181.5t-223 -77.5h-46v-67q-51 -11 -103 0v67h-46q-147 0 -223 77.5t-76 181.5q0 48 17.5 92.5t52 82.5t94 61t135.5 23h46v65q52 11 103 0v-65zM402 499h-48q-96 0 -144.5 -50.5t-48.5 -122.5
t48.5 -122.5t144.5 -50.5h48v346zM505 153h48q96 0 144.5 50.5t48.5 122.5t-48.5 122.5t-144.5 50.5h-48v-346z" />
    <glyph glyph-name="uni0425" unicode="&#x425;" horiz-adv-x="642" 
d="M390 334l217 -334q-22 -4 -59 -4t-59 4l-171 263l-166 -263q-21 -4 -58 -4t-59 4l217 334l-207 316q22 4 59 4t58 -4l162 -245l155 245q22 4 59 4t58 -4z" />
    <glyph glyph-name="uni0426" unicode="&#x426;" horiz-adv-x="744" 
d="M708 86v-195q-50 -13 -102 0v109h-524v650q52 11 102 0v-564h341v564q52 11 102 0v-564h81z" />
    <glyph glyph-name="uni0427" unicode="&#x427;" horiz-adv-x="647" 
d="M462 375v275q51 11 103 0v-650q-51 -11 -103 0v294q-27 -28 -80 -51t-113 -23q-99 0 -153 58.5t-54 154.5v217q52 11 102 0v-203q0 -141 138 -141q52 0 95 22t65 47z" />
    <glyph glyph-name="uni0428" unicode="&#x428;" horiz-adv-x="984" 
d="M799 86v564q52 11 103 0v-650h-820v650q52 11 102 0v-564h257v564q50 11 102 0v-564h256z" />
    <glyph glyph-name="uni0429" unicode="&#x429;" horiz-adv-x="1019" 
d="M983 86v-195q-52 -13 -102 0v109h-799v650q52 11 102 0v-564h257v564q50 11 102 0v-564h256v564q52 11 103 0v-564h81z" />
    <glyph glyph-name="uni042A" unicode="&#x42a;" horiz-adv-x="696" 
d="M261 423h137q112 0 176.5 -60t64.5 -152t-64.5 -151.5t-176.5 -59.5h-239v564h-119q-9 43 0 86h221v-227zM261 86h137q65 0 101 34.5t36 90.5t-36 91t-101 35h-137v-251z" />
    <glyph glyph-name="uni042B" unicode="&#x42b;" horiz-adv-x="823" 
d="M184 423h137q112 0 176.5 -60t64.5 -152t-64.5 -151.5t-176.5 -59.5h-239v650q52 11 102 0v-227zM638 0v650q52 11 102 0v-650q-50 -11 -102 0zM185 86h137q65 0 101 34.5t36 90.5t-36 91t-101 35h-137v-251z" />
    <glyph glyph-name="uni042C" unicode="&#x42c;" horiz-adv-x="620" 
d="M184 423h137q112 0 176.5 -60t64.5 -152t-64.5 -151.5t-176.5 -59.5h-239v650q52 11 102 0v-227zM185 86h137q65 0 101 34.5t36 90.5t-36 91t-101 35h-137v-251z" />
    <glyph glyph-name="uni042D" unicode="&#x42d;" horiz-adv-x="706" 
d="M294 665q163 0 259 -97.5t96 -242.5t-96 -242.5t-259 -97.5q-126 0 -210 57q-5 11 -5.5 49t5.5 46q96 -66 204 -66q104 0 172.5 59.5t79.5 154.5h-289q-11 43 0 85h289q-13 93 -81.5 151t-170.5 58q-108 0 -204 -66q-6 8 -5.5 46t5.5 49q84 57 210 57z" />
    <glyph glyph-name="uni042E" unicode="&#x42e;" horiz-adv-x="1031" 
d="M631 665q150 0 246 -98.5t96 -241.5t-96 -241.5t-246 -98.5q-138 0 -231.5 85.5t-106.5 214.5h-109v-285q-50 -11 -102 0v650q52 11 102 0v-280h109q15 127 108 211t230 84zM631 71q102 0 170 71.5t68 182.5t-68 182.5t-170 71.5t-170 -71.5t-68 -182.5t68 -182.5
t170 -71.5z" />
    <glyph glyph-name="uni042F" unicode="&#x42f;" horiz-adv-x="632" 
d="M550 650v-650q-51 -11 -103 0v232l-130 1l-165 -233q-22 -4 -56.5 -4t-56.5 4l175 247q-73 20 -112 72t-39 122q0 92 63 150.5t175 58.5h249zM448 564h-145q-65 0 -100.5 -33.5t-35.5 -89.5q0 -55 35.5 -89t100.5 -34h145v246z" />
    <glyph glyph-name="uni0430" unicode="&#x430;" horiz-adv-x="481" 
d="M234 415q184 0 184 -183v-232q-41 -9 -81 0l-6 46q-24 -26 -62 -43.5t-80 -17.5q-62 0 -103 35t-41 94t41 94t107 35q79 0 132 -46v43q0 99 -109 99q-64 0 -131 -41q-6 8 -5.5 37t5.5 40q57 40 149 40zM216 184q-37 0 -57.5 -18t-20.5 -46q0 -27 20.5 -45.5t56.5 -18.5
q32 0 63 13.5t47 28.5v45q-15 14 -46.5 27.5t-62.5 13.5z" />
    <glyph glyph-name="uni0431" unicode="&#x431;" horiz-adv-x="518" 
d="M281 409q87 0 139 -60t52 -148q0 -94 -61 -155t-153 -61q-93 0 -151.5 62.5t-58.5 172.5v66q0 146 58.5 216.5t192.5 93.5q55 10 80 19t56 35q6 -8 5.5 -44t-5.5 -47q-28 -24 -56 -33.5t-91 -19.5q-75 -13 -108.5 -49t-37.5 -110q55 62 139 62zM259 66q50 0 85 36.5
t35 95.5t-33.5 94.5t-85.5 35.5q-35 0 -67.5 -17.5t-50.5 -36.5v-72q0 -67 33 -101.5t84 -34.5z" />
    <glyph glyph-name="uni0432" unicode="&#x432;" horiz-adv-x="476" 
d="M65 400h201q146 0 146 -103q0 -63 -59 -85q74 -27 74 -99q0 -113 -152 -113h-210v400zM159 333v-99h101q61 0 61 49q0 50 -62 50h-100zM159 179v-112h106q69 0 69 55q0 57 -69 57h-106z" />
    <glyph glyph-name="uni0433" unicode="&#x433;" horiz-adv-x="420" 
d="M65 400h316q8 -41 0 -81h-223v-319q-46 -10 -93 0v400z" />
    <glyph glyph-name="uni0434" unicode="&#x434;" horiz-adv-x="611" 
d="M577 79v-183q-46 -10 -92 0v104h-359v-104q-46 -10 -92 0v183h61q44 31 54 131l20 190h330v-321h78zM406 322h-151l-12 -112q-11 -99 -49 -131h212v243z" />
    <glyph glyph-name="uni0435" unicode="&#x435;" horiz-adv-x="503" 
d="M263 415q71 0 119.5 -36.5t64.5 -88t5 -102.5h-309q3 -58 41.5 -91t97.5 -33q67 0 135 43q6 -7 5.5 -37t-5.5 -41q-56 -44 -145 -44q-101 0 -162.5 59.5t-61.5 156.5q0 93 60 153.5t155 60.5zM264 344q-47 0 -78 -28.5t-38 -76.5h219q0 47 -28.5 76t-74.5 29z" />
    <glyph glyph-name="uni0436" unicode="&#x436;" horiz-adv-x="686" 
d="M480 208l172 -208q-52 -11 -106 0l-156 190v-190q-47 -10 -94 0v190l-156 -190q-52 -11 -106 0l173 208l-167 192q53 11 107 0l149 -175v175q47 10 94 0v-175l149 175q53 11 107 0z" />
    <glyph glyph-name="uni0437" unicode="&#x437;" horiz-adv-x="412" 
d="M192 415q65 0 112.5 -31.5t47.5 -85.5q0 -31 -16 -53.5t-42 -32.5q34 -13 53.5 -40t19.5 -62q0 -59 -49.5 -92t-120.5 -33q-90 0 -148 44q-5 11 -5.5 37.5t5.5 33.5q68 -43 133 -43q41 0 66.5 17t25.5 47q0 29 -19 43.5t-50 14.5h-83q-7 28 0 55h77q61 0 61 52
q0 26 -23.5 41.5t-58.5 15.5q-59 0 -125 -43q-6 7 -6 33.5t6 37.5q56 44 139 44z" />
    <glyph glyph-name="uni0438" unicode="&#x438;" horiz-adv-x="540" 
d="M158 131l245 269q35 8 72 0v-400q-47 -10 -93 0v269l-245 -269q-35 -8 -72 0v400q47 10 93 0v-269z" />
    <glyph glyph-name="uni0439" unicode="&#x439;" horiz-adv-x="539" 
d="M270 486q-87 0 -145 44q-5 11 -5.5 40.5t5.5 37.5q68 -43 145 -43t145 43q6 -8 5.5 -37.5t-5.5 -40.5q-56 -44 -145 -44zM158 131l245 269q35 8 72 0v-400q-47 -10 -93 0v269l-245 -269q-35 -8 -72 0v400q47 10 93 0v-269z" />
    <glyph glyph-name="uni043A" unicode="&#x43a;" horiz-adv-x="480" 
d="M251 208l194 -208q-54 -11 -109 0l-178 191v-191q-46 -10 -93 0v400q47 10 93 0v-177l172 177q55 11 109 0z" />
    <glyph glyph-name="uni043B" unicode="&#x43b;" horiz-adv-x="547" 
d="M482 400v-400q-47 -10 -93 0v321l-155 1l-19 -186q-8 -75 -44 -113t-92 -38q-14 0 -40 4q-5 11 -5.5 40t5.5 37q12 -2 17 -2q58 0 65 74l27 262h334z" />
    <glyph glyph-name="uni043C" unicode="&#x43c;" horiz-adv-x="682" 
d="M533 400l115 -400q-44 -9 -90 0l-71 262l-110 -262q-36 -8 -72 0l-109 262l-72 -262q-44 -9 -90 0l116 400q36 8 72 0l120 -279l118 279q36 8 73 0z" />
    <glyph glyph-name="uni043D" unicode="&#x43d;" horiz-adv-x="541" 
d="M382 245v155q47 10 94 0v-400q-47 -10 -94 0v164h-224v-164q-46 -10 -93 0v400q47 10 93 0v-155h224z" />
    <glyph glyph-name="uni043E" unicode="&#x43e;" horiz-adv-x="533" 
d="M266 415q95 0 157 -62t62 -153t-62 -153t-157 -62q-94 0 -156 62t-62 153t62 153t156 62zM267 334q-54 0 -89.5 -37.5t-35.5 -96.5t35.5 -96.5t89.5 -37.5t89.5 37.5t35.5 96.5t-35.5 96.5t-89.5 37.5z" />
    <glyph glyph-name="uni043F" unicode="&#x43f;" horiz-adv-x="538" 
d="M473 400v-400q-47 -10 -94 0v321l-221 1v-322q-46 -10 -93 0v400h408z" />
    <glyph glyph-name="uni0440" unicode="&#x440;" horiz-adv-x="540" 
d="M298 415q87 0 140 -61.5t53 -153.5t-53 -153.5t-140 -61.5q-84 0 -138 61v-209q-46 -10 -93 0v563q41 8 82 0l6 -53q56 68 143 68zM275 66q55 0 89 37t34 97t-34 97t-89 37q-66 0 -114 -53v-162q48 -53 114 -53z" />
    <glyph glyph-name="uni0441" unicode="&#x441;" horiz-adv-x="481" 
d="M282 64q63 0 131 43q6 -7 5.5 -37t-5.5 -41q-58 -44 -140 -44q-100 0 -162.5 60.5t-62.5 154.5t62.5 154.5t162.5 60.5q82 0 140 -44q5 -11 5.5 -41t-5.5 -37q-68 43 -131 43q-61 0 -101 -37.5t-40 -98.5t40 -98.5t101 -37.5z" />
    <glyph glyph-name="uni0442" unicode="&#x442;" horiz-adv-x="464" 
d="M39 400h386q10 -41 0 -81h-146v-319q-47 -10 -93 0v319h-147q-8 41 0 81z" />
    <glyph glyph-name="uni0443" unicode="&#x443;" 
d="M256 134l121 266q49 10 99 0l-265 -563q-48 -10 -96 0l93 196l-174 367q50 10 98 0z" />
    <glyph glyph-name="uni0444" unicode="&#x444;" horiz-adv-x="693" 
d="M396 415h33q97 0 159 -62t62 -153t-62 -153t-159 -62h-33v-148q-47 -10 -94 0v148h-33q-96 0 -158.5 62t-62.5 153t62.5 153t158.5 62h33v235q47 10 94 0v-235zM303 336h-33q-56 0 -92 -38t-36 -98t36 -98t92 -38h33v272zM396 336v-272h33q56 0 92 38t36 98t-36 98
t-92 38h-33z" />
    <glyph glyph-name="uni0445" unicode="&#x445;" horiz-adv-x="496" 
d="M311 208l151 -208q-53 -11 -106 0l-110 147l-108 -147q-52 -11 -104 0l151 208l-143 192q54 11 106 0l103 -136l99 136q52 11 104 0z" />
    <glyph glyph-name="uni0446" unicode="&#x446;" horiz-adv-x="570" 
d="M535 79v-186q-45 -11 -91 0v107h-379v400q47 10 93 0v-322h206v322q46 10 93 0v-321h78z" />
    <glyph glyph-name="uni0447" unicode="&#x447;" horiz-adv-x="496" 
d="M337 228v172q47 10 94 0v-400q-47 -10 -94 0v152q-62 -52 -139 -52t-115 43t-38 110v147q47 10 93 0v-130q0 -89 90 -89q62 0 109 47z" />
    <glyph glyph-name="uni0448" unicode="&#x448;" horiz-adv-x="762" 
d="M604 79v321q47 10 93 0v-400h-632v400q47 10 93 0v-321h176v321q47 10 94 0v-321h176z" />
    <glyph glyph-name="uni0449" unicode="&#x449;" horiz-adv-x="810" 
d="M775 79v-183q-46 -10 -91 0v104h-619v400q47 10 93 0v-322l176 1v321q47 10 94 0v-322h176v322q47 10 93 0v-321h78z" />
    <glyph glyph-name="uni044A" unicode="&#x44a;" horiz-adv-x="524" 
d="M220 275h110q67 0 112 -35t45 -103q0 -69 -41 -103t-107 -34h-213v322h-87q-8 39 0 78h181v-125zM219 70h95q79 0 79 67q0 68 -79 68h-95v-135z" />
    <glyph glyph-name="uni044B" unicode="&#x44b;" horiz-adv-x="637" 
d="M158 275h111q67 0 111.5 -35t44.5 -103q0 -69 -40.5 -103t-106.5 -34h-213v400q47 10 93 0v-125zM479 0v400q47 10 93 0v-400q-46 -10 -93 0zM159 70h95q79 0 79 67q0 68 -79 68h-95v-135z" />
    <glyph glyph-name="uni044C" unicode="&#x44c;" horiz-adv-x="463" 
d="M158 275h111q67 0 111.5 -35t44.5 -103q0 -69 -40.5 -103t-106.5 -34h-213v400q47 10 93 0v-125zM159 70h95q79 0 79 67q0 68 -79 68h-95v-135z" />
    <glyph glyph-name="uni044D" unicode="&#x44d;" horiz-adv-x="481" 
d="M208 415q103 0 164 -60t61 -155t-61 -155t-164 -60q-82 0 -140 44q-5 11 -5.5 40t5.5 37q68 -43 131 -43q59 0 96 30t43 79l-168 1q-8 30 0 60h167q-8 47 -44.5 75.5t-93.5 28.5q-63 0 -131 -43q-6 8 -5.5 37t5.5 40q58 44 140 44z" />
    <glyph glyph-name="uni044E" unicode="&#x44e;" horiz-adv-x="715" 
d="M448 415q95 0 157 -62t62 -153t-62 -153t-157 -62q-83 0 -141.5 49.5t-71.5 126.5h-77v-161q-46 -10 -93 0v400q47 10 93 0v-158h77q14 75 72.5 124t140.5 49zM449 66q54 0 89.5 37.5t35.5 96.5t-35.5 96.5t-89.5 37.5t-89.5 -37.5t-35.5 -96.5t35.5 -96.5t89.5 -37.5z
" />
    <glyph glyph-name="uni044F" unicode="&#x44f;" horiz-adv-x="488" 
d="M422 400v-400q-47 -10 -93 0v143h-85l-107 -143q-51 -11 -103 0l116 155q-87 26 -87 113q0 66 39 99t104 33h216zM328 330h-98q-74 0 -74 -62q0 -61 74 -61h98v123z" />
    <glyph glyph-name="uni0451" unicode="&#x451;" horiz-adv-x="513" 
d="M140 608q25 0 43 -16.5t18 -41.5t-18 -41.5t-43 -16.5q-26 0 -44 16.5t-18 41.5t18 41.5t44 16.5zM380 608q25 0 43 -16.5t18 -41.5t-18 -41.5t-43 -16.5q-26 0 -44 16.5t-18 41.5t18 41.5t44 16.5zM263 415q71 0 119.5 -36.5t64.5 -88t5 -102.5h-309q3 -58 41.5 -91
t97.5 -33q67 0 135 43q6 -7 5.5 -37t-5.5 -41q-56 -44 -145 -44q-101 0 -162.5 59.5t-61.5 156.5q0 93 60 153.5t155 60.5zM264 344q-47 0 -78 -28.5t-38 -76.5h219q0 47 -28.5 76t-74.5 29z" />
    <glyph glyph-name="Wgrave" unicode="&#x1e80;" horiz-adv-x="1014" 
d="M481 899l113 -152q-5 -11 -20.5 -23.5t-28.5 -14.5l-126 142q4 12 26 29t36 19zM978 650l-224 -650q-43 -9 -86 0l-161 482l-162 -482q-43 -9 -86 0l-224 650q53 11 105 0l162 -498l162 498q43 9 85 0l162 -498l162 498q52 11 105 0z" />
    <glyph glyph-name="wgrave" unicode="&#x1e81;" horiz-adv-x="731" 
d="M340 649l113 -152q-5 -11 -20.5 -23.5t-28.5 -14.5l-126 142q4 12 26 29t36 19zM185 0l-151 400q50 10 99 0l92 -275l101 275q39 11 78 0l102 -275l91 275q50 10 99 0l-151 -400q-39 -10 -77 0l-103 281l-102 -281q-39 -10 -78 0z" />
    <glyph glyph-name="Wacute" unicode="&#x1e82;" horiz-adv-x="1014" 
d="M419 747l114 152q14 -2 35.5 -18.5t25.5 -29.5l-126 -142q-13 2 -28.5 14.5t-20.5 23.5zM978 650l-224 -650q-43 -9 -86 0l-161 482l-162 -482q-43 -9 -86 0l-224 650q53 11 105 0l162 -498l162 498q43 9 85 0l162 -498l162 498q52 11 105 0z" />
    <glyph glyph-name="wacute" unicode="&#x1e83;" horiz-adv-x="731" 
d="M278 497l114 152q14 -2 35.5 -18.5t25.5 -29.5l-126 -142q-13 2 -28.5 14.5t-20.5 23.5zM185 0l-151 400q50 10 99 0l92 -275l101 275q39 11 78 0l102 -275l91 275q50 10 99 0l-151 -400q-39 -10 -77 0l-103 281l-102 -281q-39 -10 -78 0z" />
    <glyph glyph-name="Wdieresis" unicode="&#x1e84;" horiz-adv-x="1014" 
d="M387 858q25 0 43 -16.5t18 -41.5t-18 -41.5t-43 -16.5q-26 0 -44 16.5t-18 41.5t18 41.5t44 16.5zM628 858q25 0 43 -16.5t18 -41.5t-18 -41.5t-43 -16.5q-26 0 -44 16.5t-18 41.5t18 41.5t44 16.5zM978 650l-224 -650q-43 -9 -86 0l-161 482l-162 -482q-43 -9 -86 0
l-224 650q53 11 105 0l162 -498l162 498q43 9 85 0l162 -498l162 498q52 11 105 0z" />
    <glyph glyph-name="wdieresis" unicode="&#x1e85;" horiz-adv-x="731" 
d="M246 608q25 0 43 -16.5t18 -41.5t-18 -41.5t-43 -16.5q-26 0 -44 16.5t-18 41.5t18 41.5t44 16.5zM487 608q25 0 43 -16.5t18 -41.5t-18 -41.5t-43 -16.5q-26 0 -44 16.5t-18 41.5t18 41.5t44 16.5zM185 0l-151 400q50 10 99 0l92 -275l101 275q39 11 78 0l102 -275
l91 275q50 10 99 0l-151 -400q-39 -10 -77 0l-103 281l-102 -281q-39 -10 -78 0z" />
    <glyph glyph-name="Ygrave" unicode="&#x1ef2;" horiz-adv-x="661" 
d="M305 899l113 -152q-5 -11 -20.5 -23.5t-28.5 -14.5l-126 142q4 12 26 29t36 19zM382 238v-238q-52 -11 -103 0v238l-244 412q55 11 110 0l186 -316l185 316q21 4 54.5 4t55.5 -4z" />
    <glyph glyph-name="ygrave" unicode="&#x1ef3;" 
d="M230 649l113 -152q-5 -11 -20.5 -23.5t-28.5 -14.5l-126 142q4 12 26 29t36 19zM256 134l121 266q49 10 99 0l-265 -563q-48 -10 -96 0l93 196l-174 367q50 10 98 0z" />
    <glyph glyph-name="endash" unicode="&#x2013;" horiz-adv-x="504" 
d="M43 305h418q11 -36 0 -72h-418q-9 36 0 72z" />
    <glyph glyph-name="emdash" unicode="&#x2014;" horiz-adv-x="616" 
d="M43 305h530q11 -36 0 -72h-530q-9 36 0 72z" />
    <glyph glyph-name="quoteleft" unicode="&#x2018;" horiz-adv-x="207" 
d="M159 650q-50 -50 -67 -131q12 2 15 2q25 0 42.5 -16.5t17.5 -41.5t-17.5 -41.5t-43.5 -16.5q-27 0 -46.5 18.5t-20.5 55.5q-2 45 21.5 99.5t45.5 71.5q26 7 53 0z" />
    <glyph glyph-name="quoteright" unicode="&#x2019;" horiz-adv-x="207" 
d="M101 665q26 0 46 -18.5t21 -55.5q1 -46 -22.5 -100.5t-45.5 -70.5q-26 -7 -53 0q26 25 44 63t23 67q-5 -1 -15 -1q-25 0 -42.5 16.5t-17.5 40.5q0 25 18 42t44 17z" />
    <glyph glyph-name="quotesinglbase" unicode="&#x201a;" horiz-adv-x="207" 
d="M101 101q26 0 46 -18.5t21 -55.5q1 -46 -22.5 -100.5t-45.5 -70.5q-26 -7 -53 0q26 26 44 63.5t23 67.5q-10 -2 -15 -2q-25 0 -42.5 16.5t-17.5 41.5t18 41.5t44 16.5z" />
    <glyph glyph-name="quotedblleft" unicode="&#x201c;" horiz-adv-x="374" 
d="M159 650q-50 -50 -67 -131q12 2 15 2q25 0 42.5 -16.5t17.5 -41.5t-17.5 -41.5t-43.5 -16.5q-27 0 -46.5 18.5t-20.5 55.5q-2 45 21.5 99.5t45.5 71.5q26 7 53 0zM326 650q-50 -50 -67 -131q12 2 15 2q25 0 42.5 -16.5t17.5 -41.5t-17.5 -41.5t-43.5 -16.5
q-27 0 -46.5 18.5t-20.5 55.5q-2 45 21.5 99.5t45.5 71.5q26 7 53 0z" />
    <glyph glyph-name="quotedblright" unicode="&#x201d;" horiz-adv-x="374" 
d="M101 665q26 0 46 -18.5t21 -55.5q1 -46 -22.5 -100.5t-45.5 -70.5q-26 -7 -53 0q26 25 44 63t23 67q-5 -1 -15 -1q-25 0 -42.5 16.5t-17.5 40.5q0 25 18 42t44 17zM268 665q26 0 46 -18.5t21 -55.5q1 -46 -22.5 -100.5t-45.5 -70.5q-26 -7 -53 0q26 25 44 63t23 67
q-5 -1 -15 -1q-25 0 -42.5 16.5t-17.5 40.5q0 25 18 42t44 17z" />
    <glyph glyph-name="quotedblbase" unicode="&#x201e;" horiz-adv-x="374" 
d="M101 101q26 0 46 -18.5t21 -55.5q1 -46 -22.5 -100.5t-45.5 -70.5q-26 -7 -53 0q26 26 44 63.5t23 67.5q-10 -2 -15 -2q-25 0 -42.5 16.5t-17.5 41.5t18 41.5t44 16.5zM268 101q26 0 46 -18.5t21 -55.5q1 -46 -22.5 -100.5t-45.5 -70.5q-26 -7 -53 0q26 26 44 63.5
t23 67.5q-10 -2 -15 -2q-25 0 -42.5 16.5t-17.5 41.5t18 41.5t44 16.5z" />
    <glyph glyph-name="dagger" unicode="&#x2020;" horiz-adv-x="468" 
d="M285 400h140q9 -43 0 -86h-140v-397q-50 -11 -102 0v397h-140q-9 43 0 86h140v250q52 11 102 0v-250z" />
    <glyph glyph-name="daggerdbl" unicode="&#x2021;" horiz-adv-x="468" 
d="M285 216h140q9 -43 0 -85h-140v-214q-50 -11 -102 0v214h-140q-9 42 0 85h140v141h-140q-9 43 0 85h140v208q52 11 102 0v-208h140q9 -42 0 -85h-140v-141z" />
    <glyph glyph-name="bullet" unicode="&#x2022;" horiz-adv-x="308" 
d="M154 402q48 0 82 -34t34 -82t-34 -82t-82 -34t-82 34t-34 82t34 82t82 34z" />
    <glyph glyph-name="ellipsis" unicode="&#x2026;" horiz-adv-x="605" 
d="M100 -15q-26 0 -44 16.5t-18 41.5t18 41.5t44 16.5q25 0 43 -16.5t18 -41.5t-18 -41.5t-43 -16.5zM303 -15q-26 0 -44 16.5t-18 41.5t18 41.5t44 16.5q25 0 43 -16.5t18 -41.5t-18 -41.5t-43 -16.5zM506 -15q-26 0 -44 16.5t-18 41.5t18 41.5t44 16.5q25 0 43 -16.5
t18 -41.5t-18 -41.5t-43 -16.5z" />
    <glyph glyph-name="perthousand" unicode="&#x2030;" horiz-adv-x="1083" 
d="M178 665q65 0 102.5 -46.5t37.5 -123.5t-37.5 -123.5t-102.5 -46.5q-64 0 -102 46.5t-38 123.5t38 123.5t102 46.5zM565 650l-308 -650q-31 -9 -62 0l308 650q31 9 62 0zM178 606q-32 0 -50.5 -27.5t-18.5 -83.5t18.5 -83.5t50.5 -27.5t50.5 27.5t18.5 83.5t-18.5 83.5
t-50.5 27.5zM580 325q65 0 102.5 -46.5t37.5 -123.5t-37.5 -123.5t-102.5 -46.5q-64 0 -102 46.5t-38 123.5t38 123.5t102 46.5zM904 325q65 0 102.5 -46.5t37.5 -123.5t-37.5 -123.5t-102.5 -46.5q-64 0 -102 46.5t-38 123.5t38 123.5t102 46.5zM580 266q-32 0 -50.5 -27.5
t-18.5 -83.5t18.5 -83.5t50.5 -27.5t50.5 27.5t18.5 83.5t-18.5 83.5t-50.5 27.5zM905 266q-32 0 -50.5 -27.5t-18.5 -83.5t18.5 -83.5t50.5 -27.5t50.5 27.5t18.5 83.5t-18.5 83.5t-50.5 27.5z" />
    <glyph glyph-name="guilsinglleft" unicode="&#x2039;" horiz-adv-x="274" 
d="M133 217l102 -156q-37 -8 -73 0l-124 156l124 156q37 8 73 0z" />
    <glyph glyph-name="guilsinglright" unicode="&#x203a;" horiz-adv-x="274" 
d="M235 217l-123 -156q-37 -8 -74 0l103 156l-103 156q37 8 74 0z" />
    <glyph glyph-name="fraction" unicode="&#x2044;" horiz-adv-x="446" 
d="M408 650l-308 -650q-31 -9 -62 0l308 650q31 9 62 0z" />
    <glyph glyph-name="Euro" unicode="&#x20ac;" horiz-adv-x="770" 
d="M482 71q108 0 204 66q6 -8 5.5 -46t-5.5 -49q-84 -57 -210 -57q-136 0 -229 74.5t-118 191.5h-86q-10 18 0 37h80q-2 24 -2 37t2 37h-80q-10 19 0 37h86q25 117 118 191.5t229 74.5q126 0 210 -57q5 -11 5.5 -49t-5.5 -46q-96 66 -204 66q-90 0 -157 -49.5t-89 -130.5
h268q11 -18 0 -37h-276q-3 -18 -3 -37t3 -37h236q11 -19 0 -37h-228q22 -81 89 -130.5t157 -49.5z" />
    <glyph glyph-name="uni2116" unicode="&#x2116;" horiz-adv-x="1170" 
d="M917 665q95 0 157 -62t62 -153t-62 -153t-157 -62q-94 0 -156 62t-62 153t62 153t156 62zM640 650v-650q-41 -9 -81 0l-377 479v-479q-50 -11 -102 0v650q41 8 82 0l376 -479v479q52 11 102 0zM917 584q-54 0 -89.5 -37.5t-35.5 -96.5t35.5 -96.5t89.5 -37.5t89.5 37.5
t35.5 96.5t-35.5 96.5t-89.5 37.5zM724 189h385q12 -42 0 -84h-385q-10 42 0 84z" />
    <glyph glyph-name="trademark" unicode="&#x2122;" horiz-adv-x="594" 
d="M498 648l58 -200q-26 -6 -51 0l-33 125l-52 -125q-20 -5 -41 0l-52 125l-33 -125q-25 -7 -50 0l58 200q20 5 41 0l57 -134l57 134q20 5 41 0zM41 650h204q6 -22 0 -45l-77 1v-158q-26 -7 -51 0v158h-76q-6 22 0 44z" />
    <glyph glyph-name="estimated" unicode="&#x212e;" horiz-adv-x="799" 
d="M399 665q150 0 246 -98.5t96 -241.5h-566v-213q88 -93 224 -93q80 0 145.5 29t108.5 76q6 -8 5.5 -23t-5.5 -26q-98 -90 -254 -90q-150 0 -246 98.5t-96 241.5t96 241.5t246 98.5zM400 631q-137 0 -225 -93v-182h449v182q-88 93 -224 93z" />
    <glyph glyph-name="oneeighth" unicode="&#x215b;" horiz-adv-x="688" 
d="M188 650v-310q-35 -9 -71 0v240l-74 -53q-5 6 -5 28.5t5 29.5l91 65q27 9 54 0zM498 650l-308 -650q-31 -9 -62 0l308 650q31 9 62 0zM524 325q53 0 84.5 -26t31.5 -63q0 -49 -45 -74q55 -22 55 -81q0 -43 -36 -69.5t-90 -26.5q-53 0 -89 26.5t-36 69.5q0 59 55 81
q-46 26 -46 74q0 37 32 63t84 26zM524 269q-24 0 -37 -12.5t-13 -30.5q0 -17 12.5 -29.5t33.5 -12.5h9q21 0 33.5 12.5t12.5 29.5q0 18 -13.5 30.5t-37.5 12.5zM528 139h-7q-27 0 -41.5 -14.5t-14.5 -34.5q0 -22 16.5 -35.5t43.5 -13.5q26 0 42.5 13.5t16.5 35.5
q0 21 -14 35t-42 14z" />
    <glyph glyph-name="threeeighths" unicode="&#x215c;" horiz-adv-x="732" 
d="M140 665q52 0 82.5 -26t30.5 -63q0 -49 -46 -74q55 -21 55 -81q0 -44 -33.5 -70t-86.5 -26q-63 0 -101 29q-2 6 -2.5 32t2.5 29q48 -35 93 -35q27 0 44.5 13t17.5 35q0 21 -15 34t-44 13h-38q-3 25 0 51h37q23 0 37 11.5t14 29.5t-15 30.5t-40 12.5q-40 0 -88 -35
q-3 3 -2.5 29t2.5 32q39 29 96 29zM542 650l-308 -650q-31 -9 -62 0l308 650q31 9 62 0zM567 325q53 0 84.5 -26t31.5 -63q0 -49 -45 -74q55 -21 55 -81q0 -43 -36 -69.5t-90 -26.5q-53 0 -89 26.5t-36 69.5q0 59 55 81q-46 26 -46 74q0 37 32 63t84 26zM568 269
q-24 0 -37 -12.5t-13 -30.5q0 -17 12.5 -29.5t33.5 -12.5h9q21 0 33.5 12.5t12.5 29.5q0 18 -13.5 30.5t-37.5 12.5zM571 139h-7q-28 0 -42 -14.5t-14 -34.5q0 -22 16.5 -35.5t43.5 -13.5q26 0 42.5 13.5t16.5 35.5q0 21 -14 35t-42 14z" />
    <glyph glyph-name="fiveeighths" unicode="&#x215d;" horiz-adv-x="727" 
d="M537 650l-308 -650q-31 -9 -62 0l308 650q31 9 62 0zM82 650h162q7 -28 -2 -59h-110l-10 -66q17 5 35 5q46 0 75.5 -27t29.5 -72q0 -48 -34.5 -77t-89.5 -29q-63 0 -98 28q-2 7 -2 32.5t2 29.5q44 -34 86 -34q30 0 47 14.5t17 37.5t-18 37.5t-53 14.5q-31 0 -64 -15z
M563 325q53 0 84.5 -26t31.5 -63q0 -49 -45 -74q55 -22 55 -81q0 -43 -36 -69.5t-90 -26.5q-53 0 -89 26.5t-36 69.5q0 59 55 81q-46 26 -46 74q0 37 32 63t84 26zM563 269q-24 0 -37 -12.5t-13 -30.5q0 -17 12.5 -29.5t33.5 -12.5h9q21 0 33.5 12.5t12.5 29.5
q0 18 -13.5 30.5t-37.5 12.5zM567 139h-7q-28 0 -42 -14.5t-14 -34.5q0 -22 16.5 -35.5t43.5 -13.5q26 0 42.5 13.5t16.5 35.5q0 21 -14 35t-42 14z" />
    <glyph glyph-name="seveneighths" unicode="&#x215e;" horiz-adv-x="677" 
d="M488 650l-308 -650q-31 -9 -62 0l308 650q31 9 62 0zM274 643l-145 -303q-36 -9 -72 0l121 251h-135q-9 29 0 59h231v-7zM513 325q53 0 84.5 -26t31.5 -63q0 -49 -45 -74q55 -22 55 -81q0 -43 -36 -69.5t-90 -26.5q-53 0 -89 26.5t-36 69.5q0 59 55 81q-46 26 -46 74
q0 37 32 63t84 26zM514 269q-24 0 -37 -12.5t-13 -30.5q0 -17 12.5 -29.5t33.5 -12.5h9q21 0 33.5 12.5t12.5 29.5q0 18 -13.5 30.5t-37.5 12.5zM517 139h-7q-28 0 -42 -14.5t-14 -34.5q0 -22 16.5 -35.5t43.5 -13.5q26 0 42.5 13.5t16.5 35.5q0 21 -14 35t-42 14z" />
    <glyph glyph-name="partialdiff" unicode="&#x2202;" horiz-adv-x="518" 
d="M108 650q157 -19 259 -128t102 -272v-30q0 -109 -58 -172t-152 -63q-92 0 -153 61t-61 155q0 88 52 148t139 60q78 0 135 -57q-23 84 -94.5 140t-168.5 73q-5 11 -5.5 44t5.5 41zM258 328q-52 0 -85.5 -35.5t-33.5 -94.5t35 -95.5t85 -36.5q52 0 85 34.5t33 101.5v30
q0 26 -3 44q-18 19 -50 35.5t-66 16.5z" />
    <glyph glyph-name="emptyset" unicode="&#x2205;" horiz-adv-x="533" 
d="M457 374l-28 -29q56 -61 56 -145q0 -91 -62 -153t-157 -62q-78 0 -135 44l-27 -29q-20 5 -27 26l27 28q-56 59 -56 146q0 91 62 153t156 62q80 0 137 -45l28 30q21 -5 26 -26zM142 200q0 -48 27 -81l173 190q-31 25 -75 25q-54 0 -89.5 -37.5t-35.5 -96.5zM267 66
q54 0 89.5 37.5t35.5 96.5q0 46 -26 80l-174 -190q32 -24 75 -24z" />
    <glyph glyph-name="product" unicode="&#x220f;" horiz-adv-x="701" 
d="M43 650h616q9 -43 0 -86h-68v-564q-50 -11 -102 0v564h-276v-564q-52 -11 -102 0v564h-68q-9 43 0 86z" />
    <glyph glyph-name="summation" unicode="&#x2211;" horiz-adv-x="496" 
d="M201 86h252q9 -43 0 -86h-415v10l222 315l-222 315v10h415q9 -43 0 -86h-252l159 -220q6 -7 6 -19.5t-6 -19.5z" />
    <glyph glyph-name="minus" unicode="&#x2212;" horiz-adv-x="430" 
d="M43 305h344q11 -36 0 -72h-344q-9 36 0 72z" />
    <glyph glyph-name="radical" unicode="&#x221a;" horiz-adv-x="732" 
d="M495 650h194q8 -40 0 -81h-131l-260 -569q-39 -10 -78 0l-182 400q50 10 98 0l123 -280z" />
    <glyph glyph-name="infinity" unicode="&#x221e;" horiz-adv-x="654" 
d="M460 422q64 0 110 -46t46 -110t-46 -110t-110 -46q-42 0 -77.5 21.5t-55.5 56.5q-20 -35 -55.5 -56.5t-77.5 -21.5q-64 0 -110 46t-46 110t46 110t110 46q42 0 77.5 -21t55.5 -56q20 35 55.5 56t77.5 21zM194 180q36 0 61 25.5t25 60.5q0 36 -25 61.5t-61 25.5
q-35 0 -60.5 -25.5t-25.5 -61.5q0 -35 25.5 -60.5t60.5 -25.5zM460 180q36 0 61 25t25 61t-25 61.5t-61 25.5q-35 0 -60.5 -25.5t-25.5 -61.5t25.5 -61t60.5 -25z" />
    <glyph glyph-name="integral" unicode="&#x222b;" horiz-adv-x="471" 
d="M426 640q6 -11 6 -42.5t-6 -39.5q-46 28 -79 28q-66 0 -66 -74v-627q0 -65 -38.5 -100t-96.5 -35t-103 25q-5 11 -5.5 42.5t5.5 39.5q46 -28 80 -28q65 0 65 74v627q0 65 39 100t97 35q57 0 102 -25z" />
    <glyph glyph-name="approxequal" unicode="&#x2248;" horiz-adv-x="468" 
d="M157 382q34 0 80 -24.5t75 -24.5q13 0 25.5 2.5t26.5 8.5t21.5 9.5t22.5 11.5t17 9q9 -30 0 -60q-2 -1 -22 -12t-29 -15t-27.5 -9t-35.5 -5q-34 0 -80 24.5t-75 24.5q-13 0 -25.5 -2.5t-26.5 -8.5t-21.5 -9.5t-22.5 -11.5t-17 -9q-8 31 0 60q2 1 22 12t29 15t27.5 9
t35.5 5zM157 247q34 0 80 -24.5t75 -24.5q13 0 25.5 2.5t26.5 8.5t21.5 9.5t22.5 11.5t17 9q9 -30 0 -60q-2 -1 -22 -12t-29 -15t-27.5 -9t-35.5 -5q-34 0 -80 24.5t-75 24.5q-13 0 -25.5 -2.5t-26.5 -8.5t-21.5 -9.5t-22.5 -11.5t-17 -9q-8 31 0 60q2 1 22 12t29 15t27.5 9
t35.5 5z" />
    <glyph glyph-name="notequal" unicode="&#x2260;" horiz-adv-x="430" 
d="M266 377h121q11 -34 0 -72h-140l-20 -75h160q11 -36 0 -72h-179l-18 -67q-8 -5 -22 -5t-22 5l17 67l-120 1q-9 35 0 71h139l20 76h-159q-9 36 0 71h178l18 68q8 5 22 5t22 -5z" />
    <glyph glyph-name="lessequal" unicode="&#x2264;" horiz-adv-x="443" 
d="M43 359l357 147q12 -40 0 -82l-228 -84l228 -83q12 -42 0 -82l-357 147q-11 19 0 37zM43 135h357q11 -36 0 -72h-357q-9 36 0 72z" />
    <glyph glyph-name="greaterequal" unicode="&#x2265;" horiz-adv-x="443" 
d="M43 506l357 -147q12 -18 0 -37l-357 -147q-10 40 0 82l229 83l-229 84q-10 42 0 82zM43 135h357q11 -36 0 -72h-357q-9 36 0 72z" />
    <glyph glyph-name="lozenge" unicode="&#x25ca;" horiz-adv-x="498" 
d="M249 226l-211 212l211 212l211 -212zM358 438l-109 110l-109 -110l109 -110z" />
    <glyph glyph-name="i.loclTRK" horiz-adv-x="226" 
d="M115 492q-26 0 -44 16.5t-18 41.5t18 41.5t44 16.5q25 0 43 -16.5t18 -41.5t-18 -41.5t-43 -16.5zM160 400v-400q-46 -10 -93 0v400q47 10 93 0z" />
    <glyph glyph-name="a.ss01" horiz-adv-x="538" 
d="M241 415q89 0 143 -68l7 53q40 9 81 0v-400q-40 -9 -81 0l-7 53q-54 -68 -143 -68q-87 0 -140 61.5t-53 153.5t53 153.5t140 61.5zM266 334q-56 0 -90 -37t-34 -97t34 -97t90 -37q65 0 113 53v162q-48 53 -113 53z" />
    <glyph glyph-name="aacute.ss01" horiz-adv-x="538" 
d="M188 497l114 152q14 -2 35.5 -18.5t25.5 -29.5l-126 -142q-13 2 -28.5 14.5t-20.5 23.5zM241 415q89 0 143 -68l7 53q40 9 81 0v-400q-40 -9 -81 0l-7 53q-54 -68 -143 -68q-87 0 -140 61.5t-53 153.5t53 153.5t140 61.5zM266 334q-56 0 -90 -37t-34 -97t34 -97t90 -37
q65 0 113 53v162q-48 53 -113 53z" />
    <glyph glyph-name="abreve.ss01" horiz-adv-x="538" 
d="M421 608q6 -8 5.5 -37.5t-5.5 -40.5q-56 -44 -145 -44q-87 0 -145 44q-5 11 -5.5 40.5t5.5 37.5q68 -43 145 -43t145 43zM241 415q89 0 143 -68l7 53q40 9 81 0v-400q-40 -9 -81 0l-7 53q-54 -68 -143 -68q-87 0 -140 61.5t-53 153.5t53 153.5t140 61.5zM266 334
q-56 0 -90 -37t-34 -97t34 -97t90 -37q65 0 113 53v162q-48 53 -113 53z" />
    <glyph glyph-name="acaron.ss01" horiz-adv-x="538" 
d="M276 541l100 101q12 -3 30 -20t22 -30l-132 -133q-8 -6 -20 -6t-20 6l-132 133q5 13 22.5 30t30.5 20zM241 415q89 0 143 -68l7 53q40 9 81 0v-400q-40 -9 -81 0l-7 53q-54 -68 -143 -68q-87 0 -140 61.5t-53 153.5t53 153.5t140 61.5zM266 334q-56 0 -90 -37t-34 -97
t34 -97t90 -37q65 0 113 53v162q-48 53 -113 53z" />
    <glyph glyph-name="acircumflex.ss01" horiz-adv-x="538" 
d="M296 639l132 -133q-4 -13 -22 -30t-30 -20l-100 101l-99 -101q-13 3 -30.5 20t-22.5 30l132 133q8 6 20 6t20 -6zM241 415q89 0 143 -68l7 53q40 9 81 0v-400q-40 -9 -81 0l-7 53q-54 -68 -143 -68q-87 0 -140 61.5t-53 153.5t53 153.5t140 61.5zM266 334q-56 0 -90 -37
t-34 -97t34 -97t90 -37q65 0 113 53v162q-48 53 -113 53z" />
    <glyph glyph-name="adieresis.ss01" horiz-adv-x="538" 
d="M157 608q25 0 43 -16.5t18 -41.5t-18 -41.5t-43 -16.5q-26 0 -44 16.5t-18 41.5t18 41.5t44 16.5zM397 608q25 0 43 -16.5t18 -41.5t-18 -41.5t-43 -16.5q-26 0 -44 16.5t-18 41.5t18 41.5t44 16.5zM241 415q89 0 143 -68l7 53q40 9 81 0v-400q-40 -9 -81 0l-7 53
q-54 -68 -143 -68q-87 0 -140 61.5t-53 153.5t53 153.5t140 61.5zM266 334q-56 0 -90 -37t-34 -97t34 -97t90 -37q65 0 113 53v162q-48 53 -113 53z" />
    <glyph glyph-name="agrave.ss01" horiz-adv-x="538" 
d="M250 649l113 -152q-5 -11 -20.5 -23.5t-28.5 -14.5l-126 142q4 12 26 29t36 19zM241 415q89 0 143 -68l7 53q40 9 81 0v-400q-40 -9 -81 0l-7 53q-54 -68 -143 -68q-87 0 -140 61.5t-53 153.5t53 153.5t140 61.5zM266 334q-56 0 -90 -37t-34 -97t34 -97t90 -37
q65 0 113 53v162q-48 53 -113 53z" />
    <glyph glyph-name="amacron.ss01" horiz-adv-x="538" 
d="M144 564h259q11 -36 0 -72l-259 1q-9 35 0 71zM241 415q89 0 143 -68l7 53q40 9 81 0v-400q-40 -9 -81 0l-7 53q-54 -68 -143 -68q-87 0 -140 61.5t-53 153.5t53 153.5t140 61.5zM266 334q-56 0 -90 -37t-34 -97t34 -97t90 -37q65 0 113 53v162q-48 53 -113 53z" />
    <glyph glyph-name="aogonek.ss01" horiz-adv-x="538" 
d="M498 -151q10 -30 0 -59q-17 -5 -41 -5q-44 0 -74 27t-30 71q0 65 69 113q-9 0 -31 4l-7 53q-54 -68 -143 -68q-87 0 -140 61.5t-53 153.5t53 153.5t140 61.5q89 0 143 -68l7 53q40 9 81 0v-400q-67 -40 -67 -95q0 -26 17.5 -43.5t47.5 -17.5q16 0 28 5zM379 119v162
q-48 53 -113 53q-56 0 -90 -37t-34 -97t34 -97t90 -37q65 0 113 53z" />
    <glyph glyph-name="aring.ss01" horiz-adv-x="538" 
d="M276 650q37 0 63.5 -26.5t26.5 -62.5q0 -38 -26 -64.5t-64 -26.5t-64.5 26.5t-26.5 64.5q0 36 26.5 62.5t64.5 26.5zM276 597q-16 0 -26.5 -10.5t-10.5 -25.5t10.5 -26.5t26.5 -11.5t26.5 11.5t10.5 26.5t-10.5 25.5t-26.5 10.5zM241 415q89 0 143 -68l7 53q40 9 81 0
v-400q-40 -9 -81 0l-7 53q-54 -68 -143 -68q-87 0 -140 61.5t-53 153.5t53 153.5t140 61.5zM266 334q-56 0 -90 -37t-34 -97t34 -97t90 -37q65 0 113 53v162q-48 53 -113 53z" />
    <glyph glyph-name="atilde.ss01" horiz-adv-x="538" 
d="M212 592q27 0 75 -22q27 -12 52 -12q28 0 86 30q11 -37 0 -72q-3 -1 -13 -6.5t-14 -7.5t-13 -6t-15 -5.5t-14.5 -3t-16.5 -1.5q-27 0 -75 22q-27 12 -52 12q-28 0 -86 -30q-9 36 0 72q3 1 13 6.5t14 7.5t13 6t15 5.5t14.5 3t16.5 1.5zM241 415q89 0 143 -68l7 53
q40 9 81 0v-400q-40 -9 -81 0l-7 53q-54 -68 -143 -68q-87 0 -140 61.5t-53 153.5t53 153.5t140 61.5zM266 334q-56 0 -90 -37t-34 -97t34 -97t90 -37q65 0 113 53v162q-48 53 -113 53z" />
    <glyph glyph-name="ae.ss01" horiz-adv-x="833" 
d="M593 415q105 0 156.5 -72.5t32.5 -154.5h-309q4 -58 42 -91t97 -33q68 0 136 43q6 -7 5.5 -37t-5.5 -41q-56 -44 -145 -44q-100 0 -154 65v-50q-30 -11 -58 0l-7 53q-54 -68 -143 -68q-87 0 -140 61.5t-53 153.5t53 153.5t140 61.5q89 0 143 -68l7 53q28 11 58 0v-50
q52 65 144 65zM595 344q-47 0 -78 -28.5t-38 -76.5h219q0 47 -28.5 76t-74.5 29zM266 334q-56 0 -90 -37t-34 -97t34 -97t90 -37q65 0 113 53v162q-48 53 -113 53z" />
    <glyph glyph-name="uni0430.ss01" horiz-adv-x="538" 
d="M241 415q89 0 143 -68l7 53q40 9 81 0v-400q-40 -9 -81 0l-7 53q-54 -68 -143 -68q-87 0 -140 61.5t-53 153.5t53 153.5t140 61.5zM266 334q-56 0 -90 -37t-34 -97t34 -97t90 -37q65 0 113 53v162q-48 53 -113 53z" />
    <glyph glyph-name="zero.tf" horiz-adv-x="600" 
d="M300 665q123 0 196 -93t73 -247t-73 -247t-196 -93q-124 0 -197 93t-73 247t73 247t197 93zM300 579q-76 0 -121 -63.5t-45 -190.5t45 -190.5t121 -63.5q75 0 120 64t45 190t-45 190t-120 64z" />
    <glyph glyph-name="one.tf" horiz-adv-x="600" 
d="M134 531l166 119q41 8 82 0v-650q-52 -11 -102 0v537l-146 -105q-6 8 -5.5 48t5.5 51z" />
    <glyph glyph-name="two.tf" horiz-adv-x="600" 
d="M247 86h264q10 -43 0 -86h-436v10q140 151 211 239.5t92 131.5t21 83q0 51 -33.5 83t-89.5 32q-84 0 -170 -70q-6 8 -5.5 47.5t5.5 51.5q66 57 177 57q104 0 162 -57t58 -139q0 -77 -54.5 -156.5t-201.5 -226.5z" />
    <glyph glyph-name="three.tf" horiz-adv-x="600" 
d="M278 665q101 0 160 -49.5t59 -125.5q0 -52 -26.5 -93t-71.5 -61q57 -19 87 -62.5t30 -100.5q0 -86 -65.5 -137.5t-165.5 -51.5q-55 0 -108 16t-87 41q-5 13 -5.5 52.5t5.5 47.5q95 -71 186 -71q59 0 97.5 30.5t38.5 84.5q0 46 -30.5 75.5t-90.5 29.5h-84q-9 40 0 81h82
q48 0 77 29t29 74q0 46 -32.5 75.5t-88.5 29.5q-84 0 -179 -70q-6 8 -5.5 47t5.5 52q75 57 183 57z" />
    <glyph glyph-name="four.tf" horiz-adv-x="600" 
d="M462 220h87q9 -43 0 -85h-87v-135q-52 -11 -102 0v135h-309q-9 43 0 85l329 430q41 8 82 0v-430zM360 505l-218 -285h218v285z" />
    <glyph glyph-name="five.tf" horiz-adv-x="600" 
d="M294 397q96 0 157 -55t61 -147q0 -95 -66.5 -153t-169.5 -58q-54 0 -106.5 16t-86.5 41q-5 13 -5.5 52.5t5.5 47.5q95 -71 186 -71q61 0 100 34.5t39 89.5q0 58 -42.5 91.5t-112.5 33.5q-61 0 -135 -35l53 366h308q9 -43 0 -86h-229l-27 -181q37 14 71 14z" />
    <glyph glyph-name="six.tf" horiz-adv-x="600" 
d="M335 416q89 -1 143 -61t54 -147q0 -94 -64.5 -158.5t-168.5 -64.5q-106 0 -170 66t-64 171q0 76 32.5 152t80.5 130.5t91 91.5t75 54q22 4 65.5 4t64.5 -4q-93 -66 -160.5 -131t-101.5 -143q53 40 123 40zM298 71q58 0 94 37.5t36 97.5q0 58 -35 94t-93 36
q-72 0 -123 -53q-8 -38 -8 -75q0 -61 35.5 -99t93.5 -38z" />
    <glyph glyph-name="seven.tf" horiz-adv-x="600" 
d="M534 640l-308 -640q-21 -4 -54.5 -4t-55.5 4l274 564h-309q-9 43 0 86h453v-10z" />
    <glyph glyph-name="eight.tf" horiz-adv-x="600" 
d="M300 665q97 0 154.5 -50t57.5 -125q0 -51 -27 -92.5t-72 -61.5q56 -20 87 -64.5t31 -100.5q0 -85 -65 -136t-166 -51q-102 0 -167 51t-65 136q0 56 31 100.5t87 64.5q-45 20 -72 61.5t-27 92.5q0 75 57.5 125t155.5 50zM300 579q-52 0 -82 -30.5t-30 -74.5
q0 -43 29.5 -73t73.5 -30h17q45 0 74 30t29 73q0 45 -30 75t-81 30zM308 290h-17q-54 0 -86.5 -31t-32.5 -78q0 -52 36 -81.5t92 -29.5q55 0 91 29.5t36 81.5q0 47 -32.5 78t-86.5 31z" />
    <glyph glyph-name="nine.tf" horiz-adv-x="600" 
d="M299 665q106 0 170 -66t64 -171q0 -76 -32.5 -152t-80.5 -130.5t-91 -91.5t-76 -54q-21 -4 -64.5 -4t-64.5 4q44 31 75.5 56t70.5 61t68.5 75.5t47.5 81.5q-53 -40 -123 -40q-90 1 -143.5 61t-53.5 147q0 94 64.5 158.5t168.5 64.5zM299 579q-57 0 -93 -37.5t-36 -97.5
q0 -58 34.5 -94t93.5 -36q72 0 123 53q8 38 8 75q0 61 -35.5 99t-94.5 38z" />
    <glyph glyph-name="zero.dnom" horiz-adv-x="357" 
d="M178 325q65 0 102.5 -46.5t37.5 -123.5t-37.5 -123.5t-102.5 -46.5q-64 0 -102 46.5t-38 123.5t38 123.5t102 46.5zM178 266q-32 0 -50.5 -27.5t-18.5 -83.5t18.5 -83.5t50.5 -27.5t50.5 27.5t18.5 83.5t-18.5 83.5t-50.5 27.5z" />
    <glyph glyph-name="one.dnom" horiz-adv-x="226" 
d="M43 245l91 65q27 9 54 0v-310q-35 -9 -71 0v240l-74 -53q-5 6 -5 28t5 30z" />
    <glyph glyph-name="two.dnom" horiz-adv-x="317" 
d="M150 59h124q9 -29 0 -59h-236v7q99 97 129 138.5t30 72.5q0 19 -15.5 33.5t-44.5 14.5q-40 0 -83 -35q-2 4 -2 32t2 34q35 28 94 28q57 0 88.5 -30t31.5 -71q0 -38 -25.5 -73t-92.5 -92z" />
    <glyph glyph-name="three.dnom" horiz-adv-x="301" 
d="M140 325q52 0 82.5 -26t30.5 -63q0 -49 -45 -74q54 -22 54 -81q0 -44 -33.5 -70t-86.5 -26q-63 0 -101 29q-2 6 -2.5 32t2.5 29q48 -35 93 -35q27 0 44.5 13t17.5 35q0 21 -15 34t-44 13h-38q-3 25 0 51h37q23 0 37 11.5t14 29.5t-15 30.5t-40 12.5q-40 0 -88 -35
q-3 3 -2.5 29t2.5 32q39 29 96 29z" />
    <glyph glyph-name="four.dnom" horiz-adv-x="336" 
d="M250 114h43q8 -27 0 -55h-43v-59q-36 -9 -71 0v59h-136q-8 27 0 55l153 196q27 9 54 0v-196zM179 225l-85 -111h85v111z" />
    <glyph glyph-name="five.dnom" horiz-adv-x="300" 
d="M157 190q46 0 75.5 -27t29.5 -72q0 -48 -34.5 -77t-89.5 -29q-63 0 -98 28q-2 7 -2 32.5t2 29.5q44 -34 86 -34q30 0 47 14.5t17 37.5t-18 37.5t-53 14.5q-31 0 -64 -15l27 180h162q7 -28 -2 -59h-110l-11 -66q18 5 36 5z" />
    <glyph glyph-name="six.dnom" horiz-adv-x="320" 
d="M178 194q49 0 76.5 -29t27.5 -74q0 -44 -34 -75t-87 -31q-56 0 -89.5 34.5t-33.5 87.5q0 63 45.5 124t80.5 79q10 2 42.5 2t42.5 -2q-95 -71 -122 -131q23 15 51 15zM161 39q23 0 38.5 14.5t15.5 37.5q0 25 -14.5 40t-37.5 15q-29 0 -54 -21q-2 -16 -2 -26
q0 -28 15.5 -44t38.5 -16z" />
    <glyph glyph-name="seven.dnom" horiz-adv-x="312" 
d="M274 303l-145 -303q-36 -9 -72 0l121 251h-135q-9 29 0 59h231v-7z" />
    <glyph glyph-name="eight.dnom" horiz-adv-x="327" 
d="M163 325q53 0 84.5 -26t31.5 -63q0 -49 -45 -74q55 -22 55 -81q0 -43 -36 -69.5t-90 -26.5q-53 0 -89 26.5t-36 69.5q0 59 55 81q-46 26 -46 74q0 37 32 63t84 26zM163 269q-24 0 -37 -12.5t-13 -30.5q0 -17 12.5 -29.5t33.5 -12.5h9q21 0 33.5 12.5t12.5 29.5
q0 18 -13.5 30.5t-37.5 12.5zM167 139h-7q-28 0 -42 -14.5t-14 -34.5q0 -22 16.5 -35.5t43.5 -13.5q26 0 42.5 13.5t16.5 35.5q0 21 -14 35t-42 14z" />
    <glyph glyph-name="nine.dnom" horiz-adv-x="320" 
d="M159 325q56 0 89.5 -35t33.5 -87q0 -62 -45.5 -123.5t-80.5 -79.5q-10 -2 -42 -2t-43 2q95 71 122 131q-24 -14 -51 -14q-49 0 -76.5 29t-27.5 73t34 75t87 31zM158 164q28 0 53 21q2 18 2 26q0 28 -15.5 44.5t-38.5 16.5q-22 0 -38 -15t-16 -38q0 -25 14.5 -40t38.5 -15
z" />
    <glyph glyph-name="zero.numr" horiz-adv-x="357" 
d="M178 665q65 0 102.5 -46.5t37.5 -123.5t-37.5 -123.5t-102.5 -46.5q-64 0 -102 46.5t-38 123.5t38 123.5t102 46.5zM178 606q-32 0 -50.5 -27.5t-18.5 -83.5t18.5 -83.5t50.5 -27.5t50.5 27.5t18.5 83.5t-18.5 83.5t-50.5 27.5z" />
    <glyph glyph-name="one.numr" horiz-adv-x="226" 
d="M43 585l91 65q27 9 54 0v-310q-35 -9 -71 0v240l-74 -53q-5 6 -5 28.5t5 29.5z" />
    <glyph glyph-name="two.numr" horiz-adv-x="317" 
d="M150 399h124q9 -29 0 -59h-236v7q99 97 129 138.5t30 72.5q0 19 -15.5 33.5t-44.5 14.5q-40 0 -83 -35q-2 4 -2 32t2 34q35 28 94 28q57 0 88.5 -30t31.5 -71q0 -38 -25.5 -73t-92.5 -92z" />
    <glyph glyph-name="three.numr" horiz-adv-x="301" 
d="M140 665q52 0 82.5 -26t30.5 -63q0 -49 -45 -74q54 -22 54 -81q0 -44 -33.5 -70t-86.5 -26q-63 0 -101 29q-2 6 -2.5 32t2.5 29q48 -35 93 -35q27 0 44.5 13t17.5 35q0 21 -15 34t-44 13h-38q-3 25 0 51h37q23 0 37 11.5t14 29.5t-15 30.5t-40 12.5q-40 0 -88 -35
q-3 3 -2.5 29t2.5 32q39 29 96 29z" />
    <glyph glyph-name="four.numr" horiz-adv-x="336" 
d="M250 454h43q8 -27 0 -55h-43v-59q-36 -9 -71 0v59h-136q-8 28 0 55l153 196q27 9 54 0v-196zM179 565l-85 -111h85v111z" />
    <glyph glyph-name="five.numr" horiz-adv-x="300" 
d="M157 530q46 0 75.5 -27t29.5 -72q0 -48 -34.5 -77t-89.5 -29q-63 0 -98 28q-2 7 -2 32.5t2 29.5q44 -34 86 -34q30 0 47 14.5t17 37.5t-18 37.5t-53 14.5q-31 0 -64 -15l27 180h162q7 -28 -2 -59h-110l-11 -66q18 5 36 5z" />
    <glyph glyph-name="six.numr" horiz-adv-x="320" 
d="M178 534q49 0 76.5 -29t27.5 -74q0 -44 -34 -75t-87 -31q-56 0 -89.5 34.5t-33.5 87.5q0 63 45.5 124t80.5 79q10 2 42 2t43 -2q-95 -71 -122 -131q23 15 51 15zM161 379q23 0 38.5 14.5t15.5 37.5q0 25 -14.5 40t-37.5 15q-29 0 -54 -21q-2 -16 -2 -26q0 -28 15.5 -44
t38.5 -16z" />
    <glyph glyph-name="seven.numr" horiz-adv-x="312" 
d="M274 643l-145 -303q-36 -9 -72 0l121 251h-135q-9 29 0 59h231v-7z" />
    <glyph glyph-name="eight.numr" horiz-adv-x="327" 
d="M163 665q53 0 84.5 -26t31.5 -63q0 -49 -45 -74q55 -22 55 -81q0 -43 -36 -69.5t-90 -26.5q-53 0 -89 26.5t-36 69.5q0 59 55 81q-46 26 -46 74q0 37 32 63t84 26zM163 609q-24 0 -37 -12.5t-13 -30.5q0 -17 12.5 -29.5t33.5 -12.5h9q21 0 33.5 12.5t12.5 29.5
q0 18 -13.5 30.5t-37.5 12.5zM167 479h-7q-28 0 -42 -14.5t-14 -34.5q0 -22 16.5 -35.5t43.5 -13.5q26 0 42.5 13.5t16.5 35.5q0 21 -14 35t-42 14z" />
    <glyph glyph-name="nine.numr" horiz-adv-x="320" 
d="M159 665q56 0 89.5 -35t33.5 -87q0 -63 -45.5 -124t-80.5 -79q-10 -3 -42.5 -3t-42.5 3q95 71 122 131q-22 -15 -51 -15q-49 0 -76.5 29t-27.5 74q0 44 34 75t87 31zM158 504q28 0 53 21q2 16 2 26q0 28 -15.5 44t-38.5 16q-22 0 -38 -14.5t-16 -37.5q0 -25 14.5 -40
t38.5 -15z" />
    <glyph glyph-name="ampersand.ss01" horiz-adv-x="637" 
d="M411 371h186q9 -41 0 -81h-95q13 -52 13 -117q0 -85 -69.5 -137t-170.5 -52q-102 0 -171 52t-69 137q0 57 30 100.5t87 62.5q-45 20 -71.5 61t-26.5 93q0 76 59 125.5t160 49.5q108 0 183 -57q5 -13 5.5 -52t-5.5 -47q-95 70 -179 70q-56 0 -88.5 -29.5t-32.5 -75.5
q0 -45 29.5 -74t76.5 -29h63q9 -41 0 -81h-65q-60 0 -90.5 -29.5t-30.5 -75.5q0 -54 38.5 -84.5t97.5 -30.5t97.5 30.5t38.5 84.5v186z" />
    </font>
</defs>
</svg>
