<?xml version="1.0" encoding="utf-8"?>
<!-- Generator: Adobe Illustrator 19.2.1, SVG Export Plug-In . SVG Version: 6.00 Build 0)  -->
<svg version="1.1" id="Capa_1" xmlns="http://www.w3.org/2000/svg" xmlns:xlink="http://www.w3.org/1999/xlink" x="0px" y="0px"
	 viewBox="0 0 511.6 511.6" style="enable-background:new 0 0 511.6 511.6;" xml:space="preserve">
<style type="text/css">
	.st0{fill:#03A99B;}
	.st1{fill:#C1C1C1;}
</style>
<g>
	<g>
		<path class="st0" d="M391.4,160.1c-36.2-36.2-84.4-56.2-135.6-56.2C150,103.9,63.9,190,63.9,295.7c0,105.8,86.1,191.8,191.8,191.8
			c51.2,0,99.4-20,135.6-56.2s56.2-84.4,56.2-135.6C447.6,244.5,427.7,196.3,391.4,160.1z M385.8,425.7
			c-34.7,34.7-80.9,53.8-130,53.8c-101.4,0-183.8-82.5-183.8-183.8c0-101.4,82.5-183.8,183.8-183.8c49.1,0,95.3,19.1,130,53.8
			c34.7,34.7,53.8,80.9,53.8,130C439.6,344.9,420.5,391,385.8,425.7z"/>
	</g>
</g>
<g>
	<g>
		<path class="st1" d="M255.8,143.9c-83.7,0-151.9,68.1-151.9,151.9c0,83.7,68.1,151.9,151.9,151.9s151.9-68.1,151.9-151.9
			C407.6,212,339.5,143.9,255.8,143.9z M255.8,439.6c-79.3,0-143.9-64.5-143.9-143.9c0-79.3,64.5-143.9,143.9-143.9
			s143.9,64.5,143.9,143.9C399.7,375.1,335.1,439.6,255.8,439.6z"/>
	</g>
</g>
<g>
	<g>
		<path class="st1" d="M301.8,220.8c-13.8-8.5-29.7-13-46-13c-48.5,0-87.9,39.4-87.9,87.9c0,16.3,4.5,32.3,13.1,46.1
			c0.8,1.2,2.1,1.9,3.4,1.9c0.7,0,1.4-0.2,2.1-0.6c1.9-1.2,2.5-3.6,1.3-5.5c-7.8-12.6-11.9-27.1-11.9-41.9
			c0-44.1,35.9-79.9,79.9-79.9c14.8,0,29.3,4.1,41.8,11.8c1.9,1.2,4.3,0.6,5.5-1.3C304.3,224.5,303.7,222,301.8,220.8z"/>
	</g>
</g>
<g>
	<g>
		<path class="st1" d="M330.7,249.7c-1.2-1.9-3.6-2.4-5.5-1.3c-1.9,1.2-2.5,3.6-1.3,5.5c7.8,12.6,11.8,27,11.8,41.9
			c0,44.1-35.9,79.9-79.9,79.9c-14.8,0-29.3-4.1-41.8-11.8c-1.9-1.1-4.3-0.6-5.5,1.3c-1.2,1.9-0.6,4.3,1.3,5.5
			c13.8,8.5,29.7,13,46,13c48.5,0,87.9-39.4,87.9-87.9C343.7,279.4,339.2,263.5,330.7,249.7z"/>
	</g>
</g>
<g>
	<g>
		<path class="st0" d="M443.6,315.7c-2.2,0-4,1.8-4,4c0,49.1-19.1,95.3-53.8,130c-34.7,34.7-80.9,53.8-130,53.8c0,0,0,0,0,0
			c0,0,0,0,0,0c-49.1,0-95.3-19.1-130-53.8c-34.7-34.7-53.8-80.9-53.8-130c0-2.2-1.8-4-4-4s-4,1.8-4,4c0,51.2,20,99.4,56.2,135.6
			c36.2,36.2,84.4,56.2,135.6,56.2h0c0,0,0,0,0,0c51.2,0,99.4-20,135.6-56.2c36.2-36.2,56.2-84.4,56.2-135.6
			C447.6,317.5,445.8,315.7,443.6,315.7z"/>
	</g>
</g>
<g>
	<g>
		<path class="st0" d="M443.6,291.7c-2.2,0-4,1.8-4,4v24c0,2.2,1.8,4,4,4s4-1.8,4-4v-24C447.6,293.5,445.8,291.7,443.6,291.7z"/>
	</g>
</g>
<g>
	<g>
		<path class="st0" d="M247.8,83.9c0-2.2-1.8-4-4-4s-4,1.8-4,4l0,16c0,2.2,1.8,4,4,4s4-1.8,4-4L247.8,83.9z"/>
	</g>
</g>
<g>
	<g>
		<path class="st0" d="M267.8,79.9c-2.2,0-4,1.8-4,4l0,16c0,2.2,1.8,4,4,4c2.2,0,4-1.8,4-4l0-16C271.8,81.7,270,79.9,267.8,79.9z"/>
	</g>
</g>
<g>
	<g>
		<path class="st0" d="M255.8,68.1c-8.8,0-16,7.2-16,16c0,2.2,1.8,4,4,4s4-1.8,4-4c0-4.4,3.6-8,8-8s8,3.6,8,8c0,2.2,1.8,4,4,4
			c2.2,0,4-1.8,4-4C271.8,75.2,264.6,68.1,255.8,68.1z"/>
	</g>
</g>
<g>
	<g>
		<path class="st0" d="M255.8,0c-26.4,0-48,21.5-48,48c0,14.4,6.4,27.9,17.5,37c0.8,0.6,1.6,0.9,2.5,0.9c1.1,0,2.3-0.5,3.1-1.5
			c1.4-1.7,1.2-4.2-0.5-5.6c-9.3-7.6-14.6-18.9-14.6-30.8c0-22,17.9-40,40-40s40,17.9,40,40c0,11.6-5,22.6-13.8,30.2
			c-1.7,1.4-1.8,4-0.4,5.6c1.4,1.7,4,1.8,5.6,0.4c10.6-9.1,16.6-22.3,16.6-36.3C303.7,21.5,282.2,0,255.8,0z"/>
	</g>
</g>
<g>
	<g>
		<path class="st0" d="M71.9,295.7c0-2.2-1.8-4-4-4s-4,1.8-4,4l0,24c0,2.2,1.8,4,4,4s4-1.8,4-4L71.9,295.7z"/>
	</g>
</g>
<g>
	<g>
		<path class="st1" d="M255.8,127.9c-92.5,0-167.8,75.3-167.9,167.9c0,92.6,75.3,167.9,167.9,167.9c44.8,0,87-17.5,118.7-49.2
			s49.2-73.9,49.2-118.7C423.6,203.2,348.3,127.9,255.8,127.9z M368.8,408.8c-30.2,30.2-70.3,46.8-113,46.8
			c-88.2,0-159.9-71.7-159.9-159.9c0-88.1,71.7-159.9,159.9-159.9c88.1,0,159.9,71.7,159.9,159.9C415.6,338.4,399,378.6,368.8,408.8
			z"/>
	</g>
</g>
<g>
	<g>
		<g>
			<path class="st0" d="M255.8,127.9c-2.2,0-4,1.8-4,4v24c0,2.2,1.8,4,4,4c2.2,0,4-1.8,4-4v-24C259.8,129.7,258,127.9,255.8,127.9z"
				/>
		</g>
	</g>
	<g>
		<g>
			<path class="st0" d="M255.8,431.6c-2.2,0-4,1.8-4,4v24c0,2.2,1.8,4,4,4c2.2,0,4-1.8,4-4v-24C259.8,433.4,258,431.6,255.8,431.6z"
				/>
		</g>
	</g>
	<g>
		<g>
			<path class="st0" d="M189.3,172.6l-12-20.8c-1.1-1.9-3.5-2.6-5.5-1.5c-1.9,1.1-2.6,3.5-1.5,5.5l12,20.8c0.7,1.3,2.1,2,3.5,2
				c0.7,0,1.4-0.2,2-0.5C189.7,177,190.4,174.5,189.3,172.6z"/>
		</g>
	</g>
	<g>
		<g>
			<path class="st0" d="M341.2,435.6l-12-20.8c-1.1-1.9-3.5-2.6-5.5-1.5c-1.9,1.1-2.6,3.5-1.5,5.4l12,20.8c0.7,1.3,2.1,2,3.5,2
				c0.7,0,1.4-0.2,2-0.5C341.6,440,342.3,437.6,341.2,435.6z"/>
		</g>
	</g>
	<g>
		<g>
			<path class="st0" d="M136.6,222.3l-20.8-12c-1.9-1.1-4.4-0.4-5.5,1.5c-1.1,1.9-0.5,4.4,1.5,5.5l20.8,12c0.6,0.4,1.3,0.5,2,0.5
				c1.4,0,2.7-0.7,3.5-2C139.2,225.9,138.6,223.4,136.6,222.3z"/>
		</g>
	</g>
	<g>
		<g>
			<path class="st0" d="M399.7,374.2l-20.8-12c-1.9-1.1-4.4-0.5-5.5,1.5c-1.1,1.9-0.5,4.4,1.5,5.4l20.8,12c0.6,0.4,1.3,0.5,2,0.5
				c1.4,0,2.7-0.7,3.5-2C402.3,377.8,401.6,375.3,399.7,374.2z"/>
		</g>
	</g>
	<g>
		<g>
			<path class="st0" d="M115.9,291.7h-24c-2.2,0-4,1.8-4,4c0,2.2,1.8,4,4,4h24c2.2,0,4-1.8,4-4C119.9,293.5,118.1,291.7,115.9,291.7
				z"/>
		</g>
	</g>
	<g>
		<g>
			<path class="st0" d="M419.7,291.7h-24c-2.2,0-4,1.8-4,4c0,2.2,1.8,4,4,4h24c2.2,0,4-1.8,4-4C423.6,293.5,421.9,291.7,419.7,291.7
				z"/>
		</g>
	</g>
	<g>
		<g>
			<path class="st0" d="M138.1,363.7c-1.1-1.9-3.6-2.6-5.5-1.5l-20.8,12c-1.9,1.1-2.6,3.5-1.5,5.4c0.7,1.3,2.1,2,3.5,2
				c0.7,0,1.4-0.2,2-0.5l20.8-12C138.6,368,139.2,365.6,138.1,363.7z"/>
		</g>
	</g>
	<g>
		<g>
			<path class="st0" d="M401.2,211.8c-1.1-1.9-3.6-2.6-5.5-1.5l-20.8,12c-1.9,1.1-2.6,3.5-1.5,5.5c0.7,1.3,2.1,2,3.5,2
				c0.7,0,1.4-0.2,2-0.5l20.8-12C401.6,216.2,402.3,213.7,401.2,211.8z"/>
		</g>
	</g>
	<g>
		<g>
			<path class="st0" d="M187.8,413.4c-1.9-1.1-4.4-0.5-5.5,1.5l-12,20.8c-1.1,1.9-0.5,4.4,1.5,5.5c0.6,0.4,1.3,0.5,2,0.5
				c1.4,0,2.7-0.7,3.5-2l12-20.8C190.4,417,189.8,414.5,187.8,413.4z"/>
		</g>
	</g>
	<g>
		<g>
			<path class="st0" d="M339.7,150.4c-1.9-1.1-4.4-0.5-5.5,1.5l-12,20.8c-1.1,1.9-0.5,4.4,1.5,5.5c0.6,0.4,1.3,0.5,2,0.5
				c1.4,0,2.7-0.7,3.5-2l12-20.8C342.3,153.9,341.6,151.5,339.7,150.4z"/>
		</g>
	</g>
	<g>
		<g>
			<path class="st0" d="M221.4,151.9l-4.1-15.4c-0.6-2.1-2.8-3.3-4.9-2.8c-2.1,0.6-3.4,2.8-2.8,4.9l4.1,15.4c0.5,1.8,2.1,3,3.9,3
				c0.3,0,0.7,0,1-0.1C220.7,156.2,221.9,154,221.4,151.9z"/>
		</g>
	</g>
	<g>
		<g>
			<path class="st0" d="M302,453l-4.1-15.4c-0.6-2.1-2.7-3.4-4.9-2.8c-2.1,0.6-3.4,2.8-2.8,4.9l4.1,15.4c0.5,1.8,2.1,3,3.9,3
				c0.3,0,0.7,0,1-0.1C301.4,457.3,302.6,455.1,302,453z"/>
		</g>
	</g>
	<g>
		<g>
			<path class="st0" d="M154,188.4L142.7,177c-1.6-1.6-4.1-1.6-5.7,0c-1.6,1.6-1.6,4.1,0,5.7l11.3,11.3c0.8,0.8,1.8,1.2,2.8,1.2
				s2-0.4,2.8-1.2C155.6,192.4,155.6,189.9,154,188.4z"/>
		</g>
	</g>
	<g>
		<g>
			<path class="st0" d="M374.5,408.8l-11.3-11.3c-1.6-1.6-4.1-1.6-5.7,0c-1.6,1.6-1.6,4.1,0,5.7l11.3,11.3c0.8,0.8,1.8,1.2,2.8,1.2
				c1,0,2-0.4,2.8-1.2C376,412.9,376,410.3,374.5,408.8z"/>
		</g>
	</g>
	<g>
		<g>
			<path class="st0" d="M114,253.6l-15.5-4.2c-2.1-0.6-4.3,0.7-4.9,2.8c-0.6,2.1,0.7,4.3,2.8,4.9l15.5,4.2c0.4,0.1,0.7,0.1,1,0.1
				c1.8,0,3.4-1.2,3.9-3C117.4,256.4,116.1,254.2,114,253.6z"/>
		</g>
	</g>
	<g>
		<g>
			<path class="st0" d="M415.1,334.3l-15.4-4.1c-2.1-0.5-4.3,0.7-4.9,2.8c-0.6,2.1,0.7,4.3,2.8,4.9L413,342c0.3,0.1,0.7,0.1,1,0.1
				c1.8,0,3.4-1.2,3.9-3C418.5,337,417.2,334.9,415.1,334.3z"/>
		</g>
	</g>
	<g>
		<g>
			<path class="st0" d="M116.8,333c-0.6-2.1-2.7-3.4-4.9-2.8l-15.4,4.1c-2.1,0.6-3.4,2.8-2.8,4.9c0.5,1.8,2.1,3,3.9,3
				c0.3,0,0.7,0,1-0.1l15.4-4.1C116.1,337.3,117.4,335.1,116.8,333z"/>
		</g>
	</g>
	<g>
		<g>
			<path class="st0" d="M417.9,252.3c-0.6-2.1-2.7-3.3-4.9-2.8l-15.4,4.1c-2.1,0.6-3.4,2.8-2.8,4.9c0.5,1.8,2.1,3,3.9,3
				c0.3,0,0.7,0,1-0.1l15.4-4.1C417.2,256.6,418.5,254.4,417.9,252.3z"/>
		</g>
	</g>
	<g>
		<g>
			<path class="st0" d="M154.1,397.5c-1.6-1.6-4.1-1.6-5.7,0l-11.3,11.3c-1.6,1.5-1.6,4.1,0,5.7c0.8,0.8,1.8,1.2,2.8,1.2
				c1,0,2-0.4,2.8-1.2l11.3-11.3C155.6,401.6,155.6,399,154.1,397.5z"/>
		</g>
	</g>
	<g>
		<g>
			<path class="st0" d="M374.5,177c-1.6-1.6-4.1-1.6-5.7,0l-11.3,11.3c-1.6,1.6-1.6,4.1,0,5.7c0.8,0.8,1.8,1.2,2.8,1.2
				c1,0,2-0.4,2.8-1.2l11.3-11.3C376,181.1,376,178.6,374.5,177z"/>
		</g>
	</g>
	<g>
		<g>
			<path class="st0" d="M218.5,434.7c-2.2-0.5-4.3,0.7-4.9,2.8l-4.1,15.4c-0.6,2.1,0.7,4.3,2.8,4.9c0.3,0.1,0.7,0.1,1,0.1
				c1.8,0,3.4-1.2,3.9-3l4.1-15.4C221.9,437.5,220.7,435.3,218.5,434.7z"/>
		</g>
	</g>
	<g>
		<g>
			<path class="st0" d="M299.2,133.6c-2.1-0.5-4.3,0.7-4.9,2.8l-4.1,15.4c-0.6,2.1,0.7,4.3,2.8,4.9c0.3,0.1,0.7,0.1,1,0.1
				c1.8,0,3.4-1.2,3.9-3l4.1-15.4C302.6,136.3,301.3,134.2,299.2,133.6z"/>
		</g>
	</g>
</g>
<g>
	<g>
		<path class="st1" d="M211.5,291.7h-17.9c-2.2,0-4,1.8-4,4c0,2.2,1.8,4,4,4h17.9c2.2,0,4-1.8,4-4
			C215.5,293.5,213.7,291.7,211.5,291.7z"/>
	</g>
</g>
<g>
	<g>
		<path class="st1" d="M317.9,291.7H300c-2.2,0-4,1.8-4,4c0,2.2,1.8,4,4,4h17.9c2.2,0,4-1.8,4-4
			C321.9,293.5,320.2,291.7,317.9,291.7z"/>
	</g>
</g>
<g>
	<g>
		<path class="st1" d="M255.8,336c-2.2,0-4,1.8-4,4l0,17.9c0,2.2,1.8,4,4,4c2.2,0,4-1.8,4-4l0-17.9C259.8,337.8,258,336,255.8,336z"
			/>
	</g>
</g>
<g>
	<g>
		<path class="st1" d="M255.8,229.6c-2.2,0-4,1.8-4,4v17.9c0,2.2,1.8,4,4,4c2.2,0,4-1.8,4-4v-17.9
			C259.8,231.4,258,229.6,255.8,229.6z"/>
	</g>
</g>
<g>
	<g>
		<path class="st1" d="M302.5,336.9l-12.7-12.7c-1.6-1.6-4.1-1.6-5.7,0c-1.6,1.6-1.6,4.1,0,5.7l12.7,12.7c0.8,0.8,1.8,1.2,2.8,1.2
			c1,0,2-0.4,2.8-1.2C304.1,341,304.1,338.5,302.5,336.9z"/>
	</g>
</g>
<g>
	<g>
		<path class="st1" d="M227.3,261.6L214.6,249c-1.6-1.6-4.1-1.6-5.7,0c-1.6,1.6-1.6,4.1,0,5.7l12.7,12.7c0.8,0.8,1.8,1.2,2.8,1.2
			s2-0.4,2.8-1.2C228.9,265.7,228.9,263.2,227.3,261.6z"/>
	</g>
</g>
<g>
	<g>
		<path class="st1" d="M255.8,283.8c-6.6,0-12,5.4-12,12s5.4,12,12,12c6.6,0,12-5.4,12-12C267.8,289.1,262.4,283.8,255.8,283.8z
			 M255.8,299.7L255.8,299.7c-2.2,0-4-1.8-4-4s1.8-4,4-4c2.2,0,4,1.8,4,4S258,299.7,255.8,299.7z"/>
	</g>
</g>
<g>
	<g>
		<path class="st0" d="M346.3,205.7c-1.3-1.8-3.8-2.2-5.6-0.9L239.3,278c-1.8,1.3-2.2,3.8-0.9,5.6c0.8,1.1,2,1.7,3.2,1.7
			c0.8,0,1.6-0.2,2.3-0.7l101.5-73.2C347.2,210,347.6,207.5,346.3,205.7z"/>
	</g>
</g>
<g>
	<g>
		<path class="st0" d="M345.4,204.8c-1.8-1.3-4.3-0.9-5.6,0.9l-73.2,101.5c-1.3,1.8-0.9,4.3,0.9,5.6c0.7,0.5,1.5,0.8,2.3,0.8
			c1.2,0,2.5-0.6,3.2-1.7l73.2-101.5C347.6,208.6,347.2,206.1,345.4,204.8z"/>
	</g>
</g>
<g>
	<g>
		<path class="st0" d="M272.9,307.4c-1.3-1.8-3.8-2.2-5.6-0.9l-101.2,73c-1.8,1.3-2.2,3.8-0.9,5.6c0.8,1.1,2,1.7,3.2,1.7
			c0.8,0,1.6-0.3,2.3-0.8l101.2-73C273.8,311.6,274.2,309.1,272.9,307.4z"/>
	</g>
</g>
<g>
	<g>
		<path class="st0" d="M243.8,278.2c-1.8-1.3-4.3-0.9-5.6,0.9l-73,101.2c-1.3,1.8-0.9,4.3,0.9,5.6c0.7,0.5,1.5,0.8,2.3,0.8
			c1.2,0,2.5-0.6,3.2-1.7l73-101.2C246,282,245.6,279.5,243.8,278.2z"/>
	</g>
</g>
<g>
	<g>
		<path class="st0" d="M267.8,391.7h-16c-2.2,0-4,1.8-4,4c0,2.2,1.8,4,4,4h16c2.2,0,4-1.8,4-4C271.8,393.4,270,391.7,267.8,391.7z"
			/>
	</g>
</g>
<g>
	<g>
		<path class="st0" d="M271.1,417.4l-16.6-24c-1.3-1.8-3.8-2.2-5.6-1c-1.8,1.3-2.3,3.7-1,5.6l16.6,24c0.8,1.1,2,1.7,3.3,1.7
			c0.8,0,1.6-0.2,2.3-0.7C271.9,421.7,272.3,419.2,271.1,417.4z"/>
	</g>
</g>
<g>
	<g>
		<path class="st0" d="M267.8,415.6h-16c-2.2,0-4,1.8-4,4c0,2.2,1.8,4,4,4h16c2.2,0,4-1.8,4-4C271.8,417.4,270,415.6,267.8,415.6z"
			/>
	</g>
</g>
<g>
	<g>
		<path class="st0" d="M141.8,306.8l-6-24c-0.5-2.2-2.8-3.5-4.8-2.9c-2.1,0.5-3.4,2.7-2.9,4.9l6,24c0.5,1.8,2.1,3,3.9,3
			c0.3,0,0.6,0,1-0.1C141,311.1,142.3,308.9,141.8,306.8z"/>
	</g>
</g>
<g>
	<g>
		<path class="st0" d="M145.3,288c-2.1-0.8-4.4,0.3-5.1,2.3l-6,16c-0.8,2.1,0.3,4.4,2.3,5.1c0.5,0.2,0.9,0.3,1.4,0.3
			c1.6,0,3.1-1,3.7-2.6l6-16C148.4,291.1,147.3,288.8,145.3,288z"/>
	</g>
</g>
<g>
	<g>
		<path class="st0" d="M153.6,306.3l-6-16c-0.8-2.1-3.1-3.1-5.1-2.3c-2.1,0.8-3.1,3.1-2.3,5.2l6,16c0.6,1.6,2.1,2.6,3.7,2.6
			c0.5,0,0.9-0.1,1.4-0.3C153.3,310.7,154.4,308.4,153.6,306.3z"/>
	</g>
</g>
<g>
	<g>
		<path class="st0" d="M156.8,279.9c-2.2-0.5-4.3,0.8-4.8,2.9l-6,24c-0.5,2.1,0.8,4.3,2.9,4.9c0.3,0.1,0.6,0.1,1,0.1
			c1.8,0,3.4-1.2,3.9-3l6-24C160.3,282.6,159,280.4,156.8,279.9z"/>
	</g>
</g>
<g>
	<g>
		<path class="st0" d="M355.7,279.8c-2.2,0-4,1.8-4,4v24c0,2.2,1.8,4,4,4s4-1.8,4-4v-24C359.7,281.5,357.9,279.8,355.7,279.8z"/>
	</g>
</g>
<g>
	<g>
		<path class="st0" d="M371.7,279.8h-16c-2.2,0-4,1.8-4,4c0,2.2,1.8,4,4,4h16c2.2,0,4-1.8,4-4C375.7,281.5,373.9,279.8,371.7,279.8z
			"/>
	</g>
</g>
<g>
	<g>
		<path class="st0" d="M371.7,303.7h-16c-2.2,0-4,1.8-4,4c0,2.2,1.8,4,4,4h16c2.2,0,4-1.8,4-4C375.7,305.5,373.9,303.7,371.7,303.7z
			"/>
	</g>
</g>
<g>
	<g>
		<path class="st0" d="M363.7,291.7h-7.5c-2.2,0-4,1.8-4,4c0,2.2,1.8,4,4,4h7.5c2.2,0,4-1.8,4-4
			C367.7,293.5,365.9,291.7,363.7,291.7z"/>
	</g>
</g>
<g>
	<g>
		<path class="st0" d="M247.8,167.9c-2.2,0-4,1.8-4,4v23.9c0,2.2,1.8,4,4,4c2.2,0,4-1.8,4-4v-23.9
			C251.8,169.7,250,167.9,247.8,167.9z"/>
	</g>
</g>
<g>
	<g>
		<path class="st0" d="M267.1,193.6l-16-23.9c-1.2-1.8-3.7-2.3-5.5-1.1c-1.8,1.2-2.3,3.7-1.1,5.5l16,23.9c0.8,1.2,2,1.8,3.3,1.8
			c0.8,0,1.5-0.2,2.2-0.7C267.8,197.9,268.3,195.4,267.1,193.6z"/>
	</g>
</g>
<g>
	<g>
		<path class="st0" d="M263.8,167.2c-2.2,0-4,1.8-4,4v24.6c0,2.2,1.8,4,4,4s4-1.8,4-4v-24.6C267.8,169,266,167.2,263.8,167.2z"/>
	</g>
</g>
</svg>
