<?xml version="1.0" encoding="utf-8"?>
<!-- Generator: Adobe Illustrator 19.2.1, SVG Export Plug-In . SVG Version: 6.00 Build 0)  -->
<svg version="1.1" id="Capa_1" xmlns="http://www.w3.org/2000/svg" xmlns:xlink="http://www.w3.org/1999/xlink" x="0px" y="0px"
	 viewBox="0 0 511.9 511.9" style="enable-background:new 0 0 511.9 511.9;" xml:space="preserve">
<style type="text/css">
	.st0{fill:#03A99B;}
	.st1{fill:#C1C1C1;}
</style>
<g>
	<path class="st0" d="M172,315.8c-6,0-11.6-2.3-15.8-6.6l-72.5-72.5c-8.7-8.7-8.7-22.9,0-31.7l72.5-72.5c8.7-8.7,22.9-8.7,31.7,0
		l72.5,72.5c8.7,8.7,8.7,22.9,0,31.7l-72.5,72.5C183.6,313.5,177.9,315.8,172,315.8z M172,134.1c-3.7,0-7.4,1.4-10.2,4.2l-72.5,72.5
		c-5.6,5.6-5.6,14.7,0,20.3l72.5,72.5c5.6,5.6,14.7,5.6,20.3,0l72.5-72.5c5.6-5.6,5.6-14.7,0-20.3l-72.5-72.5
		C179.3,135.5,175.6,134.1,172,134.1z"/>
</g>
<g>
	<path class="st1" d="M143.3,276.6c-2.2,0-4-1.8-4-4s1.8-4,4-4c4.5,0,8.2-3.7,8.2-8.2v-24c0-4.5-3.7-8.2-8.2-8.2h-24
		c-4.5,0-8.2,3.7-8.2,8.2c0,2.2-1.8,4-4,4s-4-1.8-4-4c0-8.9,7.2-16.2,16.2-16.2h24c8.9,0,16.2,7.2,16.2,16.2v24
		C159.5,269.3,152.2,276.6,143.3,276.6z"/>
</g>
<path class="st0" d="M214.8,186.5h-90.2c-2.2,0-4,1.8-4,4s1.8,4,4,4h90.2c3.6,0,6.6,3,6.6,6.6v19.9c0,3.6-3,6.6-6.6,6.6h-31.1v-22.8
	c0-2.2-1.8-4-4-4s-4,1.8-4,4v84c0,2.2,1.8,4,4,4s4-1.8,4-4v-53.1h31.1c8.1,0,14.6-6.5,14.6-14.6v-19.9
	C229.4,193,222.9,186.5,214.8,186.5z"/>
<g>
	<path class="st0" d="M179.7,181.3c-2.2,0-4-1.8-4-4v-24.9c0-2.2,1.8-4,4-4s4,1.8,4,4v24.9C183.7,179.5,181.9,181.3,179.7,181.3z"/>
</g>
<g>
	<g>
		<path class="st0" d="M461.9,229.4c-16.8-16.9-39-25.4-66-25.4h-48c-2.2,0-4,1.8-4,4v128c0,2.2,1.8,4,4,4h56c27.6,0,28,34.5,28,36
			c0,2.2,1.8,4,4,4h48c2.2,0,4-1.8,4-4v-46.3l6.8-6.8c0.8-0.8,1.2-1.8,1.2-2.8C495.9,317.6,495.6,263.1,461.9,229.4z M481.1,325.1
			c-0.8,0.8-1.2,1.8-1.2,2.8v44h-40.1c-1.2-15.7-9.7-40-35.8-40h-52v-120h44c38,0,65,17.9,80.3,53.3c10,23.2,11.5,46.7,11.7,53
			L481.1,325.1z"/>
	</g>
</g>
<g>
	<g>
		<path class="st0" d="M499.9,323.9c-2.2,0-4,1.8-4,4v16c0,2.2,1.8,4,4,4s4-1.8,4-4v-16C503.9,325.7,502.1,323.9,499.9,323.9z"/>
	</g>
</g>
<g>
	<g>
		<path class="st0" d="M507.9,347.9H492c-2.2,0-4,1.8-4,4c0,2.2,1.8,4,4,4h15.9c2.2,0,4-1.8,4-4
			C511.9,349.7,510.1,347.9,507.9,347.9z"/>
	</g>
</g>
<g>
	<g>
		<path class="st0" d="M507.9,347.9c-2.2,0-4,1.8-4,4v24c0,2.2,1.8,4,4,4c2.2,0,4-1.8,4-4v-24C511.9,349.7,510.1,347.9,507.9,347.9z
			"/>
	</g>
</g>
<g>
	<g>
		<path class="st0" d="M507.9,371.9h-16c-2.2,0-4,1.8-4,4s1.8,4,4,4h16c2.2,0,4-1.8,4-4S510.1,371.9,507.9,371.9z"/>
	</g>
</g>
<g>
	<g>
		<path class="st0" d="M383.9,347.9c-22,0-40,17.9-40,40s17.9,40,40,40s40-17.9,40-40S406,347.9,383.9,347.9z M383.9,419.9
			c-17.6,0-32-14.4-32-32s14.3-32,32-32s32,14.4,32,32C415.9,405.5,401.6,419.9,383.9,419.9z"/>
	</g>
</g>
<g>
	<g>
		<path class="st1" d="M383.9,363.9c-13.2,0-24,10.8-24,24s10.8,24,24,24s24-10.8,24-24S397.1,363.9,383.9,363.9z M383.9,403.9
			c-8.8,0-16-7.2-16-16s7.2-16,16-16s16,7.2,16,16S392.7,403.9,383.9,403.9z"/>
	</g>
</g>
<g>
	<g>
		<path class="st1" d="M384.2,371.9L384.2,371.9c-2.3,0-4,1.8-4,4s1.8,4,4,4c2.2,0,4-1.8,4-4S386.4,371.9,384.2,371.9z"/>
	</g>
</g>
<g>
	<g>
		<path class="st1" d="M384.2,395.9L384.2,395.9c-2.3,0-4,1.8-4,4s1.8,4,4,4c2.2,0,4-1.8,4-4S386.4,395.9,384.2,395.9z"/>
	</g>
</g>
<g>
	<g>
		<path class="st1" d="M373.8,377.9L373.8,377.9c-2.3,0-4,1.8-4,4c0,2.2,1.8,4,4,4c2.2,0,4-1.8,4-4
			C377.8,379.7,376,377.9,373.8,377.9z"/>
	</g>
</g>
<g>
	<g>
		<path class="st1" d="M394.5,389.9L394.5,389.9c-2.3,0-4,1.8-4,4c0,2.2,1.8,4,4,4c2.2,0,4-1.8,4-4
			C398.5,391.7,396.7,389.9,394.5,389.9z"/>
	</g>
</g>
<g>
	<g>
		<path class="st1" d="M373.8,389.9L373.8,389.9c-2.3,0-4,1.8-4,4c0,2.2,1.8,4,4,4c2.2,0,4-1.8,4-4
			C377.8,391.7,376,389.9,373.8,389.9z"/>
	</g>
</g>
<g>
	<g>
		<path class="st1" d="M394.5,377.9L394.5,377.9c-2.3,0-4,1.8-4,4c0,2.2,1.8,4,4,4c2.2,0,4-1.8,4-4
			C398.5,379.7,396.7,377.9,394.5,377.9z"/>
	</g>
</g>
<g>
	<g>
		<path class="st1" d="M384.2,383.9L384.2,383.9c-2.3,0-4,1.8-4,4s1.8,4,4,4c2.2,0,4-1.8,4-4S386.4,383.9,384.2,383.9z"/>
	</g>
</g>
<g>
	<g>
		<path class="st0" d="M88,347.9c-22,0-40,17.9-40,40s17.9,40,40,40c22,0,40-17.9,40-40S110,347.9,88,347.9z M88,419.9
			c-17.6,0-32-14.4-32-32s14.4-32,32-32c17.6,0,32,14.4,32,32C120,405.5,105.6,419.9,88,419.9z"/>
	</g>
</g>
<g>
	<g>
		<path class="st1" d="M88,363.9c-13.2,0-24,10.8-24,24s10.8,24,24,24s24-10.8,24-24C112,374.7,101.2,363.9,88,363.9z M88,403.9
			c-8.8,0-16-7.2-16-16s7.2-16,16-16s16,7.2,16,16S96.8,403.9,88,403.9z"/>
	</g>
</g>
<g>
	<g>
		<path class="st1" d="M88.2,371.9L88.2,371.9c-2.3,0-4,1.8-4,4s1.8,4,4,4c2.2,0,4-1.8,4-4S90.4,371.9,88.2,371.9z"/>
	</g>
</g>
<g>
	<g>
		<path class="st1" d="M88.2,395.9L88.2,395.9c-2.3,0-4,1.8-4,4s1.8,4,4,4c2.2,0,4-1.8,4-4S90.4,395.9,88.2,395.9z"/>
	</g>
</g>
<g>
	<g>
		<path class="st1" d="M77.8,377.9L77.8,377.9c-2.3,0-4,1.8-4,4c0,2.2,1.8,4,4,4c2.2,0,4-1.8,4-4C81.8,379.7,80,377.9,77.8,377.9z"
			/>
	</g>
</g>
<g>
	<g>
		<path class="st1" d="M98.6,389.9L98.6,389.9c-2.3,0-4,1.8-4,4c0,2.2,1.8,4,4,4c2.2,0,4-1.8,4-4
			C102.6,391.7,100.8,389.9,98.6,389.9z"/>
	</g>
</g>
<g>
	<g>
		<path class="st1" d="M77.8,389.9L77.8,389.9c-2.3,0-4,1.8-4,4c0,2.2,1.8,4,4,4c2.2,0,4-1.8,4-4C81.8,391.7,80,389.9,77.8,389.9z"
			/>
	</g>
</g>
<g>
	<g>
		<path class="st1" d="M98.6,377.9L98.6,377.9c-2.3,0-4,1.8-4,4c0,2.2,1.8,4,4,4c2.2,0,4-1.8,4-4
			C102.6,379.7,100.8,377.9,98.6,377.9z"/>
	</g>
</g>
<g>
	<g>
		<path class="st1" d="M88.2,383.9L88.2,383.9c-2.3,0-4,1.8-4,4s1.8,4,4,4c2.2,0,4-1.8,4-4S90.4,383.9,88.2,383.9z"/>
	</g>
</g>
<g>
	<g>
		<path class="st1" d="M475.9,299.9c-13.7,0-18.8-8.4-24.6-18.1c-6.2-10.3-13.2-21.9-31.4-21.9h-56c-2.2,0-4,1.8-4,4s1.8,4,4,4h56
			c13.7,0,18.8,8.4,24.6,18.1c6.2,10.3,13.2,21.9,31.4,21.9c2.2,0,4-1.8,4-4C479.9,301.7,478.1,299.9,475.9,299.9z"/>
	</g>
</g>
<g>
	<g>
		<path class="st1" d="M379.9,291.9h-16c-2.2,0-4,1.8-4,4c0,2.2,1.8,4,4,4h16c2.2,0,4-1.8,4-4C383.9,293.7,382.1,291.9,379.9,291.9z
			"/>
	</g>
</g>
<g>
	<g>
		<path class="st0" d="M350.1,331.9c-1.8-1.2-4.3-0.7-5.5,1.2l-16,24.6c-1.2,1.9-0.7,4.3,1.2,5.5c0.7,0.4,1.4,0.6,2.2,0.6
			c1.3,0,2.6-0.6,3.4-1.8l16-24.6C352.5,335.6,351.9,333.1,350.1,331.9z"/>
	</g>
</g>
<g>
	<g>
		<path class="st0" d="M331.9,355.9c-2.2,0-4,1.8-4,4v40c0,2.2,1.8,4,4,4c2.2,0,4-1.8,4-4v-40C335.9,357.7,334.1,355.9,331.9,355.9z
			"/>
	</g>
</g>
<g>
	<g>
		<path class="st1" d="M323.9,379.9H132c-2.2,0-4,1.8-4,4s1.8,4,4,4h192c2.2,0,4-1.8,4-4S326.1,379.9,323.9,379.9z"/>
	</g>
</g>
<g>
	<g>
		<path class="st0" d="M323.9,355.9H124c-2.2,0-4,1.8-4,4c0,2.2,1.8,4,4,4h200c2.2,0,4-1.8,4-4C327.9,357.7,326.1,355.9,323.9,355.9
			z"/>
	</g>
</g>
<g>
	<g>
		<path class="st0" d="M331.9,84c-2.2,0-4,1.8-4,4v247.9c0,2.2,1.8,4,4,4c2.2,0,4-1.8,4-4V88C335.9,85.8,334.1,84,331.9,84z"/>
	</g>
</g>
<g>
	<g>
		<path class="st0" d="M331.9,84H4c-2.2,0-4,1.8-4,4c0,2.2,1.8,4,4,4h327.9c2.2,0,4-1.8,4-4C335.9,85.8,334.1,84,331.9,84z"/>
	</g>
</g>
<g>
	<g>
		<path class="st0" d="M4,84c-2.2,0-4,1.8-4,4v271.9c0,2.2,1.8,4,4,4c2.2,0,4-1.8,4-4V88C8,85.8,6.2,84,4,84z"/>
	</g>
</g>
<g>
	<g>
		<path class="st0" d="M52,355.9H4c-2.2,0-4,1.8-4,4c0,2.2,1.8,4,4,4h48c2.2,0,4-1.8,4-4C56,357.7,54.2,355.9,52,355.9z"/>
	</g>
</g>
<g>
	<g>
		<path class="st1" d="M46.8,381.1l-16-16c-1.6-1.6-4.1-1.6-5.7,0c-1.6,1.6-1.6,4.1,0,5.7l16,16c0.8,0.8,1.8,1.2,2.8,1.2
			s2-0.4,2.8-1.2C48.4,385.2,48.4,382.6,46.8,381.1z"/>
	</g>
</g>
<g>
	<g>
		<path class="st1" d="M36,371.9H12c-2.2,0-4,1.8-4,4s1.8,4,4,4h24c2.2,0,4-1.8,4-4C40,373.7,38.2,371.9,36,371.9z"/>
	</g>
</g>
<g>
	<g>
		<path class="st1" d="M172,371.9c-2.2,0-4,1.8-4,4v8c0,2.2,1.8,4,4,4c2.2,0,4-1.8,4-4v-8C176,373.7,174.2,371.9,172,371.9z"/>
	</g>
</g>
<g>
	<g>
		<path class="st1" d="M219.9,371.9c-2.2,0-4,1.8-4,4v8c0,2.2,1.8,4,4,4c2.2,0,4-1.8,4-4v-8C223.9,373.7,222.2,371.9,219.9,371.9z"
			/>
	</g>
</g>
<g>
	<g>
		<path class="st1" d="M267.9,371.9c-2.2,0-4,1.8-4,4v8c0,2.2,1.8,4,4,4c2.2,0,4-1.8,4-4v-8C271.9,373.7,270.1,371.9,267.9,371.9z"
			/>
	</g>
</g>
<g>
	<g>
		<path class="st1" d="M443.9,227.9c-2.2,0-4,1.8-4,4v24c0,2.2,1.8,4,4,4c2.2,0,4-1.8,4-4v-24C447.9,229.7,446.1,227.9,443.9,227.9z
			"/>
	</g>
</g>
</svg>
