<?xml version="1.0" encoding="utf-8"?>
<!-- Generator: Adobe Illustrator 19.2.1, SVG Export Plug-In . SVG Version: 6.00 Build 0)  -->
<svg version="1.1" id="Capa_1" xmlns="http://www.w3.org/2000/svg" xmlns:xlink="http://www.w3.org/1999/xlink" x="0px" y="0px"
	 viewBox="0 0 512 512" style="enable-background:new 0 0 512 512;" xml:space="preserve">
<style type="text/css">
	.st0{fill:#C1C1C1;}
	.st1{fill:#03A99B;}
</style>
<g>
	<g>
		<path class="st0" d="M68.2,176L68.2,176c-2.3,0-4,1.8-4,4s1.8,4,4,4c2.2,0,4-1.8,4-4S70.4,176,68.2,176z"/>
	</g>
</g>
<g>
	<g>
		<path class="st0" d="M84.2,176L84.2,176c-2.3,0-4,1.8-4,4s1.8,4,4,4c2.2,0,4-1.8,4-4S86.4,176,84.2,176z"/>
	</g>
</g>
<g>
	<g>
		<path class="st0" d="M100.2,176L100.2,176c-2.3,0-4,1.8-4,4s1.8,4,4,4c2.2,0,4-1.8,4-4S102.4,176,100.2,176z"/>
	</g>
</g>
<g>
	<g>
		<path class="st0" d="M116.2,176L116.2,176c-2.3,0-4,1.8-4,4s1.8,4,4,4c2.2,0,4-1.8,4-4S118.4,176,116.2,176z"/>
	</g>
</g>
<g>
	<g>
		<path class="st0" d="M132.2,176L132.2,176c-2.3,0-4,1.8-4,4s1.8,4,4,4c2.2,0,4-1.8,4-4S134.4,176,132.2,176z"/>
	</g>
</g>
<g>
	<g>
		<path class="st0" d="M148.2,176L148.2,176c-2.3,0-4,1.8-4,4s1.8,4,4,4c2.2,0,4-1.8,4-4S150.4,176,148.2,176z"/>
	</g>
</g>
<g>
	<g>
		<path class="st0" d="M364.2,176L364.2,176c-2.3,0-4,1.8-4,4s1.8,4,4,4c2.2,0,4-1.8,4-4S366.4,176,364.2,176z"/>
	</g>
</g>
<g>
	<g>
		<path class="st0" d="M380.2,176L380.2,176c-2.3,0-4,1.8-4,4s1.8,4,4,4c2.2,0,4-1.8,4-4S382.4,176,380.2,176z"/>
	</g>
</g>
<g>
	<g>
		<path class="st0" d="M396.2,176L396.2,176c-2.3,0-4,1.8-4,4s1.8,4,4,4c2.2,0,4-1.8,4-4S398.4,176,396.2,176z"/>
	</g>
</g>
<g>
	<g>
		<path class="st0" d="M412.2,176L412.2,176c-2.3,0-4,1.8-4,4s1.8,4,4,4c2.2,0,4-1.8,4-4S414.4,176,412.2,176z"/>
	</g>
</g>
<g>
	<g>
		<path class="st0" d="M428.2,176L428.2,176c-2.3,0-4,1.8-4,4s1.8,4,4,4c2.2,0,4-1.8,4-4S430.4,176,428.2,176z"/>
	</g>
</g>
<g>
	<g>
		<path class="st0" d="M444.2,176L444.2,176c-2.3,0-4,1.8-4,4s1.8,4,4,4c2.2,0,4-1.8,4-4C448.2,177.8,446.4,176,444.2,176z"/>
	</g>
</g>
<g>
	<g>
		<path class="st1" d="M508,112H4c-2.2,0-4,1.8-4,4v216c0,2.2,1.8,4,4,4s4-1.8,4-4V120h496v212c0,2.2,1.8,4,4,4c2.2,0,4-1.8,4-4V116
			C512,113.8,510.2,112,508,112z"/>
	</g>
</g>
<g>
	<g>
		<path class="st0" d="M288,220.8c0,23.2-21.5,43.2-32,43.2c-10.5,0-32-20-32-43.2h-8c0,25.9,22.9,51.2,40,51.2
			c17.1,0,40-25.3,40-51.2H288z"/>
	</g>
</g>
<g>
	<g>
		<path class="st0" d="M306.6,272.8c-15.5-5.9-21.5-9.8-22.7-11.2c-0.4-1.8-2-3.2-3.9-3.2c-2.2,0-4,1.8-4,4c0,2.7,0,7.2,27.8,17.9
			c0.5,0.2,1,0.3,1.4,0.3c1.6,0,3.1-1,3.7-2.6C309.7,275.9,308.7,273.5,306.6,272.8z"/>
	</g>
</g>
<g>
	<g>
		<path class="st0" d="M280,248.5c-2.2,0-4,1.8-4,4v9.8c0,2.2,1.8,4,4,4s4-1.8,4-4v-9.8C284,250.3,282.2,248.5,280,248.5z"/>
	</g>
</g>
<g>
	<g>
		<path class="st0" d="M232,258.3c-1.9,0-3.5,1.4-3.9,3.2c-1.2,1.4-7.2,5.3-22.7,11.2c-2.1,0.8-3.1,3.1-2.3,5.2
			c0.6,1.6,2.1,2.6,3.7,2.6c0.5,0,1-0.1,1.4-0.3C236,269.6,236,265,236,262.3C236,260.1,234.2,258.3,232,258.3z"/>
	</g>
</g>
<g>
	<g>
		<path class="st0" d="M232,248.5c-2.2,0-4,1.8-4,4v9.8c0,2.2,1.8,4,4,4s4-1.8,4-4v-9.8C236,250.3,234.2,248.5,232,248.5z"/>
	</g>
</g>
<g>
	<g>
		<path class="st1" d="M256,144c-39.7,0-72,35.9-72,80c0,18.6,5.9,36.7,16.5,51c13.7,18.4,34,29,55.5,29c39.7,0,72-35.9,72-80
			C328,179.9,295.7,144,256,144z M256,296c-19,0-36.9-9.4-49.1-25.8c-9.6-12.9-14.9-29.3-14.9-46.2c0-39.7,28.7-72,64-72
			c35.3,0,64,32.3,64,72C320,263.7,291.3,296,256,296z"/>
	</g>
</g>
<g>
	<g>
		<path class="st0" d="M279.9,176.5c0.4-0.2,1-0.5,1.6-0.8c1.6-0.7,2.6-2.3,2.5-4.1c-0.2-1.7-1.4-3.2-3.2-3.6
			c-0.7-0.1-35.9-7.7-54.6,12.8c-8.4,9.2-11.8,22.5-10.2,39.5c0.2,1.8,1.5,3.2,3.2,3.5c0.3,0.1,0.5,0.1,0.8,0.1
			c1.5,0,2.8-0.8,3.5-2.1l10.3-19.7c4.3,1.8,12,4.3,22,4.3c10.1,0,17.9-2.5,22.2-4.3l10.3,19.7c0.8,1.5,2.5,2.4,4.2,2.1
			c1.7-0.3,3-1.6,3.3-3.3C301.4,185.2,284.7,177.8,279.9,176.5z M283.4,195c-0.5-1-1.4-1.7-2.5-2c-0.4-0.1-0.7-0.1-1.1-0.1
			c-0.7,0-1.4,0.2-2,0.6c-0.1,0-8.7,5.1-22,5.1c-13.2,0-21.6-5-21.7-5c-0.9-0.6-2.1-0.7-3.2-0.5c-1.1,0.3-2,1-2.5,2l-4.1,7.9
			c1.2-6.7,3.8-12.3,7.7-16.6c10.5-11.5,28.4-12.1,38.6-11.4c-0.2,0.5-0.2,1.1-0.2,1.7c0,4.6,4.9,6.8,5.9,7.3
			c0.3,0.1,0.6,0.2,0.8,0.2c0.5,0.1,11.1,2.4,11.7,21.6L283.4,195z"/>
	</g>
</g>
<g>
	<g>
		<path class="st0" d="M80,200c-13.2,0-24,10.8-24,24s10.8,24,24,24c13.2,0,24-10.8,24-24S93.2,200,80,200z M80,240
			c-8.8,0-16-7.2-16-16s7.2-16,16-16c8.8,0,16,7.2,16,16S88.8,240,80,240z"/>
	</g>
</g>
<g>
	<g>
		<path class="st0" d="M136,200c-13.2,0-24,10.8-24,24s10.8,24,24,24s24-10.8,24-24S149.2,200,136,200z M136,240
			c-8.8,0-16-7.2-16-16s7.2-16,16-16c8.8,0,16,7.2,16,16S144.8,240,136,240z"/>
	</g>
</g>
<g>
	<g>
		<path class="st0" d="M136,200c-2.2,0-4,1.8-4,4v40c0,2.2,1.8,4,4,4s4-1.8,4-4v-40C140,201.8,138.2,200,136,200z"/>
	</g>
</g>
<g>
	<g>
		<path class="st0" d="M100,220H60c-2.2,0-4,1.8-4,4s1.8,4,4,4h40c2.2,0,4-1.8,4-4S102.2,220,100,220z"/>
	</g>
</g>
<g>
	<g>
		<path class="st1" d="M156,264H60c-2.2,0-4,1.8-4,4c0,2.2,1.8,4,4,4h96c2.2,0,4-1.8,4-4C160,265.8,158.2,264,156,264z"/>
	</g>
</g>
<g>
	<g>
		<path class="st0" d="M364,200c-2.2,0-4,1.8-4,4v40c0,2.2,1.8,4,4,4s4-1.8,4-4v-40C368,201.8,366.2,200,364,200z"/>
	</g>
</g>
<g>
	<g>
		<path class="st0" d="M400,200c-8.8,0-16,7.2-16,16v16c0,2.2,1.8,4,4,4s4-1.8,4-4v-16c0-4.4,3.6-8,8-8c4.4,0,8,3.6,8,8v16
			c0,2.2,1.8,4,4,4c2.2,0,4-1.8,4-4v-16C416,207.2,408.8,200,400,200z"/>
	</g>
</g>
<g>
	<g>
		<path class="st0" d="M440,200c-8.8,0-16,7.2-16,16v16c0,8.8,7.2,16,16,16c8.8,0,16-7.2,16-16v-16C456,207.2,448.8,200,440,200z
			 M448,232c0,4.4-3.6,8-8,8s-8-3.6-8-8v-16c0-4.4,3.6-8,8-8s8,3.6,8,8V232z"/>
	</g>
</g>
<g>
	<g>
		<path class="st0" d="M366.8,201.2c-1.6-1.6-4.1-1.6-5.7,0l-8,8c-1.6,1.6-1.6,4.1,0,5.7c0.8,0.8,1.8,1.2,2.8,1.2c1,0,2-0.4,2.8-1.2
			l8-8C368.4,205.3,368.4,202.7,366.8,201.2z"/>
	</g>
</g>
<g>
	<g>
		<path class="st0" d="M372,240h-16c-2.2,0-4,1.8-4,4s1.8,4,4,4h16c2.2,0,4-1.8,4-4S374.2,240,372,240z"/>
	</g>
</g>
<g>
	<g>
		<path class="st1" d="M124,72c-15.4,0-28,12.6-28,28c0,2.2,1.8,4,4,4s4-1.8,4-4c0-11,9-20,20-20c11,0,20,9,20,20c0,2.2,1.8,4,4,4
			s4-1.8,4-4C152,84.6,139.4,72,124,72z"/>
	</g>
</g>
<g>
	<g>
		<path class="st1" d="M416,244.3c-15.3-8.8-34.9-3.6-43.5,11.4l-51.7,74c-1.3,1.8-0.8,4.3,1,5.6c1.8,1.3,4.3,0.8,5.6-1l51.9-74.3
			c6.6-11.5,21.3-15.4,32.8-8.8c11.5,6.6,15.4,21.3,8.9,32.7l-98.1,158c-1.2,1.9-0.6,4.3,1.3,5.5c0.7,0.4,1.4,0.6,2.1,0.6
			c1.3,0,2.6-0.7,3.4-1.9L427.7,288C436.5,272.7,431.2,253.1,416,244.3z"/>
	</g>
</g>
<g>
	<g>
		<path class="st1" d="M188,24c-15.4,0-28,12.6-28,28v48c0,2.2,1.8,4,4,4s4-1.8,4-4V52c0-11,9-20,20-20c11,0,20,9,20,20v48
			c0,2.2,1.8,4,4,4s4-1.8,4-4V52C216,36.6,203.4,24,188,24z"/>
	</g>
</g>
<g>
	<g>
		<path class="st1" d="M252,0c-15.4,0-28,12.6-28,28v72c0,2.2,1.8,4,4,4s4-1.8,4-4V28c0-11,9-20,20-20c11,0,20,9,20,20v72
			c0,2.2,1.8,4,4,4c2.2,0,4-1.8,4-4V28C280,12.6,267.4,0,252,0z"/>
	</g>
</g>
<g>
	<g>
		<path class="st1" d="M316,24c-15.4,0-28,12.6-28,28v48c0,2.2,1.8,4,4,4s4-1.8,4-4V52c0-11,9-20,20-20s20,9,20,20v48
			c0,2.2,1.8,4,4,4c2.2,0,4-1.8,4-4V52C344,36.6,331.4,24,316,24z"/>
	</g>
</g>
<g>
	<g>
		<path class="st1" d="M220,504c-64,0-116-52-116-116c0-2.2-1.8-4-4-4s-4,1.8-4,4c0,68.4,55.6,124,124,124c2.2,0,4-1.8,4-4
			S222.2,504,220,504z"/>
	</g>
</g>
<g>
	<g>
		<path class="st1" d="M328,440.4c-1.9-1-4.4-0.3-5.4,1.7C302.5,480.3,263.1,504,220,504c-2.2,0-4,1.8-4,4s1.8,4,4,4
			c46.1,0,88.2-25.3,109.7-66.1C330.7,443.9,330,441.5,328,440.4z"/>
	</g>
</g>
<g>
	<g>
		<path class="st1" d="M100,344c-2.2,0-4,1.8-4,4v40c0,2.2,1.8,4,4,4s4-1.8,4-4v-40C104,345.8,102.2,344,100,344z"/>
	</g>
</g>
<g>
	<g>
		<path class="st1" d="M508,328h-96c-2.2,0-4,1.8-4,4c0,2.2,1.8,4,4,4h96c2.2,0,4-1.8,4-4C512,329.8,510.2,328,508,328z"/>
	</g>
</g>
<g>
	<g>
		<path class="st1" d="M308,328H4c-2.2,0-4,1.8-4,4c0,2.2,1.8,4,4,4h304c2.2,0,4-1.8,4-4C312,329.8,310.2,328,308,328z"/>
	</g>
</g>
<path class="st0" d="M492,144c-6.6,0-12-5.4-12-12c0-2.2-1.8-4-4-4H36c-2.2,0-4,1.8-4,4c0,6.6-5.4,12-12,12c-2.2,0-4,1.8-4,4v152
	c0,2.2,1.8,4,4,4c6.6,0,12,5.4,12,12c0,2.2,1.8,4,4,4c0,0,0,0,0,0h280c2.2,0,4-1.8,4-4s-1.8-4-4-4H39.6c-1.6-7.8-7.8-14-15.6-15.6
	V151.6c7.8-1.6,14-7.8,15.6-15.6h432.8c1.6,7.8,7.8,14,15.6,15.6v144.8c-7.8,1.6-14,7.8-15.6,15.6H420c-2.2,0-4,1.8-4,4s1.8,4,4,4
	h56c0.8,0,1.6-0.3,2.2-0.7c1.1-0.7,1.8-1.9,1.8-3.3c0-6.6,5.4-12,12-12c2.2,0,4-1.8,4-4V148C496,145.8,494.2,144,492,144z"/>
</svg>
