<?xml version="1.0" encoding="utf-8"?>
<!-- Generator: Adobe Illustrator 19.2.1, SVG Export Plug-In . SVG Version: 6.00 Build 0)  -->
<svg version="1.1" id="Capa_1" xmlns="http://www.w3.org/2000/svg" xmlns:xlink="http://www.w3.org/1999/xlink" x="0px" y="0px"
	 viewBox="0 0 512 512" style="enable-background:new 0 0 512 512;" xml:space="preserve">
<style type="text/css">
	.st0{fill:#C1C1C1;}
	.st1{fill:#03A99B;}
</style>
<g>
	<g>
		<path class="st0" d="M473.4,168.7c0-3.2,1.3-6.2,3.5-8.5c1.6-1.6,1.6-4.1,0-5.7L369.4,47.1c-1.6-1.6-4.1-1.6-5.7,0
			c-4.7,4.7-12.3,4.7-17,0c-1.6-1.6-4.1-1.6-5.7,0l-38.1,38.1c-1.6,1.6-1.6,4.1,0,5.7s4.1,1.6,5.7,0l35.5-35.5
			c6.7,4.4,15.4,4.4,22.1,0l102.4,102.4c-2.2,3.2-3.3,7.1-3.3,11c0,4,1.2,7.8,3.3,11L337.1,311.3c-1.6,1.6-1.6,4.1,0,5.7
			c0.8,0.8,1.8,1.2,2.8,1.2s2-0.4,2.8-1.2l134.1-134.1c1.6-1.6,1.6-4.1,0-5.7C474.6,175,473.4,171.9,473.4,168.7z"/>
	</g>
</g>
<g>
	<g>
		<path class="st1" d="M510.8,165.9L358.1,13.2c-1.6-1.6-4.1-1.6-5.7,0l-72,72c-1.6,1.6-1.6,4.1,0,5.7s4.1,1.6,5.7,0l69.2-69.2
			l147.1,147.1L337.1,333.9c-1.6,1.6-1.6,4.1,0,5.7c0.8,0.8,1.8,1.2,2.8,1.2s2-0.4,2.8-1.2l168-168
			C512.4,170,512.4,167.5,510.8,165.9z"/>
	</g>
</g>
<g>
	<g>
		<path class="st0" d="M332.9,125.1L332.9,125.1c-2.3,0-4,1.8-4,4s1.8,4,4,4c2.2,0,4-1.8,4-4S335.1,125.1,332.9,125.1z"/>
	</g>
</g>
<g>
	<g>
		<path class="st0" d="M344.2,113.8L344.2,113.8c-2.3,0-4,1.8-4,4s1.8,4,4,4c2.2,0,4-1.8,4-4S346.4,113.8,344.2,113.8z"/>
	</g>
</g>
<g>
	<g>
		<path class="st0" d="M355.5,102.5L355.5,102.5c-2.3,0-4,1.8-4,4c0,2.2,1.8,4,4,4c2.2,0,4-1.8,4-4S357.7,102.5,355.5,102.5z"/>
	</g>
</g>
<g>
	<g>
		<path class="st1" d="M426,160.3c-1.6-1.6-4.1-1.6-5.7,0l-67.9,67.9c-1.6,1.6-1.6,4.1,0,5.7c0.8,0.8,1.8,1.2,2.8,1.2s2-0.4,2.8-1.2
			l67.9-67.9C427.5,164.3,427.5,161.8,426,160.3z"/>
	</g>
</g>
<g>
	<g>
		<path class="st0" d="M346.8,205.5l-16.3-16.3c-1.6-1.6-4.1-1.6-5.7,0s-1.6,4.1,0,5.7l16.3,16.3c0.8,0.8,1.8,1.2,2.8,1.2
			s2-0.4,2.8-1.2C348.3,209.6,348.3,207.1,346.8,205.5z"/>
	</g>
</g>
<g>
	<g>
		<path class="st0" d="M372.2,163.1l-11.3-11.3c-6-6-16.6-6-22.6,0c-6.2,6.2-6.2,16.4,0,22.6l11.3,11.3c3,3,7,4.7,11.3,4.7
			s8.3-1.7,11.3-4.7C378.5,179.5,378.5,169.3,372.2,163.1z M366.6,180c-3,3-8.3,3-11.3,0l-11.3-11.3c-3.1-3.1-3.1-8.2,0-11.3
			c1.5-1.5,3.5-2.3,5.7-2.3s4.1,0.8,5.7,2.3l11.3,11.3C369.7,171.9,369.7,176.9,366.6,180z"/>
	</g>
</g>
<g>
	<g>
		<path class="st0" d="M400.5,134.8l-11.3-11.3c-6-6.1-16.6-6-22.6,0c-3,3-4.7,7-4.7,11.3c0,4.3,1.7,8.3,4.7,11.3l11.3,11.3
			c3,3,7,4.7,11.3,4.7c4.3,0,8.3-1.7,11.3-4.7C406.7,151.2,406.7,141,400.5,134.8z M394.8,151.8c-3,3-8.3,3-11.3,0l-11.3-11.3
			c-1.5-1.5-2.3-3.5-2.3-5.7c0-2.1,0.8-4.1,2.3-5.7c1.5-1.5,3.5-2.3,5.7-2.3c2.1,0,4.1,0.8,5.6,2.3l11.3,11.3
			C398,143.6,398,148.6,394.8,151.8z"/>
	</g>
</g>
<g>
	<g>
		<path class="st0" d="M352.4,199.8c-1.6-1.6-4.1-1.6-5.7,0l-11.3,11.3c-1.6,1.6-1.6,4.1,0,5.7c0.8,0.8,1.8,1.2,2.8,1.2
			c1,0,2-0.4,2.8-1.2l11.3-11.3C354,203.9,354,201.4,352.4,199.8z"/>
	</g>
</g>
<g>
	<g>
		<path class="st1" d="M328,439.8l-16-312c-0.6-15.3-13.5-27.8-28.9-27.8H44.9c-15.4,0-28.3,12.5-28.9,27.8L0,439.9
			c-0.3,7.5,2.4,14.5,7.5,19.9c5.1,5.3,12.1,8.3,19.6,8.3h273.7c7.5,0,14.4-2.9,19.6-8.3C325.6,454.4,328.2,447.3,328,439.8z
			 M314.7,454.2c-3.6,3.8-8.5,5.8-13.8,5.8H27.1c-5.3,0-10.2-2.1-13.8-5.8c-3.6-3.8-5.5-8.7-5.3-14l16-312.1
			C24.4,117,33.8,108,44.9,108v0h238.2c11.1,0,20.5,9,20.9,20.2l16,312C320.2,445.4,318.3,450.4,314.7,454.2z"/>
	</g>
</g>
<g>
	<g>
		<path class="st1" d="M328,463.8c-0.1-2.2-1.9-3.9-4-3.9c0,0-0.1,0-0.1,0c-2.2,0.1-3.9,1.9-3.9,4.1c0.2,5.3-1.7,10.3-5.3,14
			c-3.6,3.8-8.5,5.8-13.8,5.8H27.1c-5.3,0-10.2-2.1-13.8-5.8c-3.6-3.8-5.5-8.7-5.3-14c0.1-2.2-1.6-4.1-3.9-4.1
			c-2.5,0-4.1,1.6-4.1,3.9c-0.3,7.5,2.4,14.5,7.5,19.9c5.1,5.3,12.1,8.3,19.6,8.3h273.7c7.5,0,14.4-2.9,19.6-8.3
			C325.6,478.4,328.2,471.3,328,463.8z"/>
	</g>
</g>
<g>
	<g>
		<path class="st1" d="M4,437.5c-2.2,0-4,1.8-4,4V464c0,2.2,1.8,4,4,4c2.2,0,4-1.8,4-4v-22.5C8,439.3,6.2,437.5,4,437.5z"/>
	</g>
</g>
<g>
	<g>
		<path class="st1" d="M324,437.5c-2.2,0-4,1.8-4,4V464c0,2.2,1.8,4,4,4s4-1.8,4-4v-22.5C328,439.3,326.2,437.5,324,437.5z"/>
	</g>
</g>
<g>
	<g>
		<path class="st0" d="M224.6,224c0-6.6-5.5-12-12.1-12H182c-6.6,0-12,5.4-12,12v24c0,6.6,5.4,12,12,12h30.9c3.2,0,6.2-1.3,8.5-3.5
			c2.3-2.3,3.5-5.3,3.5-8.5L224.6,224z M215.7,250.8c-0.8,0.8-1.7,1.2-2.8,1.2H182c-2.2,0-4-1.8-4-4v-24c0-2.2,1.8-4,4-4h30.6
			c2.2,0,4,1.8,4.1,4l0.2,24C216.8,249.1,216.4,250.1,215.7,250.8z"/>
	</g>
</g>
<g>
	<g>
		<path class="st0" d="M288.5,223.9c-0.2-6.6-5.7-11.9-12.2-11.9h-31.7c-3.2,0-6.2,1.3-8.5,3.5c-2.3,2.3-3.5,5.3-3.5,8.5l0.2,24
			c0,6.6,5.5,12,12.1,12h32.6c3.2,0,6.2-1.3,8.4-3.6c2.2-2.3,3.4-5.3,3.3-8.6L288.5,223.9z M280.2,250.9c-0.7,0.7-1.7,1.1-2.7,1.1
			h-32.6c-2.2,0-4-1.8-4.1-4l-0.2-24c0-1.1,0.4-2.1,1.1-2.8s1.7-1.2,2.8-1.2h31.7c2.2,0,4.2,1.9,4.2,4.1l0.7,24
			C281.3,249.1,280.9,250.1,280.2,250.9z"/>
	</g>
</g>
<g>
	<g>
		<path class="st0" d="M97.5,215.6c-2.2-2.3-5.2-3.6-8.4-3.6H57.3c-6.5,0-12.1,5.3-12.5,11.8l-1.4,24c-0.2,3.2,0.9,6.3,3.1,8.6
			c2.2,2.3,5.2,3.6,8.4,3.6h32.6c6.5,0,12-5.3,12.3-11.8l0.9-24C100.9,220.9,99.7,217.9,97.5,215.6z M91.9,247.9
			c-0.1,2.2-2,4.1-4.3,4.1H55c-1,0-1.9-0.4-2.6-1.1c-0.7-0.7-1-1.6-0.9-2.7l1.4-24c0.1-2.3,2.2-4.2,4.5-4.2v0h31.7
			c1,0,2,0.4,2.7,1.1c0.7,0.7,1.1,1.7,1,2.7L91.9,247.9z"/>
	</g>
</g>
<g>
	<g>
		<path class="st0" d="M150,212h-28.9c-6.5,0-12,5.3-12.3,11.8l-0.9,24c-0.1,3.2,1,6.3,3.3,8.6c2.2,2.3,5.2,3.6,8.5,3.6H150
			c6.6,0,12-5.4,12-12v-24C162,217.4,156.6,212,150,212z M154,248c0,2.2-1.8,4-4,4h-30.4c-1,0-2-0.4-2.7-1.1c-0.7-0.7-1.1-1.7-1-2.7
			l0.9-24c0.1-2.2,2-4.1,4.3-4.1v0H150c2.2,0,4,1.8,4,4V248z"/>
	</g>
</g>
<g>
	<g>
		<path class="st0" d="M93.8,327.6c-2.2-2.3-5.2-3.6-8.4-3.6h-34c-6.5,0-12.1,5.3-12.5,11.7l-1.4,24c-0.2,3.2,0.9,6.3,3.1,8.6
			c2.2,2.3,5.2,3.6,8.4,3.6h34.9c6.5,0,12-5.3,12.3-11.9l0.9-24C97.1,332.9,96,329.9,93.8,327.6z M88.2,359.8
			c-0.1,2.2-2,4.1-4.3,4.1H49c-1,0-1.9-0.4-2.6-1.1s-1-1.6-0.9-2.7l1.4-24c0.1-2.3,2.2-4.2,4.5-4.2v0h34c1,0,2,0.4,2.7,1.1
			c0.7,0.7,1.1,1.7,1,2.7L88.2,359.8z"/>
	</g>
</g>
<g>
	<g>
		<path class="st0" d="M225.4,336c0-6.6-5.5-12-12.1-12H182c-6.6,0-12,5.4-12,12v24c0,6.6,5.4,12,12,12h31.6c3.2,0,6.2-1.3,8.5-3.5
			c2.3-2.3,3.5-5.3,3.5-8.5L225.4,336z M216.4,362.8c-0.8,0.8-1.7,1.2-2.8,1.2H182c-2.2,0-4-1.8-4-4v-24c0-2.2,1.8-4,4-4h31.3
			c2.2,0,4,1.8,4.1,4l0.2,24C217.6,361.1,217.2,362.1,216.4,362.8z"/>
	</g>
</g>
<g>
	<g>
		<path class="st0" d="M150,324h-32.7c-6.5,0-12,5.3-12.3,11.8l-0.9,24c-0.1,3.2,1,6.3,3.3,8.6c2.2,2.3,5.2,3.6,8.5,3.6H150
			c6.6,0,12-5.4,12-12v-24C162,329.4,156.6,324,150,324z M154,360c0,2.2-1.8,4-4,4h-34.1c-1,0-2-0.4-2.7-1.1c-0.7-0.7-1.1-1.7-1-2.7
			l0.9-24c0.1-2.2,2-4.1,4.3-4.1v0H150c2.2,0,4,1.8,4,4V360z"/>
	</g>
</g>
<g>
	<g>
		<path class="st0" d="M91.9,383.6c-2.2-2.3-5.2-3.6-8.4-3.6H48.3c-6.5,0-12.1,5.3-12.5,11.8l-1.4,24c-0.2,3.2,0.9,6.3,3.1,8.6
			c2.2,2.3,5.2,3.6,8.4,3.6c0,0,0,0,0,0l36-0.2c6.5,0,12-5.4,12.3-11.9l0.9-23.8C95.3,388.9,94.1,385.9,91.9,383.6z M86.3,415.6
			c-0.1,2.3-2.1,4.2-4.3,4.2L46,420l0,4v-4c-1,0-1.9-0.4-2.6-1.1c-0.7-0.7-1-1.6-0.9-2.6l1.4-24c0.1-2.3,2.2-4.2,4.5-4.2l0,0h35.1
			c1,0,2,0.4,2.7,1.1c0.7,0.7,1.1,1.7,1,2.7L86.3,415.6z"/>
	</g>
</g>
<g>
	<g>
		<path class="st1" d="M290,279.9c-0.2-6.6-5.7-11.9-12.2-11.9h-32.9c-3.2,0-6.2,1.3-8.5,3.5c-2.3,2.3-3.5,5.3-3.5,8.5l0.9,136
			c0,6.6,5.5,12,12.1,12l36,0c3.2,0,6.2-1.3,8.4-3.6c2.2-2.3,3.4-5.3,3.3-8.6L290,279.9z M284.7,418.8c-0.7,0.7-1.7,1.1-2.7,1.1
			l-36,0c-2.2,0-4.1-1.8-4.1-4L241,280c0-1,0.4-2,1.1-2.8c0.8-0.8,1.7-1.2,2.8-1.2h32.9c2.2,0,4.2,1.9,4.2,4.1l3.7,136
			C285.8,417.1,285.4,418.1,284.7,418.8z"/>
	</g>
</g>
<g>
	<g>
		<path class="st0" d="M225.8,392c0-6.6-5.5-12-12.1-12H182c-6.6,0-12,5.4-12,12v24c0,6.6,5.4,12,12,12h32c3.2,0,6.2-1.3,8.5-3.5
			c2.3-2.3,3.5-5.3,3.5-8.5L225.8,392z M216.8,418.8c-0.8,0.8-1.7,1.2-2.8,1.2h-32c-2.2,0-4-1.8-4-4v-24c0-2.2,1.8-4,4-4h31.7
			c2.2,0,4,1.8,4.1,4l0.2,24C217.9,417.1,217.5,418.1,216.8,418.8z"/>
	</g>
</g>
<g>
	<g>
		<path class="st0" d="M150,380h-34.5c-6.5,0-12,5.3-12.3,11.8l-0.9,24c-0.1,3.2,1,6.3,3.3,8.6c2.2,2.3,5.2,3.6,8.5,3.6h36
			c6.6,0,12-5.4,12-12v-24C162,385.4,156.6,380,150,380z M154,416c0,2.2-1.8,4-4,4h-36c-1,0-2-0.4-2.7-1.1c-0.7-0.7-1.1-1.7-1-2.7
			l0.9-24c0.1-2.2,2-4.1,4.3-4.1v0H150c2.2,0,4,1.8,4,4V416z"/>
	</g>
</g>
<g>
	<g>
		<path class="st0" d="M225,280c0-6.6-5.5-12-12.1-12h-31c-6.6,0-12,5.4-12,12v24c0,6.6,5.4,12,12,12h31.2c3.2,0,6.2-1.3,8.5-3.5
			c2.3-2.3,3.5-5.3,3.5-8.5L225,280z M216,306.8c-0.8,0.8-1.7,1.2-2.8,1.2H182c-2.2,0-4-1.8-4-4v-24c0-2.2,1.8-4,4-4h31
			c2.2,0,4,1.8,4.1,4l0.2,24C217.2,305.1,216.8,306.1,216,306.8z"/>
	</g>
</g>
<g>
	<g>
		<path class="st0" d="M95.6,271.6c-2.2-2.3-5.2-3.6-8.4-3.6H54.3c-6.5,0-12.1,5.3-12.5,11.7l-1.4,24c-0.2,3.2,0.9,6.3,3.1,8.6
			c2.2,2.3,5.2,3.6,8.4,3.6h33.7c6.5,0,12-5.3,12.3-11.9l0.9-24C99,276.9,97.9,273.9,95.6,271.6z M90,303.9c-0.1,2.2-2,4.1-4.3,4.1
			H52c-1,0-1.9-0.4-2.6-1.1c-0.7-0.7-1-1.6-0.9-2.7l1.4-24c0.1-2.3,2.2-4.2,4.5-4.2v0h32.9c1,0,2,0.4,2.7,1.1c0.7,0.7,1.1,1.7,1,2.7
			L90,303.9z"/>
	</g>
</g>
<g>
	<g>
		<path class="st0" d="M150,268h-30.8c-6.5,0-12,5.3-12.3,11.8l-0.9,24c-0.1,3.2,1,6.3,3.3,8.6c2.2,2.3,5.2,3.6,8.5,3.6H150
			c6.6,0,12-5.4,12-12v-24C162,273.4,156.6,268,150,268z M154,304c0,2.2-1.8,4-4,4h-32.2c-1,0-2-0.4-2.7-1.1c-0.7-0.7-1.1-1.7-1-2.7
			l0.9-24c0.1-2.2,2-4.1,4.3-4.1v0H150c2.2,0,4,1.8,4,4V304z"/>
	</g>
</g>
<g>
	<g>
		<path class="st1" d="M284.6,135.9c-0.1-2.2-1.8-3.9-4-3.9h-232c-2.2,0-3.9,1.7-4,3.9l-1.5,50c0,1.1,0.4,2.1,1.1,2.9
			c0.8,0.8,1.8,1.2,2.9,1.2h234.8c1.1,0,2.1-0.4,2.9-1.2c0.8-0.8,1.2-1.8,1.1-2.9L284.6,135.9z M51.2,182l1.3-42h224.2l1.1,42H51.2z
			"/>
	</g>
</g>
<g>
	<g>
		<path class="st1" d="M464,284c-19.9,0-36,16.1-36,36s16.1,36,36,36c19.9,0,36-16.1,36-36C500,300.1,483.8,284,464,284z M464,348
			c-15.4,0-28-12.6-28-28s12.6-28,28-28c15.4,0,28,12.6,28,28S479.4,348,464,348z"/>
	</g>
</g>
<g>
	<g>
		<path class="st1" d="M496,332c-2.2,0-4,1.8-4,4c0,15.4-12.6,28-28,28c-15.4,0-28-12.6-28-28c0-2.2-1.8-4-4-4c-2.2,0-4,1.8-4,4
			c0,19.9,16.1,36,36,36c19.9,0,36-16.1,36-36C500,333.8,498.2,332,496,332z"/>
	</g>
</g>
<g>
	<g>
		<path class="st1" d="M432,316c-2.2,0-4,1.8-4,4v16c0,2.2,1.8,4,4,4c2.2,0,4-1.8,4-4v-16C436,317.8,434.2,316,432,316z"/>
	</g>
</g>
<g>
	<g>
		<path class="st1" d="M496,316c-2.2,0-4,1.8-4,4v16c0,2.2,1.8,4,4,4c2.2,0,4-1.8,4-4v-16C500,317.8,498.2,316,496,316z"/>
	</g>
</g>
<g>
	<g>
		<path class="st0" d="M464,308c-2.2,0-4,1.8-4,4v16c0,2.2,1.8,4,4,4c2.2,0,4-1.8,4-4v-16C468,309.8,466.2,308,464,308z"/>
	</g>
</g>
<g>
	<g>
		<path class="st1" d="M416,380c-28.7,0-52,23.3-52,52s23.3,52,52,52s52-23.3,52-52S444.6,380,416,380z M416,476
			c-24.3,0-44-19.7-44-44s19.7-44,44-44s44,19.7,44,44S440.2,476,416,476z"/>
	</g>
</g>
<g>
	<g>
		<path class="st1" d="M464,444c-2.2,0-4,1.8-4,4c0,24.3-19.7,44-44,44s-44-19.7-44-44c0-2.2-1.8-4-4-4c-2.2,0-4,1.8-4,4
			c0,28.7,23.3,52,52,52s52-23.3,52-52C468,445.8,466.2,444,464,444z"/>
	</g>
</g>
<g>
	<g>
		<path class="st0" d="M416,412c-2.2,0-4,1.8-4,4v32c0,2.2,1.8,4,4,4s4-1.8,4-4v-32C420,413.8,418.2,412,416,412z"/>
	</g>
</g>
<g>
	<g>
		<path class="st1" d="M464,428c-2.2,0-4,1.8-4,4v16c0,2.2,1.8,4,4,4c2.2,0,4-1.8,4-4v-16C468,429.8,466.2,428,464,428z"/>
	</g>
</g>
<g>
	<g>
		<path class="st1" d="M368,428c-2.2,0-4,1.8-4,4v16c0,2.2,1.8,4,4,4c2.2,0,4-1.8,4-4v-16C372,429.8,370.2,428,368,428z"/>
	</g>
</g>
</svg>
