<?xml version="1.0" encoding="utf-8"?>
<!-- Generator: Adobe Illustrator 19.2.1, SVG Export Plug-In . SVG Version: 6.00 Build 0)  -->
<svg version="1.1" id="Capa_1" xmlns="http://www.w3.org/2000/svg" xmlns:xlink="http://www.w3.org/1999/xlink" x="0px" y="0px"
	 viewBox="0 0 511.9 511.9" style="enable-background:new 0 0 511.9 511.9;" xml:space="preserve">
<style type="text/css">
	.st0{fill:#C1C1C1;}
	.st1{fill:#03A99B;}
</style>
<g>
	<g>
		<path class="st0" d="M298.7,29.1c-1.6-1.5-4.1-1.5-5.7,0.1l-61.6,64c-1.5,1.6-1.5,4.1,0.1,5.7c0.8,0.7,1.8,1.1,2.8,1.1
			c1,0,2.1-0.4,2.9-1.2l61.6-64C300.4,33.2,300.3,30.6,298.7,29.1z"/>
	</g>
</g>
<g>
	<g>
		<path class="st1" d="M427.9,108c-2.2,0-4,1.8-4,4v363.9H8V112c0-2.2-1.8-4-4-4c-2.2,0-4,1.8-4,4v367.9c0,2.2,1.8,4,4,4h423.9
			c2.2,0,4-1.8,4-4V112C431.9,109.8,430.1,108,427.9,108z"/>
	</g>
</g>
<g>
	<g>
		<path class="st1" d="M507.9,28H84c-2.2,0-4,1.8-4,4s1.8,4,4,4h419.9v363.9c0,2.2,1.8,4,4,4c2.2,0,4-1.8,4-4V32
			C511.9,29.8,510.1,28,507.9,28z"/>
	</g>
</g>
<g>
	<g>
		<path class="st1" d="M510.7,397.1c-1.6-1.6-4.1-1.6-5.7,0l-80,80c-1.6,1.6-1.6,4.1,0,5.7c0.8,0.8,1.8,1.2,2.8,1.2
			c1,0,2-0.4,2.8-1.2l80-80C512.3,401.2,512.3,398.7,510.7,397.1z"/>
	</g>
</g>
<g>
	<g>
		<path class="st1" d="M86.8,29.2c-1.6-1.6-4.1-1.6-5.7,0l-80,80c-1.6,1.6-1.6,4.1,0,5.7C2,115.6,3,116,4,116s2-0.4,2.8-1.2l80-80
			C88.4,33.3,88.4,30.7,86.8,29.2z"/>
	</g>
</g>
<g>
	<g>
		<path class="st1" d="M270.8,29.2c-1.6-1.6-4.1-1.6-5.7,0l-80,80c-1.6,1.6-1.6,4.1,0,5.7c0.8,0.8,1.8,1.2,2.8,1.2
			c1,0,2-0.4,2.8-1.2l80-80C272.3,33.3,272.3,30.7,270.8,29.2z"/>
	</g>
</g>
<g>
	<g>
		<path class="st1" d="M334.8,29.2c-1.6-1.6-4.1-1.6-5.7,0l-80,80c-1.6,1.6-1.6,4.1,0,5.7c0.8,0.8,1.8,1.2,2.8,1.2
			c1,0,2-0.4,2.8-1.2l80-80C336.3,33.3,336.3,30.7,334.8,29.2z"/>
	</g>
</g>
<g>
	<g>
		<path class="st1" d="M510.7,29.2c-1.6-1.6-4.1-1.6-5.7,0l-80,80c-1.6,1.6-1.6,4.1,0,5.7c0.8,0.8,1.8,1.2,2.8,1.2
			c1,0,2-0.4,2.8-1.2l80-80C512.3,33.3,512.3,30.7,510.7,29.2z"/>
	</g>
</g>
<g>
	<g>
		<path class="st1" d="M188,108c-2.2,0-4,1.8-4,4v40c0,2.2,1.8,4,4,4c2.2,0,4-1.8,4-4v-40C192,109.8,190.2,108,188,108z"/>
	</g>
</g>
<g>
	<g>
		<path class="st1" d="M251.9,108c-2.2,0-4,1.8-4,4v40c0,2.2,1.8,4,4,4c2.2,0,4-1.8,4-4v-40C255.9,109.8,254.2,108,251.9,108z"/>
	</g>
</g>
<g>
	<g>
		<path class="st1" d="M254.8,149.1c-1.6-1.6-4.1-1.6-5.7,0l-5.2,5.2l-5.2-5.2c-1.6-1.6-4.1-1.6-5.7,0l-5.2,5.2l-5.2-5.2
			c-1.6-1.6-4.1-1.6-5.7,0l-5.2,5.2l-5.2-5.2c-1.6-1.6-4.1-1.6-5.7,0l-5.2,5.2l-5.2-5.2c-1.6-1.6-4.1-1.6-5.7,0s-1.6,4.1,0,5.7l8,8
			c1.6,1.6,4.1,1.6,5.7,0l5.2-5.2l5.2,5.2c1.6,1.6,4.1,1.6,5.7,0l5.2-5.2l5.2,5.2c1.6,1.6,4.1,1.6,5.7,0l5.2-5.2l5.2,5.2
			c0.8,0.8,1.8,1.2,2.8,1.2c1,0,2-0.4,2.8-1.2l8-8C256.3,153.2,256.3,150.7,254.8,149.1z"/>
	</g>
</g>
<g>
	<g>
		<path class="st1" d="M172,108H4c-2.2,0-4,1.8-4,4s1.8,4,4,4h168c2.2,0,4-1.8,4-4S174.2,108,172,108z"/>
	</g>
</g>
<g>
	<g>
		<path class="st1" d="M427.9,108h-160c-2.2,0-4,1.8-4,4s1.8,4,4,4h160c2.2,0,4-1.8,4-4S430.1,108,427.9,108z"/>
	</g>
</g>
<g>
	<g>
		<path class="st0" d="M172,132H20c-2.2,0-4,1.8-4,4c0,2.2,1.8,4,4,4h152c2.2,0,4-1.8,4-4C176,133.8,174.2,132,172,132z"/>
	</g>
</g>
<g>
	<g>
		<path class="st0" d="M411.9,132h-144c-2.2,0-4,1.8-4,4c0,2.2,1.8,4,4,4h144c2.2,0,4-1.8,4-4C415.9,133.8,414.1,132,411.9,132z"/>
	</g>
</g>
<g>
	<g>
		<path class="st0" d="M236,108h-32c-2.2,0-4,1.8-4,4s1.8,4,4,4h32c2.2,0,4-1.8,4-4S238.2,108,236,108z"/>
	</g>
</g>
<g>
	<g>
		<path class="st0" d="M494.7,69.2c-1.6-1.6-4.1-1.6-5.7,0l-48,48c-1.6,1.6-1.6,4.1,0,5.7c0.8,0.8,1.8,1.2,2.8,1.2
			c1,0,2-0.4,2.8-1.2l48-48C496.3,73.2,496.3,70.7,494.7,69.2z"/>
	</g>
</g>
<g>
	<g>
		<path class="st0" d="M411.9,451.9H20c-2.2,0-4,1.8-4,4c0,2.2,1.8,4,4,4h391.9c2.2,0,4-1.8,4-4
			C415.9,453.7,414.1,451.9,411.9,451.9z"/>
	</g>
</g>
<g>
	<g>
		<path class="st0" d="M494.7,389.1c-1.6-1.6-4.1-1.6-5.7,0l-48,48c-1.6,1.6-1.6,4.1,0,5.7c0.8,0.8,1.8,1.2,2.8,1.2
			c1,0,2-0.4,2.8-1.2l48-48C496.3,393.2,496.3,390.7,494.7,389.1z"/>
	</g>
</g>
<g>
	<g>
		<path class="st0" d="M467.9,132c-2.2,0-4,1.8-4,4v224c0,2.2,1.8,4,4,4c2.2,0,4-1.8,4-4V136C471.9,133.8,470.1,132,467.9,132z"/>
	</g>
</g>
<g>
	<g>
		<path class="st0" d="M403.9,403.9h-24c-2.2,0-4,1.8-4,4v24c0,2.2,1.8,4,4,4h24c2.2,0,4-1.8,4-4v-24
			C407.9,405.7,406.1,403.9,403.9,403.9z M399.9,427.9h-16v-16h16V427.9z"/>
	</g>
</g>
<g>
	<g>
		<path class="st0" d="M363.9,403.9h-24c-2.2,0-4,1.8-4,4v24c0,2.2,1.8,4,4,4h24c2.2,0,4-1.8,4-4v-24
			C367.9,405.7,366.1,403.9,363.9,403.9z M359.9,427.9h-16v-16h16V427.9z"/>
	</g>
</g>
<g>
	<g>
		<path class="st0" d="M124,164H36c-2.2,0-4,1.8-4,4v48c0,2.2,1.8,4,4,4h88c2.2,0,4-1.8,4-4v-48C128,165.8,126.2,164,124,164z
			 M120,212H40v-40h80L120,212z"/>
	</g>
</g>
<g>
	<g>
		<path class="st0" d="M108,180H52c-2.2,0-4,1.8-4,4c0,2.2,1.8,4,4,4h56c2.2,0,4-1.8,4-4C112,181.8,110.2,180,108,180z"/>
	</g>
</g>
<g>
	<g>
		<path class="st0" d="M84,196H52c-2.2,0-4,1.8-4,4c0,2.2,1.8,4,4,4h32c2.2,0,4-1.8,4-4C88,197.7,86.2,196,84,196z"/>
	</g>
</g>
<g>
	<g>
		<path class="st1" d="M216.2,409.7c-6,0-11.6-2.3-15.8-6.6l-72.5-72.5c-8.7-8.7-8.7-22.9,0-31.7l72.5-72.5c8.7-8.7,22.9-8.7,31.7,0
			l72.5,72.5c8.7,8.7,8.7,22.9,0,31.7L232,403.1C227.8,407.4,222.2,409.7,216.2,409.7z M216.2,228c-3.7,0-7.4,1.4-10.2,4.2
			l-72.5,72.5c-5.6,5.6-5.6,14.7,0,20.3l72.5,72.5c5.6,5.6,14.7,5.6,20.3,0l72.5-72.5c5.6-5.6,5.6-14.7,0-20.3l-72.5-72.5
			C223.5,229.4,219.9,228,216.2,228z"/>
	</g>
	<g>
		<path class="st0" d="M187.5,370.5c-2.2,0-4-1.8-4-4s1.8-4,4-4c4.5,0,8.2-3.7,8.2-8.2v-24c0-4.5-3.7-8.2-8.2-8.2h-24
			c-4.5,0-8.2,3.7-8.2,8.2c0,2.2-1.8,4-4,4s-4-1.8-4-4c0-8.9,7.2-16.2,16.2-16.2h24c8.9,0,16.2,7.2,16.2,16.2v24
			C203.7,363.2,196.5,370.5,187.5,370.5z"/>
	</g>
	<path class="st1" d="M259,280.3h-90.2c-2.2,0-4,1.8-4,4s1.8,4,4,4H259c3.6,0,6.6,3,6.6,6.6v19.9c0,3.6-3,6.6-6.6,6.6H228v-22.8
		c0-2.2-1.8-4-4-4s-4,1.8-4,4v84c0,2.2,1.8,4,4,4s4-1.8,4-4v-53.1H259c8.1,0,14.6-6.5,14.6-14.6v-19.9
		C273.6,286.9,267.1,280.3,259,280.3z"/>
	<g>
		<path class="st1" d="M224,275.2c-2.2,0-4-1.8-4-4v-24.9c0-2.2,1.8-4,4-4s4,1.8,4,4v24.9C228,273.4,226.2,275.2,224,275.2z"/>
	</g>
</g>
</svg>
