<?xml version="1.0" encoding="utf-8"?>
<!-- Generator: Adobe Illustrator 19.2.1, SVG Export Plug-In . SVG Version: 6.00 Build 0)  -->
<svg version="1.1" id="Capa_1" xmlns="http://www.w3.org/2000/svg" xmlns:xlink="http://www.w3.org/1999/xlink" x="0px" y="0px"
	 viewBox="0 0 511.9 511.9" style="enable-background:new 0 0 511.9 511.9;" xml:space="preserve">
<style type="text/css">
	.st0{fill:#03A99B;}
	.st1{fill:#C1C1C1;}
</style>
<g>
	<g>
		<path class="st0" d="M276,423.9H68c-2.2,0-4,1.8-4,4c0,2.2,1.8,4,4,4h208c2.2,0,4-1.8,4-4C280,425.7,278.2,423.9,276,423.9z"/>
	</g>
</g>
<g>
	<g>
		<path class="st0" d="M4,80c-2.2,0-4,1.8-4,4v280c0,2.2,1.8,4,4,4c2.2,0,4-1.8,4-4V84C8,81.8,6.2,80,4,80z"/>
	</g>
</g>
<g>
	<g>
		<path class="st0" d="M44,80H4c-2.2,0-4,1.8-4,4s1.8,4,4,4h40c2.2,0,4-1.8,4-4S46.2,80,44,80z"/>
	</g>
</g>
<g>
	<g>
		<path class="st0" d="M372,80h-40c-2.2,0-4,1.8-4,4s1.8,4,4,4h40c2.2,0,4-1.8,4-4S374.2,80,372,80z"/>
	</g>
</g>
<g>
	<g>
		<path class="st0" d="M372,80c-2.2,0-4,1.8-4,4v32c0,2.2,1.8,4,4,4c2.2,0,4-1.8,4-4V84C376,81.8,374.2,80,372,80z"/>
	</g>
</g>
<g>
	<g>
		<path class="st0" d="M324,154H4c-2.2,0-4,1.8-4,4s1.8,4,4,4h320c2.2,0,4-1.8,4-4S326.2,154,324,154z"/>
	</g>
</g>
<g>
	<g>
		<path class="st1" d="M292,439.9H4c-2.2,0-4,1.8-4,4c0,2.2,1.8,4,4,4h288c2.2,0,4-1.8,4-4C296,441.7,294.2,439.9,292,439.9z"/>
	</g>
</g>
<g>
	<g>
		<path class="st1" d="M316,455.9H4c-2.2,0-4,1.8-4,4c0,2.2,1.8,4,4,4h312c2.2,0,4-1.8,4-4C320,457.7,318.2,455.9,316,455.9z"/>
	</g>
</g>
<g>
	<g>
		<path class="st0" d="M70.8,425.1l-64-64c-1.6-1.6-4.1-1.6-5.7,0s-1.6,4.1,0,5.7l64,64c0.8,0.8,1.8,1.2,2.8,1.2s2-0.4,2.8-1.2
			C72.4,429.2,72.4,426.7,70.8,425.1z"/>
	</g>
</g>
<g>
	<g>
		<path class="st0" d="M68,360c-2.2,0-4,1.8-4,4v64c0,2.2,1.8,4,4,4s4-1.8,4-4v-64C72,361.7,70.2,360,68,360z"/>
	</g>
</g>
<g>
	<g>
		<path class="st0" d="M68,360H4c-2.2,0-4,1.8-4,4s1.8,4,4,4h64c2.2,0,4-1.8,4-4S70.2,360,68,360z"/>
	</g>
</g>
<g>
	<g>
		<path class="st1" d="M4,382.3c-2.2,0-4,1.8-4,4v57.7c0,2.2,1.8,4,4,4c2.2,0,4-1.8,4-4v-57.7C8,384.1,6.2,382.3,4,382.3z"/>
	</g>
</g>
<g>
	<g>
		<path class="st1" d="M56,132H32c-2.2,0-4,1.8-4,4c0,2.2,1.8,4,4,4h24c2.2,0,4-1.8,4-4C60,133.8,58.2,132,56,132z"/>
	</g>
</g>
<g>
	<g>
		<path class="st1" d="M104,132H80c-2.2,0-4,1.8-4,4c0,2.2,1.8,4,4,4h24c2.2,0,4-1.8,4-4C108,133.8,106.2,132,104,132z"/>
	</g>
</g>
<g>
	<g>
		<path class="st1" d="M152,132h-24c-2.2,0-4,1.8-4,4c0,2.2,1.8,4,4,4h24c2.2,0,4-1.8,4-4C156,133.8,154.2,132,152,132z"/>
	</g>
</g>
<g>
	<g>
		<path class="st1" d="M200,132h-24c-2.2,0-4,1.8-4,4c0,2.2,1.8,4,4,4h24c2.2,0,4-1.8,4-4C204,133.8,202.2,132,200,132z"/>
	</g>
</g>
<g>
	<g>
		<path class="st1" d="M248,132h-24c-2.2,0-4,1.8-4,4c0,2.2,1.8,4,4,4h24c2.2,0,4-1.8,4-4C252,133.8,250.2,132,248,132z"/>
	</g>
</g>
<g>
	<g>
		<path class="st1" d="M296,132h-24c-2.2,0-4,1.8-4,4c0,2.2,1.8,4,4,4h24c2.2,0,4-1.8,4-4C300,133.8,298.2,132,296,132z"/>
	</g>
</g>
<g>
	<g>
		<path class="st1" d="M344,132h-24c-2.2,0-4,1.8-4,4c0,2.2,1.8,4,4,4h24c2.2,0,4-1.8,4-4C348,133.8,346.2,132,344,132z"/>
	</g>
</g>
<g>
	<g>
		<path class="st0" d="M68,48c-6.6,0-12,5.4-12,12v48c0,6.6,5.4,12,12,12s12-5.4,12-12V60C80,53.4,74.6,48,68,48z M72,108
			c0,2.2-1.8,4-4,4s-4-1.8-4-4V60c0-2.2,1.8-4,4-4s4,1.8,4,4V108z"/>
	</g>
</g>
<g>
	<g>
		<path class="st0" d="M148,48c-6.6,0-12,5.4-12,12v48c0,6.6,5.4,12,12,12s12-5.4,12-12V60C160,53.4,154.6,48,148,48z M152,108
			c0,2.2-1.8,4-4,4s-4-1.8-4-4V60c0-2.2,1.8-4,4-4c2.2,0,4,1.8,4,4V108z"/>
	</g>
</g>
<g>
	<g>
		<path class="st0" d="M228,48c-6.6,0-12,5.4-12,12v48c0,6.6,5.4,12,12,12s12-5.4,12-12V60C240,53.4,234.6,48,228,48z M232,108
			c0,2.2-1.8,4-4,4s-4-1.8-4-4V60c0-2.2,1.8-4,4-4s4,1.8,4,4V108z"/>
	</g>
</g>
<g>
	<g>
		<path class="st0" d="M308,48c-6.6,0-12,5.4-12,12v48c0,6.6,5.4,12,12,12s12-5.4,12-12V60C320,53.4,314.6,48,308,48z M312,108
			c0,2.2-1.8,4-4,4c-2.2,0-4-1.8-4-4V60c0-2.2,1.8-4,4-4c2.2,0,4,1.8,4,4V108z"/>
	</g>
</g>
<g>
	<g>
		<path class="st0" d="M124,80H92c-2.2,0-4,1.8-4,4s1.8,4,4,4h32c2.2,0,4-1.8,4-4S126.2,80,124,80z"/>
	</g>
</g>
<g>
	<g>
		<path class="st0" d="M204,80h-32c-2.2,0-4,1.8-4,4s1.8,4,4,4h32c2.2,0,4-1.8,4-4S206.2,80,204,80z"/>
	</g>
</g>
<g>
	<g>
		<path class="st0" d="M284,80h-32c-2.2,0-4,1.8-4,4s1.8,4,4,4h32c2.2,0,4-1.8,4-4S286.2,80,284,80z"/>
	</g>
</g>
<path class="st0" d="M511.9,336C511.9,336,511.9,336,511.9,336c0-88.3-62.4-155.9-65.1-158.7c-1.5-1.6-4-1.7-5.6-0.3
	c-0.3,0.2-27,23.6-42.5,8.2c-16.2-16.3,0.7-59.3,0.9-59.7c0.6-1.6,0.2-3.4-1.1-4.5c-1.3-1.1-3.1-1.3-4.6-0.5
	c-1.4,0.8-138,78.6-138,215.5l0,0l0,0c0,70.6,57.4,128,128,128c0,0,0,0,0,0C454.5,463.9,511.9,406.5,511.9,336L511.9,336z
	 M384,455.9L384,455.9c-66.2,0-120-53.8-120-120l0,0l0,0c0-111.4,94.3-182.6,124.6-202.7c-4.5,15.4-9.8,43.2,4.5,57.5
	c17.2,17.2,41.7,1.3,50.4-5.3c11.6,13.6,60.4,75.1,60.5,150.4c0,0,0,0,0,0C503.9,402.1,450.1,455.9,384,455.9z"/>
<g>
	<g>
		<g>
			<path class="st0" d="M384.2,240L384.2,240c-2.3,0-4,1.8-4,4c0,2.2,1.8,4,4,4c2.2,0,4-1.8,4-4C388.2,241.8,386.4,240,384.2,240z"
				/>
		</g>
	</g>
	<g>
		<g>
			<path class="st0" d="M384.2,423.9L384.2,423.9c-2.3,0-4,1.8-4,4c0,2.2,1.8,4,4,4c2.2,0,4-1.8,4-4
				C388.2,425.7,386.4,423.9,384.2,423.9z"/>
		</g>
	</g>
	<g>
		<g>
			<path class="st0" d="M338.2,252.3L338.2,252.3c-2.3,0-4,1.8-4,4c0,2.2,1.8,4,4,4c2.2,0,4-1.8,4-4
				C342.2,254.1,340.4,252.3,338.2,252.3z"/>
		</g>
	</g>
	<g>
		<g>
			<path class="st0" d="M430.2,411.6L430.2,411.6c-2.3,0-4,1.8-4,4c0,2.2,1.8,4,4,4c2.2,0,4-1.8,4-4
				C434.2,413.4,432.4,411.6,430.2,411.6z"/>
		</g>
	</g>
	<g>
		<g>
			<path class="st0" d="M304.5,286L304.5,286c-2.3,0-4,1.8-4,4s1.8,4,4,4c2.2,0,4-1.8,4-4S306.7,286,304.5,286z"/>
		</g>
	</g>
	<g>
		<g>
			<path class="st0" d="M463.9,378L463.9,378c-2.3,0-4,1.8-4,4s1.8,4,4,4c2.2,0,4-1.8,4-4S466.1,378,463.9,378z"/>
		</g>
	</g>
	<g>
		<g>
			<path class="st0" d="M292.2,332L292.2,332c-2.3,0-4,1.8-4,4s1.8,4,4,4c2.2,0,4-1.8,4-4S294.4,332,292.2,332z"/>
		</g>
	</g>
	<g>
		<g>
			<path class="st0" d="M476.2,332L476.2,332c-2.3,0-4,1.8-4,4s1.8,4,4,4c2.2,0,4-1.8,4-4S478.4,332,476.2,332z"/>
		</g>
	</g>
	<g>
		<g>
			<path class="st0" d="M304.5,378L304.5,378c-2.3,0-4,1.8-4,4s1.8,4,4,4c2.2,0,4-1.8,4-4S306.7,378,304.5,378z"/>
		</g>
	</g>
	<g>
		<g>
			<path class="st0" d="M463.8,286L463.8,286c-2.3,0-4,1.8-4,4s1.8,4,4,4c2.2,0,4-1.8,4-4S466,286,463.8,286z"/>
		</g>
	</g>
	<g>
		<g>
			<path class="st0" d="M338.2,411.6L338.2,411.6c-2.3,0-4,1.8-4,4c0,2.2,1.8,4,4,4c2.2,0,4-1.8,4-4
				C342.2,413.4,340.4,411.6,338.2,411.6z"/>
		</g>
	</g>
	<g>
		<g>
			<path class="st0" d="M430.2,252.3L430.2,252.3c-2.3,0-4,1.8-4,4c0,2.2,1.8,4,4,4c2.2,0,4-1.8,4-4
				C434.2,254.1,432.4,252.3,430.2,252.3z"/>
		</g>
	</g>
</g>
<g>
	<g>
		<path class="st0" d="M384,264c-2.2,0-4,1.8-4,4v68c0,2.2,1.8,4,4,4c2.2,0,4-1.8,4-4v-68C387.9,265.8,386.2,264,384,264z"/>
	</g>
</g>
<g>
	<g>
		<path class="st0" d="M430.8,377.1l-44-44c-1.6-1.6-4.1-1.6-5.7,0s-1.6,4.1,0,5.7l44,44c0.8,0.8,1.8,1.2,2.8,1.2s2-0.4,2.8-1.2
			C432.3,381.2,432.3,378.7,430.8,377.1z"/>
	</g>
</g>
<g>
	<g>
		<path class="st1" d="M300,176c-2.2,0-4,1.8-4,4v8c0,2.2,1.8,4,4,4s4-1.8,4-4v-8C304,177.8,302.2,176,300,176z"/>
	</g>
</g>
<path class="st1" d="M204,176h-32c-2.2,0-4,1.8-4,4v32c0,2.2,1.8,4,4,4h32c2.2,0,4-1.8,4-4v-32C208,177.8,206.2,176,204,176z
	 M200,208h-24v-24h24V208z"/>
<path class="st1" d="M252,176h-32c-2.2,0-4,1.8-4,4v32c0,2.2,1.8,4,4,4h32c2.2,0,4-1.8,4-4v-32C256,177.8,254.2,176,252,176z
	 M248,208L248,208h-24v-24h24V208z"/>
<path class="st1" d="M28,264h32c2.2,0,4-1.8,4-4v-32c0-2.2-1.8-4-4-4H28c-2.2,0-4,1.8-4,4v32C24,262.2,25.8,264,28,264z M32,232h24
	v24H32V232z"/>
<path class="st1" d="M76,264h32c2.2,0,4-1.8,4-4v-32c0-2.2-1.8-4-4-4H76c-2.2,0-4,1.8-4,4v32C72,262.2,73.8,264,76,264z M80,232h24
	v24h0H80V232z"/>
<path class="st1" d="M156,224h-32c-2.2,0-4,1.8-4,4v32c0,2.2,1.8,4,4,4h32c2.2,0,4-1.8,4-4v-32C160,225.8,158.2,224,156,224z
	 M152,256h-24v-24h24V256z"/>
<path class="st1" d="M204,224h-32c-2.2,0-4,1.8-4,4v32c0,2.2,1.8,4,4,4h32c2.2,0,4-1.8,4-4v-32C208,225.8,206.2,224,204,224z
	 M200,256h-24v-24h24V256z"/>
<path class="st1" d="M252,224h-32c-2.2,0-4,1.8-4,4v32c0,2.2,1.8,4,4,4h32c2.2,0,4-1.8,4-4v-32C256,225.8,254.2,224,252,224z
	 M248,256L248,256h-24v-24h24V256z"/>
<path class="st1" d="M272,228c0-2.2-1.8-4-4-4s-4,1.8-4,4v8c0,2.2,1.8,4,4,4s4-1.8,4-4V228z"/>
<path class="st1" d="M28,312h32c2.2,0,4-1.8,4-4v-32c0-2.2-1.8-4-4-4H28c-2.2,0-4,1.8-4,4v32C24,310.2,25.8,312,28,312z M32,280h24
	v24H32V280z"/>
<path class="st1" d="M76,312h32c2.2,0,4-1.8,4-4v-32c0-2.2-1.8-4-4-4H76c-2.2,0-4,1.8-4,4v32C72,310.2,73.8,312,76,312z M80,280h24
	v24h0H80V280z"/>
<path class="st1" d="M156,272h-32c-2.2,0-4,1.8-4,4v32c0,2.2,1.8,4,4,4h32c2.2,0,4-1.8,4-4v-32C160,273.8,158.2,272,156,272z
	 M152,304h-24v-24h24V304z"/>
<path class="st1" d="M204,272h-32c-2.2,0-4,1.8-4,4v32c0,2.2,1.8,4,4,4h32c2.2,0,4-1.8,4-4v-32C208,273.8,206.2,272,204,272z
	 M200,304h-24v-24h24V304z"/>
<path class="st1" d="M252,272h-32c-2.2,0-4,1.8-4,4v32c0,2.2,1.8,4,4,4h24c2.2,0,4-1.8,4-4c0-2.2-1.8-4-4-4h-20v-24h28
	c2.2,0,4-1.8,4-4S254.2,272,252,272z"/>
<path class="st1" d="M156,320h-32c-2.2,0-4,1.8-4,4v32c0,2.2,1.8,4,4,4h32c2.2,0,4-1.8,4-4v-32C160,321.7,158.2,320,156,320z
	 M152,352h-24v-24h24V352z"/>
<path class="st1" d="M204,320h-32c-2.2,0-4,1.8-4,4v32c0,2.2,1.8,4,4,4h32c2.2,0,4-1.8,4-4v-32C208,321.7,206.2,320,204,320z
	 M200,352h-24v-24h24V352z"/>
<path class="st1" d="M244,328c2.2,0,4-1.8,4-4c0-2.2-1.8-4-4-4h-24c-2.2,0-4,1.8-4,4v32c0,2.2,1.8,4,4,4h24c2.2,0,4-1.8,4-4
	c0-2.2-1.8-4-4-4h-20v-24H244z"/>
<path class="st1" d="M156,368h-32c-2.2,0-4,1.8-4,4v32c0,2.2,1.8,4,4,4h32c2.2,0,4-1.8,4-4v-32C160,369.7,158.2,368,156,368z
	 M152,399.9h-24v-24h24V399.9z"/>
<path class="st1" d="M204,368h-32c-2.2,0-4,1.8-4,4v32c0,2.2,1.8,4,4,4h32c2.2,0,4-1.8,4-4v-32C208,369.7,206.2,368,204,368z
	 M200,399.9h-24v-24h24V399.9z"/>
<path class="st1" d="M61.5,320.3c-0.5-0.2-1-0.3-1.6-0.3H28c-2.2,0-4,1.8-4,4v24c0,2.2,1.8,4,4,4c2.2,0,4-1.8,4-4v-20h24v20
	c0,2.2,1.8,4,4,4s4-1.8,4-4v-24C64,322.3,63,320.9,61.5,320.3z"/>
<path class="st1" d="M112,324c0-2.2-1.8-4-4-4H76c-2.2,0-4,1.8-4,4v24c0,2.2,1.8,4,4,4c2.2,0,4-1.8,4-4v-20h24v24H84
	c-2.2,0-4,1.8-4,4c0,2.2,1.8,4,4,4h24c0,0,0,0,0,0s0,0,0,0h0c2.2,0,4-1.8,4-4c0,0,0,0,0,0V324z"/>
<path class="st1" d="M112,372c0-0.8-0.2-1.5-0.6-2.1c-0.7-1.1-2-1.9-3.4-1.9H84c-2.2,0-4,1.8-4,4c0,2.2,1.8,4,4,4h20v24H84
	c-2.2,0-4,1.8-4,4s1.8,4,4,4h24c2.2,0,4-1.8,4-4c0,0,0,0,0,0L112,372C112,372,112,372,112,372z"/>
<path class="st1" d="M384,224c-61.8,0-112,50.2-112,112s50.2,112,112,112c61.7,0,112-50.2,112-112S445.7,224,384,224z M384,439.9
	c-57.3,0-104-46.7-104-104s46.7-104,104-104c57.3,0,104,46.7,104,104S441.3,439.9,384,439.9z"/>
<path class="st1" d="M268,216h8c2.2,0,4-1.8,4-4s-1.8-4-4-4h-4v-24h28c2.2,0,4-1.8,4-4c0-2.2-1.8-4-4-4h-32c-2.2,0-4,1.8-4,4v32
	C264,214.2,265.8,216,268,216z"/>
<path class="st1" d="M252,384c-2.2,0-4,1.8-4,4v12h-24v-24h20c2.2,0,4-1.8,4-4c0-2.2-1.8-4-4-4h-24c-2.2,0-4,1.8-4,4v32
	c0,2.2,1.8,4,4,4h32c2.2,0,4-1.8,4-4l0,0v0v-16C256,385.7,254.2,384,252,384z"/>
</svg>
