<?xml version="1.0" encoding="utf-8"?>
<!-- Generator: Adobe Illustrator 19.2.1, SVG Export Plug-In . SVG Version: 6.00 Build 0)  -->
<svg version="1.1" id="Capa_1" xmlns="http://www.w3.org/2000/svg" xmlns:xlink="http://www.w3.org/1999/xlink" x="0px" y="0px"
	 viewBox="0 0 512 512" style="enable-background:new 0 0 512 512;" xml:space="preserve">
<style type="text/css">
	.st0{fill:#C1C1C1;}
	.st1{fill:#03A99B;}
</style>
<g>
	<path class="st0" d="M181,221.5c-12.4,0-24.9-2.3-30.8-7l5-6.3c9.4,7.5,43.8,6.5,50.6,0.2l5.4,5.9
		C206.1,219.1,193.6,221.5,181,221.5z"/>
	<path class="st0" d="M181.7,257c-14.6,0-29.4-2.2-36.2-6.7l4.4-6.7c11.6,7.7,54,6.6,62.3,0.2l4.9,6.3
		C211.2,254.7,196.5,257,181.7,257z"/>
	<path class="st0" d="M179.7,140.8c-7.3,0-14.6-1.1-18.2-3.3l4.2-6.8c4.8,3,24,2.6,27.4,0.2l4.7,6.5
		C194.6,139.6,187.2,140.8,179.7,140.8z"/>
	<path class="st0" d="M180.7,181.6c-9.8,0-19.6-1.4-24.3-4.2l4.1-6.9c7.1,4.3,34.5,3.7,39.6,0.2l4.6,6.6
		C200.6,180.1,190.7,181.6,180.7,181.6z"/>
	<path class="st1" d="M307.2,52.7C273.2,18.7,228,0,179.9,0C131.9,0,86.7,18.7,52.7,52.7c-70.2,70.2-70.2,184.3,0,254.5
		c34,34,79.2,52.7,127.3,52.7c48.1,0,93.3-18.7,127.3-52.7c34-34,52.7-79.2,52.7-127.3C359.9,131.9,341.2,86.7,307.2,52.7z
		 M301.6,301.6c-32.5,32.5-75.7,50.4-121.6,50.4s-89.1-17.9-121.6-50.4c-67-67-67-176.2,0-243.2C90.8,25.9,134,8,179.9,8
		c45.9,0,89.1,17.9,121.6,50.4c32.5,32.5,50.4,75.7,50.4,121.6C351.9,225.9,334,269.1,301.6,301.6z"/>
	<path class="st0" d="M295.9,64c-31-31-72.1-48-115.9-48c-43.8,0-85,17.1-115.9,48C33,95,16,136.2,16,180c0,43.8,17.1,85,48,115.9
		c31,31,72.1,48,115.9,48c43.8,0,85-17.1,116-48C359.8,232,359.8,128,295.9,64z M290.2,290.3c-29.5,29.4-68.6,45.7-110.3,45.7
		c-41.7,0-80.8-16.2-110.3-45.7C40.2,260.8,24,221.7,24,180c0-41.7,16.2-80.8,45.7-110.3C99.1,40.3,138.3,24,180,24
		c41.7,0,80.8,16.2,110.3,45.7C351,130.5,351,229.5,290.2,290.3z"/>
	<path class="st0" d="M179.9,48c-72.8,0-132,59.2-132,132c0,2.2,1.8,4,4,4c2.2,0,4-1.8,4-4c0-68.4,55.6-124,124-124c2.2,0,4-1.8,4-4
		C183.9,49.8,182.1,48,179.9,48z"/>
	<path class="st0" d="M338,360.7l-36.4-36.4c-1.6-1.6-4.1-1.6-5.7,0c-1.6,1.6-1.6,4.1,0,5.7l36.4,36.4c0.8,0.8,1.8,1.2,2.8,1.2
		s2-0.4,2.8-1.2C339.6,364.8,339.6,362.2,338,360.7z"/>
	<path class="st0" d="M366.3,332.4l-36.4-36.5c-1.6-1.6-4.1-1.6-5.7,0c-1.6,1.6-1.6,4.1,0,5.7l36.4,36.5c0.8,0.8,1.8,1.2,2.8,1.2
		c1,0,2-0.4,2.8-1.2C367.8,336.5,367.8,334,366.3,332.4z"/>
	<path class="st1" d="M502.6,457.3c-0.1-0.1-0.2-0.2-0.3-0.3c-0.1-0.1-0.1-0.2-0.2-0.3L371.9,326.7c0,0,0,0,0,0
		c-0.8-0.8-1.8-1.2-2.8-1.2c-1,0-2,0.4-2.8,1.2c0,0,0,0,0,0l-39.6,39.6c0,0,0,0,0,0c-1.6,1.6-1.6,4.1,0,5.7l130.6,130.6
		c6,6.1,14.1,9.4,22.6,9.4c0,0,0,0,0,0c8.5,0,16.6-3.3,22.6-9.4c6.1-6,9.4-14.1,9.4-22.6C511.9,471.4,508.6,463.4,502.6,457.3z
		 M496.9,497c-4.5,4.5-10.5,7-16.9,7c0,0,0,0,0,0c-6.4,0-12.4-2.5-17-7c0,0,0,0,0,0L335.2,369.2l33.9-33.9l127.3,127.3
		c0.1,0.1,0.2,0.2,0.3,0.3c0.1,0.1,0.1,0.2,0.2,0.3c4.5,4.5,7,10.6,7,17C503.9,486.4,501.4,492.4,496.9,497z"/>
	<path class="st1" d="M491.2,468.7L371.9,349.3c-1.6-1.6-4.1-1.6-5.7,0c-1.6,1.6-1.6,4.1,0,5.7l119.3,119.3c0.8,0.8,1.8,1.2,2.8,1.2
		s2-0.4,2.8-1.2C492.8,472.8,492.8,470.2,491.2,468.7z"/>
	<path class="st1" d="M179.9,281.6c-35.6,0-38.2-13-38.4-15.6c0-0.3,0-0.5,0-0.8l24.2-175.3c0.7-5.3,5.4-9.4,10.7-9.4h5
		c5.3,0,9.8,3.8,10.7,9.1l29.1,175.5c0.1,0.6,0.1,1.3-0.1,1.9C220.6,268.5,215.5,281.6,179.9,281.6z M149.6,265.6c1,2.5,8,8,30.3,8
		c24.6,0,31.6-6.4,33.2-8.6L184.3,90.9c-0.2-1.4-1.4-2.4-2.8-2.4h-5c-1.4,0-2.6,1.1-2.8,2.5L149.6,265.6z"/>
	<path class="st1" d="M210.8,302.3c-0.9,0-1.7-0.1-2.6-0.2l-84.8-12c-3-0.4-5.5-2.5-6.4-5.4c-0.9-2.9-0.1-6,2.1-8.1l25-23.5
		c1.6-1.5,4.1-1.4,5.7,0.2c1.5,1.6,1.4,4.1-0.2,5.7l-24.8,23.3l84.6,12c3.8,0.5,7.5-1,9.8-4.1l17.8-24.2l-21.6-3.8
		c-2.2-0.4-3.6-2.5-3.2-4.6s2.5-3.6,4.6-3.2l21.8,3.8c2.7,0.5,4.9,2.3,5.9,4.8c1,2.5,0.7,5.4-1,7.6l-17.9,24.4
		C222.1,299.6,216.6,302.3,210.8,302.3z"/>
</g>
</svg>
