<?xml version="1.0" encoding="utf-8"?>
<!-- Generator: Adobe Illustrator 19.2.1, SVG Export Plug-In . SVG Version: 6.00 Build 0)  -->
<svg version="1.1" id="Capa_1" xmlns="http://www.w3.org/2000/svg" xmlns:xlink="http://www.w3.org/1999/xlink" x="0px" y="0px"
	 viewBox="0 0 512 512" style="enable-background:new 0 0 512 512;" xml:space="preserve">
<style type="text/css">
	.st0{fill:#03A99B;}
	.st1{fill:#C1C1C1;}
</style>
<path class="st0" d="M108.2,249.3l2.6-2.6c1.6-1.6,1.6-4.1,0-5.7c-1.6-1.6-4.1-1.6-5.7,0l-5.2,5.2l-5.2-5.2c-1.6-1.6-4.1-1.6-5.7,0
	c-1.6,1.6-1.6,4.1,0,5.7l2.6,2.6L88,283.3c-0.2,2.2,1.3,4.2,3.5,4.4c0.2,0,0.3,0,0.5,0c2,0,3.7-1.5,4-3.6l3.2-28.5
	c0.3,0.1,0.6,0.1,0.9,0.1c0.3,0,0.6,0,0.9-0.1l3.2,28.5c0.2,2,2,3.6,4,3.6c0.1,0,0.3,0,0.5,0c2.2-0.2,3.8-2.2,3.5-4.4L108.2,249.3z"
	/>
<path class="st1" d="M256.2,391.8L256.2,391.8c-2.3,0-4,1.8-4,4c0,2.2,1.8,4,4,4c2.2,0,4-1.8,4-4
	C260.2,393.6,258.4,391.8,256.2,391.8z"/>
<path class="st1" d="M256.2,415.8L256.2,415.8c-2.3,0-4,1.8-4,4s1.8,4,4,4c2.2,0,4-1.8,4-4S258.4,415.8,256.2,415.8z"/>
<g>
	<g>
		<path class="st0" d="M344.9,142.3c-11.3-13.2-26.7-14.9-34-14.6c-1.6-7-3.6-24.6,14.5-32.1c1.7-0.7,2.7-2.4,2.5-4.2
			c-0.2-1.8-1.6-3.2-3.3-3.5c-0.6-0.1-14.2-2.2-33.8-2.2c-34.6,0-81.9,6.6-110.8,38.3c-19.4,21.3-27.5,51-24,88.2
			c0.2,1.7,1.3,3.1,3,3.5c0.3,0.1,0.7,0.1,1,0.1c1.3,0,2.5-0.6,3.3-1.7l26.1-37.3c9.1,4,36.7,15,66.4,15c29.7,0,57.7-11,66.8-15
			l26.1,37.3c0.9,1.3,2.6,2,4.2,1.6c1.6-0.4,2.8-1.7,3-3.3C360.9,180.2,357.2,156.6,344.9,142.3z M349.3,201.1l-22.1-31.5
			c-0.8-1.1-2-1.7-3.3-1.7c-0.6,0-1.2,0.1-1.7,0.4c-0.3,0.2-32.7,15.6-66.5,15.6c-33.7,0-65.7-15.4-66-15.6c-1.8-0.9-3.9-0.3-5,1.3
			l-21.4,30.6c-0.8-29.6,6.8-53.4,22.7-70.8c26.9-29.5,71.9-35.7,104.9-35.7c8.4,0,15.7,0.4,21.3,0.9c-12.6,11.4-11.2,29.3-7.9,38.6
			c0.6,1.8,2.5,2.9,4.3,2.6c0.1,0,1.3-0.2,3.3-0.2c6.3,0,18.2,1.5,27,11.9C348.2,158.5,351.8,176.5,349.3,201.1z"/>
	</g>
</g>
<g>
	<g>
		<path class="st0" d="M412,263.8L412,263.8c-2.3,0-4,1.8-4,4s1.8,4,4,4c2.2,0,4-1.8,4-4S414.2,263.8,412,263.8z"/>
	</g>
</g>
<g>
	<g>
		<path class="st1" d="M467.8,163.1c-2.2,0-4,1.8-4,4c0,33.4-32.4,64.7-52,64.7c-10.6,0-25.7-9.9-36.7-24.1
			c-1.4-1.8-3.9-2.1-5.6-0.7c-1.8,1.4-2.1,3.9-0.7,5.6c12.6,16.3,29.9,27.2,43.1,27.2c22.6,0,60-34,60-72.7
			C471.8,164.9,470,163.1,467.8,163.1z"/>
	</g>
</g>
<g>
	<g>
		<path class="st1" d="M489.2,244.2c-1.9-0.7-4.3-1.5-6.9-2.4l-5.4-1.8c-2-0.7-4.4,0.4-5.1,2.5c-0.7,2.1,0.4,4.4,2.5,5.1l5.4,1.8
			c2.5,0.8,4.8,1.6,6.6,2.3c13.8,5.2,17.6,9.4,17.6,19.8v16.2H347.9c-2.2,0-4,1.8-4,4s1.8,4,4,4H508c2.2,0,4-1.8,4-4v-20.2
			C512,255.8,503.6,249.6,489.2,244.2z"/>
	</g>
</g>
<g>
	<g>
		<path class="st1" d="M100,287.8H8v-22.7c0-10.3,3.7-14.5,17.4-19.6c8.3-3.1,19.1-7.3,28.3-11.7c2-1,2.8-3.3,1.9-5.3
			c-1-2-3.3-2.8-5.3-1.9c-8.9,4.3-19.5,8.3-27.7,11.4C8.3,243.4,0,249.6,0,265.1v26.7c0,2.2,1.8,4,4,4h96c2.2,0,4-1.8,4-4
			S102.2,287.8,100,287.8z"/>
	</g>
</g>
<g>
	<g>
		<path class="st1" d="M163.9,287.8H100c-2.2,0-4,1.8-4,4s1.8,4,4,4h63.9c2.2,0,4-1.8,4-4S166.1,287.8,163.9,287.8z"/>
	</g>
</g>
<g>
	<g>
		<path class="st1" d="M142.3,198.7c-1.8-1.3-4.3-0.9-5.6,0.9c-11,14.9-25.9,25.3-36.5,25.3c-19.6,0-52-33.4-52-69c0-2.2-1.8-4-4-4
			c-2.2,0-4,1.8-4,4c0,41,37.4,77,60,77c13.3,0,30.2-11.2,42.9-28.6C144.5,202.5,144.1,200,142.3,198.7z"/>
	</g>
</g>
<g>
	<g>
		<path class="st0" d="M103.8,234c-1-2-3.4-2.8-5.4-1.8l-13.5,6.7l-22-22c-1.6-1.6-4.1-1.6-5.7,0s-1.6,4.1,0,5.7l24,24
			c0.8,0.8,1.8,1.2,2.8,1.2c0.6,0,1.2-0.1,1.8-0.4l16.1-8C104,238.4,104.8,236,103.8,234z"/>
	</g>
</g>
<g>
	<g>
		<path class="st0" d="M142.9,217c-1.6-1.6-4.1-1.6-5.7,0l-22,22l-13.5-6.7c-2-1-4.4-0.2-5.4,1.8c-1,2-0.2,4.4,1.8,5.4l16.1,8
			c0.6,0.3,1.2,0.4,1.8,0.4c1,0,2.1-0.4,2.8-1.2l24-24C144.5,221.1,144.5,218.5,142.9,217z"/>
	</g>
</g>
<g>
	<g>
		<path class="st1" d="M136.3,82.6c-32.1-21.3-83.5-3.3-85.7-2.5c-1.3,0.5-2.3,1.6-2.6,3c-0.3,1.4,0.2,2.8,1.2,3.7l4.6,4.3
			C44.1,97.5,24,115.6,24,155.8c0,1.4,0.8,2.8,2,3.5c0.6,0.4,1.3,0.5,2,0.5c0.7,0,1.4-0.2,2-0.5c0.6-0.3,57.9-33.3,106.9-31.6
			l7.5,14c1,2,3.5,2.7,5.4,1.6c1.9-1,2.7-3.5,1.6-5.4l-8.6-16c-0.7-1.2-1.9-2-3.3-2.1c-42.7-2.5-90.5,20.2-107.4,29.1
			c2.7-41,28.8-52.9,30-53.5c1.2-0.5,2.1-1.7,2.4-3c0.2-1.3-0.2-2.7-1.2-3.6l-3.5-3.3c14.4-4,49.5-11.3,72.1,3.6
			c12.6,8.4,19.5,22.7,20.6,42.8c0.1,2.2,1.9,4.1,4.2,3.8c2.2-0.1,3.9-2,3.8-4.2C159.2,108.9,151.1,92.4,136.3,82.6z"/>
	</g>
</g>
<g>
	<g>
		<path class="st1" d="M483.9,151.8c-2.2,0-4,1.8-4,4v74.9c0,2.2,1.8,4,4,4c2.2,0,4-1.8,4-4v-74.9
			C487.9,153.6,486.1,151.8,483.9,151.8z"/>
	</g>
</g>
<g>
	<g>
		<path class="st1" d="M411.9,79.8c-29.1,0-55.2,16.2-68.1,42.2c-1,2-0.2,4.4,1.8,5.4c0.6,0.3,1.2,0.4,1.8,0.4
			c1.5,0,2.9-0.8,3.6-2.2c11.6-23.3,34.9-37.8,60.9-37.8c2.2,0,4-1.8,4-4S414.1,79.8,411.9,79.8z"/>
	</g>
</g>
<g>
	<g>
		<path class="st1" d="M411.9,79.8c-2.2,0-4,1.8-4,4s1.8,4,4,4c37.5,0,68,30.5,68,68c0,2.2,1.8,4,4,4c2.2,0,4-1.8,4-4
			C487.9,113.9,453.8,79.8,411.9,79.8z"/>
	</g>
</g>
<g>
	<g>
		<path class="st1" d="M468.5,105.2c-1.5-1.7-4-1.8-5.6-0.3c-0.4,0.3-38.4,33.8-92.1,48.8c-2.1,0.6-3.4,2.8-2.8,4.9
			c0.5,1.8,2.1,2.9,3.8,2.9c0.4,0,0.7,0,1.1-0.1c55.5-15.5,93.7-49.2,95.3-50.6C469.9,109.3,470,106.8,468.5,105.2z"/>
	</g>
</g>
<g>
	<g>
		<path class="st1" d="M484.9,159.9c-36.2-9.5-53.9-28.6-54-28.8c-1.5-1.6-4-1.8-5.6-0.3c-1.6,1.5-1.8,4-0.3,5.6
			c0.8,0.9,19.2,21,57.9,31.2c0.3,0.1,0.7,0.1,1,0.1c1.8,0,3.4-1.2,3.9-3C488.3,162.7,487,160.5,484.9,159.9z"/>
	</g>
</g>
<g>
	<g>
		<path class="st1" d="M467.8,154.6c-2.2,0-4,1.8-4,4v8.5c0,2.2,1.8,4,4,4c2.2,0,4-1.8,4-4v-8.5C471.8,156.4,470,154.6,467.8,154.6z
			"/>
	</g>
</g>
<g>
	<g>
		<path class="st0" d="M470.2,232.5l-16-11.3c-1.8-1.3-4.3-0.8-5.6,1c-1.3,1.8-0.8,4.3,1,5.6l11.2,7.9l-19.1,12.8
			c-1,0.7-1.6,1.7-1.8,2.9c-0.1,1.2,0.3,2.4,1.2,3.2l5.2,5.2l-21,21.2c-1.6,1.6-1.5,4.1,0,5.7c0.8,0.8,1.8,1.2,2.8,1.2
			c1,0,2.1-0.4,2.8-1.2l23.8-24c1.5-1.6,1.5-4.1,0-5.6l-4.5-4.6l19.9-13.3c1.1-0.7,1.8-2,1.8-3.3
			C471.9,234.5,471.3,233.3,470.2,232.5z"/>
	</g>
</g>
<g>
	<g>
		<path class="st0" d="M398.6,281l-21-21.2l5.2-5.2c0.8-0.8,1.3-2,1.2-3.2c-0.1-1.2-0.8-2.3-1.8-2.9l-8-5.3
			c-1.8-1.2-4.3-0.7-5.5,1.1c-1.2,1.8-0.7,4.3,1.1,5.5l3.9,2.6l-4.5,4.6c-1.6,1.6-1.6,4.1,0,5.6l23.8,24c0.8,0.8,1.8,1.2,2.8,1.2
			c1,0,2-0.4,2.8-1.2C400.1,285.1,400.1,282.5,398.6,281z"/>
	</g>
</g>
<g>
	<g>
		<path class="st0" d="M438.7,241c-1.6-1.6-4.1-1.6-5.7,0c-0.1,0.1-7.2,6.8-21.2,6.8s-20.9-6.6-21.2-6.9c-1.5-1.5-4.1-1.5-5.6,0
			c-1.6,1.6-1.6,4.1,0,5.7c0.4,0.4,9.4,9.2,26.8,9.2s26.5-8.8,26.8-9.1C440.3,245.1,440.3,242.6,438.7,241z"/>
	</g>
</g>
<path class="st1" d="M256.2,375.8c2.2,0,4-1.8,4-4c0-2.2-1.8-4-4-4h-0.1c-2.2,0-4,1.8-4,4C252.1,374,253.9,375.8,256.2,375.8z"/>
<path class="st0" d="M388.5,353.9c-12.2-4.6-39.5-15.2-54.9-22.9c-2-1-4.4-0.2-5.4,1.8c-1,2-0.2,4.4,1.8,5.4
	c15.7,7.8,43.2,18.6,55.6,23.2c20.4,7.6,30.2,14.7,30.2,34.5v35.9h-320v-35.9c0-19.7,9.7-26.8,30.2-34.5c12.4-4.6,40-15.4,55.6-23.2
	c2-1,2.8-3.4,1.8-5.4c-1-2-3.4-2.8-5.4-1.8c-15.3,7.6-42.6,18.3-54.9,22.9c-22.9,8.6-35.4,17.8-35.4,42v39.9c0,2.2,1.8,4,4,4h328
	c2.2,0,4-1.8,4-4v-39.9C423.9,371.7,411.5,362.5,388.5,353.9z"/>
<path class="st0" d="M255.9,343.8c37.7,0,100-58,100-124.2c0-2.2-1.8-4-4-4c-2.2,0-4,1.8-4,4c0,59.9-57.4,116.2-92,116.2
	c-34.6,0-92-56.3-92-116.2c0-2.2-1.8-4-4-4s-4,1.8-4,4C155.9,285.8,218.2,343.8,255.9,343.8z"/>
<path class="st1" d="M184,324.4c0,0.1,0,0.2,0.1,0.4c0,0.1,0.1,0.2,0.1,0.4c0,0.1,0.1,0.3,0.1,0.4c0.1,0.1,0.1,0.2,0.2,0.3
	c0.1,0.1,0.1,0.2,0.2,0.4c0,0,0.1,0.1,0.1,0.1l32,40c0,0,0.1,0,0.1,0.1c0.2,0.2,0.3,0.4,0.5,0.5c0,0,0.1,0.1,0.1,0.1
	c0.2,0.1,0.4,0.2,0.6,0.3c0.1,0,0.1,0.1,0.2,0.1c0.2,0.1,0.5,0.2,0.7,0.2c0.1,0,0.1,0,0.2,0c0.3,0.1,0.5,0.1,0.8,0.1
	c0.2,0,0.4,0,0.6,0c0,0,0.1,0,0.1,0c0.2,0,0.4-0.1,0.5-0.1c0,0,0,0,0,0c0.2-0.1,0.3-0.1,0.5-0.2l32-16c2-1,2.8-3.4,1.8-5.4
	c-1-2-3.4-2.8-5.4-1.8L221,358.8l-29.1-36.4v-6.6c0-2.2-1.8-4-4-4c-2.2,0-4,1.8-4,4v8c0,0.1,0,0.1,0,0.2
	C183.9,324.1,184,324.2,184,324.4z"/>
<path class="st1" d="M327.9,315.8c0-2.2-1.8-4-4-4c-2.2,0-4,1.8-4,4v6.6l-29.1,36.4l-29.1-14.5c-2-1-4.4-0.2-5.4,1.8
	c-1,2-0.2,4.4,1.8,5.4l32,16c0.2,0.1,0.3,0.1,0.5,0.2c0,0,0.1,0,0.1,0c0.2,0.1,0.3,0.1,0.5,0.1c0.1,0,0.1,0,0.2,0c0.2,0,0.4,0,0.6,0
	c0.3,0,0.5,0,0.8-0.1c0.1,0,0.1,0,0.2,0c0.2-0.1,0.5-0.1,0.7-0.2c0.1,0,0.1-0.1,0.2-0.1c0.2-0.1,0.4-0.2,0.5-0.3
	c0,0,0.1-0.1,0.1-0.1c0.2-0.2,0.4-0.3,0.5-0.5c0,0,0.1,0,0.1-0.1l32-40c0,0,0-0.1,0.1-0.1c0.1-0.1,0.2-0.3,0.2-0.4
	c0.1-0.1,0.1-0.2,0.2-0.3c0.1-0.1,0.1-0.3,0.2-0.4c0-0.1,0.1-0.2,0.1-0.4c0-0.1,0-0.2,0.1-0.3c0-0.2,0-0.3,0-0.5c0,0,0-0.1,0-0.1
	V315.8z"/>
</svg>
