<?xml version="1.0" encoding="utf-8"?>
<!-- Generator: Adobe Illustrator 19.2.1, SVG Export Plug-In . SVG Version: 6.00 Build 0)  -->
<svg version="1.1" id="Слой_1" xmlns="http://www.w3.org/2000/svg" xmlns:xlink="http://www.w3.org/1999/xlink" x="0px" y="0px"
	 viewBox="0 0 512 512" style="enable-background:new 0 0 512 512;" xml:space="preserve">
<style type="text/css">
	.st0{fill:#03A99B;}
</style>
<g>
	<g>
		<path class="st0" d="M480.6,319c-11.3,0-20.4,9.1-20.4,20.4v120.7H51.8V339.4c0-11.3-9.1-20.4-20.4-20.4S11,328.1,11,339.4v141.2
			c0,11.3,9.1,20.4,20.4,20.4h449.2c11.3,0,20.4-9.1,20.4-20.4V339.4C501,328.1,491.9,319,480.6,319z"/>
		<path class="st0" d="M241.6,352.7c11.1,10.7,24.4,5.2,28.9,0l124.2-124.1c8-8,8-20.9,0-28.9s-20.9-8-28.9,0L276.4,289V29.8
			c0-11.3-9.1-20.4-20.4-20.4c-11.3,0-20.4,9.1-20.4,20.4v259.1l-89.4-89.3c-8-8-20.9-8-28.9,0s-8,20.9,0,28.9L241.6,352.7
			L241.6,352.7z"/>
	</g>
</g>
</svg>
