<?xml version="1.0" encoding="utf-8"?>
<!-- Generator: Adobe Illustrator 19.2.1, SVG Export Plug-In . SVG Version: 6.00 Build 0)  -->
<svg version="1.1" id="Capa_1" xmlns="http://www.w3.org/2000/svg" xmlns:xlink="http://www.w3.org/1999/xlink" x="0px" y="0px"
	 viewBox="0 0 489.7 489.7" style="enable-background:new 0 0 489.7 489.7;" xml:space="preserve">
<style type="text/css">
	.st0{fill:#333333;}
</style>
<g>
	<g>
		<path class="st0" d="M52.7,134.8c29.1,0,52.7-23.7,52.7-52.7S81.8,29.3,52.7,29.3S0,53,0,81.9S23.7,134.8,52.7,134.8z M52.7,53.8
			c15.6,0,28.2,12.7,28.2,28.2s-12.7,28.2-28.2,28.2S24.5,97.4,24.5,81.9S37.2,53.8,52.7,53.8z"/>
		<path class="st0" d="M52.7,297.5c29.1,0,52.7-23.7,52.7-52.7s-23.6-52.7-52.7-52.7S0,215.8,0,244.9S23.7,297.5,52.7,297.5z
			 M52.7,216.6c15.6,0,28.2,12.7,28.2,28.2S68.2,273,52.7,273s-28.2-12.6-28.2-28.2S37.2,216.6,52.7,216.6z"/>
		<path class="st0" d="M52.7,460.5c29.1,0,52.7-23.7,52.7-52.7c0-29.1-23.7-52.7-52.7-52.7S0,378.8,0,407.8S23.7,460.5,52.7,460.5z
			 M52.7,379.5c15.6,0,28.2,12.7,28.2,28.2c0,15.6-12.7,28.2-28.2,28.2s-28.2-12.7-28.2-28.2C24.5,392.1,37.2,379.5,52.7,379.5z"/>
		<path class="st0" d="M175.9,94.3h301.5c6.8,0,12.3-5.5,12.3-12.3s-5.5-12.3-12.3-12.3H175.9c-6.8,0-12.3,5.5-12.3,12.3
			S169.1,94.3,175.9,94.3z"/>
		<path class="st0" d="M175.9,257.1h301.5c6.8,0,12.3-5.5,12.3-12.3s-5.5-12.3-12.3-12.3H175.9c-6.8,0-12.3,5.5-12.3,12.3
			S169.1,257.1,175.9,257.1z"/>
		<path class="st0" d="M175.9,420h301.5c6.8,0,12.3-5.5,12.3-12.3s-5.5-12.3-12.3-12.3H175.9c-6.8,0-12.3,5.5-12.3,12.3
			S169.1,420,175.9,420z"/>
	</g>
</g>
</svg>
